M48
; DRILL file {KiCad 6.0.2-378541a8eb~116~ubuntu21.10.1} date Fri 11 Mar 2022 10:43:51 AM PST
; FORMAT={-:-/ absolute / inch / decimal}
; #@! TF.CreationDate,2022-03-11T10:43:51-08:00
; #@! TF.GenerationSoftware,Kicad,Pcbnew,6.0.2-378541a8eb~116~ubuntu21.10.1
; #@! TF.FileFunction,MixedPlating,1,2
FMAT,2
INCH
; #@! TA.AperFunction,Plated,PTH,ViaDrill
T1C0.0080
; #@! TA.AperFunction,Plated,PTH,ViaDrill
T2C0.0472
; #@! TA.AperFunction,Plated,PTH,ComponentDrill
T3C0.1457
; #@! TA.AperFunction,NonPlated,NPTH,ComponentDrill
T4C0.0270
%
G90
G05
T1
X6.8898Y-3.8169
X6.8898Y-3.9154
X6.8898Y-4.0138
X6.8898Y-4.1122
X6.8898Y-4.2106
X6.8898Y-4.313
X6.8898Y-4.4075
X6.8898Y-4.502
X6.8937Y-3.7224
X6.9882Y-2.8366
X6.9882Y-2.935
X6.9882Y-3.0335
X6.9882Y-3.1319
X6.9882Y-3.2303
X6.9882Y-3.5256
X6.9882Y-3.6201
X6.9882Y-3.7146
X7.0866Y-3.0335
X7.0866Y-3.7185
X7.185Y-3.0295
X7.185Y-3.7185
X7.2402Y-4.2343
X7.2402Y-4.3248
X7.2402Y-4.4193
X7.2441Y-4.0846
X7.2835Y-2.8327
X7.2835Y-2.935
X7.2835Y-3.0295
X7.2835Y-3.128
X7.2835Y-3.2303
X7.2835Y-3.5256
X7.2835Y-3.6201
X7.2835Y-3.7185
X7.3819Y-3.0295
X7.3819Y-3.7185
X7.3819Y-3.8209
X7.3819Y-3.9154
X7.3819Y-4.0295
X7.4803Y-3.0295
X7.4803Y-3.7224
X7.5787Y-2.8327
X7.5787Y-2.9311
X7.5787Y-3.0335
X7.5787Y-3.128
X7.5787Y-3.2303
X7.5787Y-3.5256
X7.5787Y-3.6201
X7.5787Y-3.7185
X7.6772Y-3.0335
X7.6772Y-3.7185
X7.7756Y-3.0335
X7.7756Y-3.7185
X7.874Y-2.8366
X7.874Y-2.9311
X7.874Y-3.0335
X7.874Y-3.1319
X7.874Y-3.2303
X7.874Y-3.3287
X7.874Y-3.4232
X7.874Y-3.5217
X7.874Y-3.6201
X7.874Y-3.7185
X7.874Y-3.8169
X7.874Y-3.9154
X7.874Y-4.0413
X7.9724Y-3.0295
X7.9724Y-3.7224
X8.0118Y-4.0846
X8.0118Y-4.2382
X8.0118Y-4.3287
X8.0157Y-4.4232
X8.0709Y-3.0295
X8.0709Y-3.7224
X8.1693Y-2.8366
X8.1693Y-2.9311
X8.1693Y-3.128
X8.1693Y-3.2264
X8.1693Y-3.5256
X8.1693Y-3.6201
X8.1693Y-3.7185
X8.1732Y-3.0335
X8.2677Y-3.0295
X8.2677Y-3.7224
X8.3661Y-3.0295
X8.3661Y-3.7224
X8.3661Y-3.8169
X8.3661Y-3.9154
X8.3661Y-4.0335
X8.4646Y-2.8366
X8.4646Y-2.9311
X8.4646Y-3.0295
X8.4646Y-3.128
X8.4646Y-3.2264
X8.4646Y-3.5256
X8.4646Y-3.6201
X8.4646Y-3.7185
X8.4961Y-4.3209
X8.5Y-4.0846
X8.5Y-4.2343
X8.5Y-4.4193
X8.563Y-3.0335
X8.563Y-3.7185
X8.6614Y-3.0335
X8.6614Y-3.7185
X8.7598Y-2.8366
X8.7598Y-2.935
X8.7598Y-3.0335
X8.7598Y-3.128
X8.7598Y-3.2303
X8.7598Y-3.5256
X8.7598Y-3.6201
X8.7598Y-3.7146
X8.8583Y-3.7185
X8.8583Y-3.8169
X8.8583Y-3.9154
X8.8583Y-4.0138
X8.8583Y-4.1122
X8.8583Y-4.2106
X8.8583Y-4.3091
X8.8583Y-4.4075
X8.8583Y-4.5059
T2
X7.7087Y-3.3287
X8.0354Y-3.3287
T3
X6.1024Y-2.313
X6.1024Y-4.8327
X9.6457Y-2.313
X9.6457Y-4.8327
T4
X6.5748Y-2.6752
X6.5748Y-4.1752
X9.185Y-2.6752
X9.185Y-4.1752
T0
M30
