G04 #@! TF.GenerationSoftware,KiCad,Pcbnew,6.0.2-378541a8eb~116~ubuntu21.10.1*
G04 #@! TF.CreationDate,2022-03-11T10:43:46-08:00*
G04 #@! TF.ProjectId,PD_ElectrodeBoard_v7,50445f45-6c65-4637-9472-6f6465426f61,6.2*
G04 #@! TF.SameCoordinates,Original*
G04 #@! TF.FileFunction,Copper,L2,Bot*
G04 #@! TF.FilePolarity,Positive*
%FSLAX46Y46*%
G04 Gerber Fmt 4.6, Leading zero omitted, Abs format (unit mm)*
G04 Created by KiCad (PCBNEW 6.0.2-378541a8eb~116~ubuntu21.10.1) date 2022-03-11 10:43:46*
%MOMM*%
%LPD*%
G01*
G04 APERTURE LIST*
G04 #@! TA.AperFunction,ComponentPad*
%ADD10C,6.200000*%
G04 #@! TD*
G04 #@! TA.AperFunction,SMDPad,CuDef*
%ADD11R,1.854200X0.457200*%
G04 #@! TD*
G04 #@! TA.AperFunction,SMDPad,CuDef*
%ADD12R,1.200000X2.000000*%
G04 #@! TD*
G04 #@! TA.AperFunction,ViaPad*
%ADD13C,0.457200*%
G04 #@! TD*
G04 #@! TA.AperFunction,ViaPad*
%ADD14C,1.400000*%
G04 #@! TD*
G04 #@! TA.AperFunction,Conductor*
%ADD15C,0.105000*%
G04 #@! TD*
G04 APERTURE END LIST*
D10*
X155000000Y-58750000D03*
X245000000Y-58750000D03*
X155000000Y-122750000D03*
X245000000Y-122750000D03*
D11*
X231712500Y-106685000D03*
X234887500Y-106685000D03*
X231712500Y-105415000D03*
X234887500Y-105415000D03*
X231712500Y-104145000D03*
X234887500Y-104145000D03*
X231712500Y-102875000D03*
X234887500Y-102875000D03*
X231712500Y-101605000D03*
X234887500Y-101605000D03*
X231712500Y-100335000D03*
X234887500Y-100335000D03*
X231712500Y-99065000D03*
X234887500Y-99065000D03*
X231712500Y-97795000D03*
X234887500Y-97795000D03*
X231712500Y-96525000D03*
X234887500Y-96525000D03*
X231712500Y-95255000D03*
X234887500Y-95255000D03*
X231712500Y-93985000D03*
X234887500Y-93985000D03*
X231712500Y-92715000D03*
X234887500Y-92715000D03*
X231712500Y-91445000D03*
X234887500Y-91445000D03*
X231712500Y-90175000D03*
X234887500Y-90175000D03*
X231712500Y-88905000D03*
X234887500Y-88905000D03*
X231712500Y-87635000D03*
X234887500Y-87635000D03*
X231712500Y-86365000D03*
X234887500Y-86365000D03*
X231712500Y-85095000D03*
X234887500Y-85095000D03*
X231712500Y-83825000D03*
X234887500Y-83825000D03*
X231712500Y-82555000D03*
X234887500Y-82555000D03*
X231712500Y-81285000D03*
X234887500Y-81285000D03*
X231712500Y-80015000D03*
X234887500Y-80015000D03*
X231712500Y-78745000D03*
X234887500Y-78745000D03*
X231712500Y-77475000D03*
X234887500Y-77475000D03*
X231712500Y-76205000D03*
X234887500Y-76205000D03*
X231712500Y-74935000D03*
X234887500Y-74935000D03*
X231712500Y-73665000D03*
X234887500Y-73665000D03*
X231712500Y-72395000D03*
X234887500Y-72395000D03*
X231712500Y-71125000D03*
X234887500Y-71125000D03*
X231712500Y-69855000D03*
X234887500Y-69855000D03*
X231712500Y-68585000D03*
X234887500Y-68585000D03*
X231712500Y-67315000D03*
X234887500Y-67315000D03*
X165412500Y-106685000D03*
X168587500Y-106685000D03*
X165412500Y-105415000D03*
X168587500Y-105415000D03*
X165412500Y-104145000D03*
X168587500Y-104145000D03*
X165412500Y-102875000D03*
X168587500Y-102875000D03*
X165412500Y-101605000D03*
X168587500Y-101605000D03*
X165412500Y-100335000D03*
X168587500Y-100335000D03*
X165412500Y-99065000D03*
X168587500Y-99065000D03*
X165412500Y-97795000D03*
X168587500Y-97795000D03*
X165412500Y-96525000D03*
X168587500Y-96525000D03*
X165412500Y-95255000D03*
X168587500Y-95255000D03*
X165412500Y-93985000D03*
X168587500Y-93985000D03*
X165412500Y-92715000D03*
X168587500Y-92715000D03*
X165412500Y-91445000D03*
X168587500Y-91445000D03*
X165412500Y-90175000D03*
X168587500Y-90175000D03*
X165412500Y-88905000D03*
X168587500Y-88905000D03*
X165412500Y-87635000D03*
X168587500Y-87635000D03*
X165412500Y-86365000D03*
X168587500Y-86365000D03*
X165412500Y-85095000D03*
X168587500Y-85095000D03*
X165412500Y-83825000D03*
X168587500Y-83825000D03*
X165412500Y-82555000D03*
X168587500Y-82555000D03*
X165412500Y-81285000D03*
X168587500Y-81285000D03*
X165412500Y-80015000D03*
X168587500Y-80015000D03*
X165412500Y-78745000D03*
X168587500Y-78745000D03*
X165412500Y-77475000D03*
X168587500Y-77475000D03*
X165412500Y-76205000D03*
X168587500Y-76205000D03*
X165412500Y-74935000D03*
X168587500Y-74935000D03*
X165412500Y-73665000D03*
X168587500Y-73665000D03*
X165412500Y-72395000D03*
X168587500Y-72395000D03*
X165412500Y-71125000D03*
X168587500Y-71125000D03*
X165412500Y-69855000D03*
X168587500Y-69855000D03*
X165412500Y-68585000D03*
X168587500Y-68585000D03*
X165412500Y-67315000D03*
X168587500Y-67315000D03*
D12*
X199000000Y-58250000D03*
D13*
X200000000Y-86950000D03*
D14*
X195800000Y-84550000D03*
X204100000Y-84550000D03*
D13*
X192500000Y-94450000D03*
X195000000Y-94450000D03*
X197500000Y-94450000D03*
X200000000Y-91950000D03*
X225000000Y-106950000D03*
X212500000Y-96950000D03*
X210000000Y-94550000D03*
X225000000Y-104450000D03*
X225000000Y-109450000D03*
X212500000Y-94550000D03*
X212500000Y-99450000D03*
X225000000Y-101950000D03*
X225000000Y-111950000D03*
X215000000Y-94450000D03*
X207500000Y-94450000D03*
X225000000Y-99450000D03*
X225000000Y-114450000D03*
X217500000Y-94450000D03*
X215900000Y-103750000D03*
X225000000Y-96950000D03*
X215900000Y-107550000D03*
X220000000Y-94450000D03*
X215800000Y-109750000D03*
X225000000Y-94450000D03*
X215900000Y-112250000D03*
X222500000Y-94350000D03*
X212500000Y-102450000D03*
X222500000Y-91950000D03*
X203500000Y-107650000D03*
X215000000Y-91950000D03*
X203500000Y-109950000D03*
X222500000Y-89550000D03*
X203600000Y-112350000D03*
X215000000Y-89550000D03*
X207500000Y-91950000D03*
X207500000Y-89550000D03*
X205000000Y-94550000D03*
X202500000Y-94550000D03*
X200000000Y-74450000D03*
X207500000Y-81950000D03*
X200000000Y-79550000D03*
X207500000Y-79450000D03*
X202500000Y-76950000D03*
X222500000Y-82050000D03*
X200000000Y-84550000D03*
X215000000Y-81950000D03*
X200000000Y-89450000D03*
X222500000Y-79450000D03*
X205000000Y-76950000D03*
X215000000Y-79450000D03*
X200000000Y-94450000D03*
X222500000Y-77050000D03*
X207500000Y-72050000D03*
X222500000Y-74550000D03*
X207500000Y-74450000D03*
X222500000Y-72050000D03*
X207600000Y-77050000D03*
X220000000Y-77050000D03*
X210000000Y-76950000D03*
X217500000Y-77050000D03*
X212500000Y-76950000D03*
X215000000Y-76950000D03*
X215000000Y-72050000D03*
X215000000Y-74450000D03*
X185000000Y-94450000D03*
X175000000Y-106950000D03*
X175000000Y-104450000D03*
X187500000Y-97050000D03*
X182500000Y-94450000D03*
X175000000Y-109550000D03*
X175000000Y-101950000D03*
X187500000Y-102350000D03*
X180000000Y-94450000D03*
X175000000Y-111950000D03*
X175000000Y-99450000D03*
X184000000Y-103750000D03*
X177500000Y-94350000D03*
X175000000Y-114350000D03*
X175000000Y-96950000D03*
X183900000Y-107550000D03*
X175100000Y-94550000D03*
X183900000Y-109850000D03*
X187500000Y-94450000D03*
X183900000Y-112250000D03*
X177500000Y-91950000D03*
X187500000Y-99450000D03*
X185000000Y-91950000D03*
X200000000Y-96950000D03*
X190000000Y-94550000D03*
X200000000Y-99450000D03*
X177500000Y-89550000D03*
X200000000Y-102650000D03*
X185000000Y-89550000D03*
X203500000Y-103750000D03*
X192500000Y-91950000D03*
X192500000Y-89550000D03*
X200000000Y-72050000D03*
X200000000Y-77050000D03*
X200000000Y-82050000D03*
X185000000Y-82050000D03*
X197500000Y-77050000D03*
X190000000Y-76950000D03*
X177500000Y-82050000D03*
X192500000Y-82050000D03*
X185000000Y-79450000D03*
X195000000Y-77050000D03*
X187500000Y-76950000D03*
X192500000Y-79450000D03*
X177500000Y-79550000D03*
X192500000Y-77050000D03*
X177500000Y-77050000D03*
X192500000Y-71950000D03*
X177500000Y-74550000D03*
X192500000Y-74450000D03*
X177500000Y-72050000D03*
X185000000Y-71950000D03*
X180000000Y-77050000D03*
X185000000Y-74550000D03*
X182500000Y-76950000D03*
X185000000Y-76950000D03*
D15*
X234887500Y-77475000D02*
X240135000Y-77475000D01*
X240135000Y-77475000D02*
X242380000Y-75230000D01*
X242380000Y-75230000D02*
X242380000Y-67080000D01*
X242380000Y-67080000D02*
X235625000Y-60325000D01*
X235625000Y-60325000D02*
X211125000Y-60325000D01*
X211125000Y-60325000D02*
X204100000Y-67350000D01*
X204100000Y-67350000D02*
X204100000Y-82150000D01*
X204100000Y-82150000D02*
X201800000Y-84450000D01*
X201800000Y-84450000D02*
X201800000Y-87850000D01*
X201800000Y-87850000D02*
X200200000Y-89450000D01*
X200200000Y-89450000D02*
X200000000Y-89450000D01*
X165412500Y-78745000D02*
X159195000Y-78745000D01*
X159195000Y-78745000D02*
X156330000Y-75880000D01*
X156330000Y-66420000D02*
X162070000Y-60680000D01*
X156330000Y-75880000D02*
X156330000Y-66420000D01*
X162070000Y-60680000D02*
X189126306Y-60680000D01*
X189126306Y-60680000D02*
X196700000Y-68253694D01*
X196700000Y-68253694D02*
X196700000Y-81700000D01*
X196700000Y-81700000D02*
X198600000Y-83600000D01*
X198600000Y-83600000D02*
X198600000Y-85550000D01*
X198600000Y-85550000D02*
X200000000Y-86950000D01*
X191000000Y-86450000D02*
X194000000Y-89450000D01*
X192600000Y-94450000D02*
X192500000Y-94450000D01*
X171700000Y-86450000D02*
X191000000Y-86450000D01*
X194000000Y-93050000D02*
X192600000Y-94450000D01*
X194000000Y-89450000D02*
X194000000Y-93050000D01*
X168587500Y-85095000D02*
X170345000Y-85095000D01*
X170345000Y-85095000D02*
X171700000Y-86450000D01*
X195000000Y-89350000D02*
X195000000Y-94450000D01*
X168587500Y-83825000D02*
X170275000Y-83825000D01*
X172200000Y-85750000D02*
X191400000Y-85750000D01*
X170275000Y-83825000D02*
X172200000Y-85750000D01*
X191400000Y-85750000D02*
X195000000Y-89350000D01*
X168587500Y-82555000D02*
X170505000Y-82555000D01*
X197500000Y-90550000D02*
X197500000Y-94450000D01*
X170505000Y-82555000D02*
X173000000Y-85050000D01*
X173000000Y-85050000D02*
X192000000Y-85050000D01*
X192000000Y-85050000D02*
X197500000Y-90550000D01*
X198600000Y-91950000D02*
X200000000Y-91950000D01*
X171335000Y-81285000D02*
X171800000Y-81750000D01*
X168587500Y-81285000D02*
X171335000Y-81285000D01*
X198000000Y-89350000D02*
X198000000Y-91350000D01*
X171800000Y-82550000D02*
X173500000Y-84250000D01*
X173500000Y-84250000D02*
X192900000Y-84250000D01*
X171800000Y-81750000D02*
X171800000Y-82550000D01*
X198000000Y-91350000D02*
X198600000Y-91950000D01*
X192900000Y-84250000D02*
X198000000Y-89350000D01*
X236380000Y-106780000D02*
X236380000Y-107580000D01*
X226800000Y-106950000D02*
X225000000Y-106950000D01*
X236380000Y-107580000D02*
X235980000Y-107980000D01*
X235980000Y-107980000D02*
X227830000Y-107980000D01*
X227830000Y-107980000D02*
X226800000Y-106950000D01*
X236285000Y-106685000D02*
X236380000Y-106780000D01*
X234887500Y-106685000D02*
X236285000Y-106685000D01*
X227400000Y-105850000D02*
X224600000Y-105850000D01*
X220900000Y-98250000D02*
X215300000Y-98250000D01*
X222100000Y-99450000D02*
X220900000Y-98250000D01*
X228235000Y-106685000D02*
X227600000Y-106050000D01*
X224600000Y-105850000D02*
X222900000Y-105850000D01*
X214000000Y-96950000D02*
X212500000Y-96950000D01*
X215300000Y-98250000D02*
X214000000Y-96950000D01*
X231712500Y-106685000D02*
X228235000Y-106685000D01*
X222100000Y-105050000D02*
X222100000Y-99450000D01*
X227600000Y-106050000D02*
X227400000Y-105850000D01*
X222900000Y-105850000D02*
X222100000Y-105050000D01*
X226900000Y-108150000D02*
X223200000Y-108150000D01*
X237130000Y-105730000D02*
X237130000Y-108180000D01*
X210000000Y-97550000D02*
X210000000Y-94550000D01*
X213900000Y-98850000D02*
X213300000Y-98250000D01*
X210700000Y-98250000D02*
X210000000Y-97550000D01*
X221400000Y-106350000D02*
X221400000Y-100150000D01*
X220100000Y-98850000D02*
X213900000Y-98850000D01*
X213300000Y-98250000D02*
X210700000Y-98250000D01*
X223200000Y-108150000D02*
X221400000Y-106350000D01*
X236815000Y-105415000D02*
X237130000Y-105730000D01*
X234887500Y-105415000D02*
X236815000Y-105415000D01*
X237130000Y-108180000D02*
X236460000Y-108850000D01*
X236460000Y-108850000D02*
X227600000Y-108850000D01*
X221400000Y-100150000D02*
X220100000Y-98850000D01*
X227600000Y-108850000D02*
X226900000Y-108150000D01*
X227100000Y-104450000D02*
X225000000Y-104450000D01*
X231712500Y-105415000D02*
X228065000Y-105415000D01*
X228065000Y-105415000D02*
X227100000Y-104450000D01*
X234887500Y-104145000D02*
X236945000Y-104145000D01*
X227900000Y-109850000D02*
X227500000Y-109450000D01*
X236945000Y-104145000D02*
X237830000Y-105030000D01*
X237830000Y-105030000D02*
X237830000Y-108730000D01*
X237830000Y-108730000D02*
X236710000Y-109850000D01*
X227500000Y-109450000D02*
X225000000Y-109450000D01*
X236710000Y-109850000D02*
X227900000Y-109850000D01*
X221400000Y-97550000D02*
X215500000Y-97550000D01*
X231712500Y-104145000D02*
X228695000Y-104145000D01*
X223300000Y-103250000D02*
X222800000Y-102750000D01*
X222800000Y-102750000D02*
X222800000Y-98950000D01*
X222800000Y-98950000D02*
X221400000Y-97550000D01*
X215500000Y-97550000D02*
X212500000Y-94550000D01*
X227800000Y-103250000D02*
X223300000Y-103250000D01*
X228695000Y-104145000D02*
X227800000Y-103250000D01*
X220600000Y-107950000D02*
X220600000Y-100650000D01*
X238680000Y-109080000D02*
X237010000Y-110750000D01*
X220600000Y-100650000D02*
X219400000Y-99450000D01*
X219400000Y-99450000D02*
X212500000Y-99450000D01*
X238680000Y-104230000D02*
X238680000Y-109080000D01*
X237010000Y-110750000D02*
X223400000Y-110750000D01*
X234887500Y-102875000D02*
X237325000Y-102875000D01*
X237325000Y-102875000D02*
X238680000Y-104230000D01*
X223400000Y-110750000D02*
X220600000Y-107950000D01*
X231712500Y-102875000D02*
X229625000Y-102875000D01*
X229625000Y-102875000D02*
X228700000Y-101950000D01*
X228700000Y-101950000D02*
X225000000Y-101950000D01*
X237455000Y-101605000D02*
X239430000Y-103580000D01*
X234887500Y-101605000D02*
X237455000Y-101605000D01*
X239430000Y-103580000D02*
X239430000Y-109630000D01*
X239430000Y-109630000D02*
X237110000Y-111950000D01*
X237110000Y-111950000D02*
X225000000Y-111950000D01*
X217500000Y-96650000D02*
X215600000Y-96650000D01*
X223300000Y-100350000D02*
X223300000Y-98550000D01*
X221700000Y-96950000D02*
X217800000Y-96950000D01*
X215600000Y-96650000D02*
X215000000Y-96050000D01*
X223300000Y-98550000D02*
X221700000Y-96950000D01*
X231712500Y-101605000D02*
X229655000Y-101605000D01*
X223700000Y-100750000D02*
X223300000Y-100350000D01*
X228800000Y-100750000D02*
X223700000Y-100750000D01*
X217800000Y-96950000D02*
X217500000Y-96650000D01*
X229655000Y-101605000D02*
X228800000Y-100750000D01*
X215000000Y-96050000D02*
X215000000Y-94450000D01*
X207500000Y-98550000D02*
X207500000Y-94450000D01*
X237000000Y-113250000D02*
X222700000Y-113250000D01*
X209700000Y-100750000D02*
X207500000Y-98550000D01*
X234887500Y-100335000D02*
X237485000Y-100335000D01*
X219900000Y-101450000D02*
X219200000Y-100750000D01*
X222700000Y-113250000D02*
X219900000Y-110450000D01*
X219200000Y-100750000D02*
X209700000Y-100750000D01*
X240230000Y-110020000D02*
X237000000Y-113250000D01*
X219900000Y-110450000D02*
X219900000Y-101450000D01*
X237485000Y-100335000D02*
X240230000Y-103080000D01*
X240230000Y-103080000D02*
X240230000Y-110020000D01*
X231712500Y-100335000D02*
X229285000Y-100335000D01*
X228400000Y-99450000D02*
X225000000Y-99450000D01*
X229285000Y-100335000D02*
X228400000Y-99450000D01*
X236400000Y-114450000D02*
X225000000Y-114450000D01*
X237000000Y-114450000D02*
X241130000Y-110320000D01*
X237515000Y-99065000D02*
X234887500Y-99065000D01*
X241130000Y-102680000D02*
X237515000Y-99065000D01*
X236400000Y-114450000D02*
X237000000Y-114450000D01*
X241130000Y-110320000D02*
X241130000Y-102680000D01*
X229515000Y-99065000D02*
X228700000Y-98250000D01*
X228700000Y-98250000D02*
X223700000Y-98250000D01*
X217500000Y-94950000D02*
X217500000Y-94450000D01*
X219000000Y-96450000D02*
X217500000Y-94950000D01*
X221900000Y-96450000D02*
X219000000Y-96450000D01*
X223700000Y-98250000D02*
X221900000Y-96450000D01*
X231712500Y-99065000D02*
X229515000Y-99065000D01*
X241980000Y-101980000D02*
X241980000Y-110470000D01*
X217700000Y-103750000D02*
X215900000Y-103750000D01*
X241980000Y-110470000D02*
X236370000Y-116080000D01*
X219200000Y-105250000D02*
X217700000Y-103750000D01*
X234887500Y-97795000D02*
X237795000Y-97795000D01*
X236370000Y-116080000D02*
X223330000Y-116080000D01*
X219200000Y-111950000D02*
X219200000Y-105250000D01*
X237795000Y-97795000D02*
X241980000Y-101980000D01*
X223330000Y-116080000D02*
X219200000Y-111950000D01*
X228700000Y-96950000D02*
X225000000Y-96950000D01*
X231712500Y-97795000D02*
X229545000Y-97795000D01*
X229545000Y-97795000D02*
X228700000Y-96950000D01*
X236000000Y-117550000D02*
X223500000Y-117550000D01*
X238800000Y-96550000D02*
X242900000Y-100650000D01*
X223500000Y-117550000D02*
X218300000Y-112350000D01*
X217900000Y-107550000D02*
X215900000Y-107550000D01*
X218300000Y-112350000D02*
X218300000Y-107950000D01*
X242900000Y-100650000D02*
X242900000Y-110650000D01*
X242900000Y-110650000D02*
X236000000Y-117550000D01*
X218300000Y-107950000D02*
X217900000Y-107550000D01*
X234850000Y-96550000D02*
X238800000Y-96550000D01*
X229275000Y-96525000D02*
X228700000Y-95950000D01*
X228700000Y-95950000D02*
X220400000Y-95950000D01*
X231712500Y-96525000D02*
X229275000Y-96525000D01*
X220000000Y-95550000D02*
X220000000Y-94450000D01*
X220400000Y-95950000D02*
X220000000Y-95550000D01*
X216900000Y-109750000D02*
X215800000Y-109750000D01*
X217500000Y-110350000D02*
X216900000Y-109750000D01*
X239305000Y-95255000D02*
X243800000Y-99750000D01*
X234887500Y-95255000D02*
X239305000Y-95255000D01*
X217500000Y-113850000D02*
X217500000Y-110350000D01*
X243800000Y-111050000D02*
X236100000Y-118750000D01*
X243800000Y-99750000D02*
X243800000Y-111050000D01*
X236100000Y-118750000D02*
X222400000Y-118750000D01*
X222400000Y-118750000D02*
X217500000Y-113850000D01*
X228405000Y-95255000D02*
X227600000Y-94450000D01*
X231712500Y-95255000D02*
X228405000Y-95255000D01*
X227600000Y-94450000D02*
X225000000Y-94450000D01*
X236150000Y-119900000D02*
X221850000Y-119900000D01*
X221850000Y-119900000D02*
X215900000Y-113950000D01*
X244700000Y-111350000D02*
X236150000Y-119900000D01*
X244700000Y-98960000D02*
X244700000Y-111350000D01*
X239725000Y-93985000D02*
X244700000Y-98960000D01*
X215900000Y-113950000D02*
X215900000Y-112250000D01*
X234887500Y-93985000D02*
X239725000Y-93985000D01*
X231712500Y-93985000D02*
X228335000Y-93985000D01*
X228335000Y-93985000D02*
X227400000Y-93050000D01*
X227400000Y-93050000D02*
X223800000Y-93050000D01*
X223800000Y-93050000D02*
X222500000Y-94350000D01*
X207600000Y-113450000D02*
X207600000Y-103050000D01*
X245700000Y-98300000D02*
X245700000Y-111650000D01*
X213500000Y-114250000D02*
X208400000Y-114250000D01*
X234887500Y-92715000D02*
X240115000Y-92715000D01*
X207600000Y-103050000D02*
X208200000Y-102450000D01*
X208200000Y-102450000D02*
X212500000Y-102450000D01*
X240115000Y-92715000D02*
X245700000Y-98300000D01*
X220290000Y-121040000D02*
X213500000Y-114250000D01*
X208400000Y-114250000D02*
X207600000Y-113450000D01*
X245700000Y-111650000D02*
X236310000Y-121040000D01*
X236310000Y-121040000D02*
X220290000Y-121040000D01*
X228365000Y-92715000D02*
X227600000Y-91950000D01*
X231712500Y-92715000D02*
X228365000Y-92715000D01*
X227600000Y-91950000D02*
X222500000Y-91950000D01*
X234100000Y-122250000D02*
X219500000Y-122250000D01*
X212600000Y-115350000D02*
X208100000Y-115350000D01*
X206300000Y-113550000D02*
X206300000Y-108050000D01*
X206300000Y-108050000D02*
X205900000Y-107650000D01*
X246700000Y-97350000D02*
X246700000Y-111950000D01*
X234887500Y-91445000D02*
X240795000Y-91445000D01*
X219500000Y-122250000D02*
X212600000Y-115350000D01*
X246700000Y-111950000D02*
X236400000Y-122250000D01*
X236400000Y-122250000D02*
X234100000Y-122250000D01*
X205900000Y-107650000D02*
X203500000Y-107650000D01*
X240795000Y-91445000D02*
X246700000Y-97350000D01*
X208100000Y-115350000D02*
X206300000Y-113550000D01*
X231712500Y-91445000D02*
X226295000Y-91445000D01*
X225700000Y-90850000D02*
X217300000Y-90850000D01*
X217300000Y-90850000D02*
X216200000Y-91950000D01*
X216200000Y-91950000D02*
X215000000Y-91950000D01*
X226295000Y-91445000D02*
X225700000Y-90850000D01*
X207800000Y-116850000D02*
X204900000Y-113950000D01*
X218700000Y-123250000D02*
X212300000Y-116850000D01*
X247700000Y-96650000D02*
X247700000Y-112350000D01*
X234887500Y-90175000D02*
X241225000Y-90175000D01*
X204900000Y-113950000D02*
X204900000Y-110250000D01*
X204600000Y-109950000D02*
X203500000Y-109950000D01*
X232500000Y-123250000D02*
X218700000Y-123250000D01*
X247700000Y-112350000D02*
X236800000Y-123250000D01*
X212300000Y-116850000D02*
X207800000Y-116850000D01*
X204900000Y-110250000D02*
X204600000Y-109950000D01*
X241225000Y-90175000D02*
X247700000Y-96650000D01*
X236800000Y-123250000D02*
X232500000Y-123250000D01*
X226900000Y-89550000D02*
X222500000Y-89550000D01*
X227525000Y-90175000D02*
X226900000Y-89550000D01*
X231712500Y-90175000D02*
X227525000Y-90175000D01*
X241755000Y-88905000D02*
X248600000Y-95750000D01*
X234887500Y-88905000D02*
X241755000Y-88905000D01*
X207500000Y-118050000D02*
X203600000Y-114150000D01*
X217900000Y-124050000D02*
X211900000Y-118050000D01*
X237300000Y-124050000D02*
X217900000Y-124050000D01*
X211900000Y-118050000D02*
X207500000Y-118050000D01*
X203600000Y-114150000D02*
X203600000Y-112350000D01*
X248600000Y-112750000D02*
X237300000Y-124050000D01*
X248600000Y-95750000D02*
X248600000Y-112750000D01*
X231712500Y-88905000D02*
X228955000Y-88905000D01*
X228955000Y-88905000D02*
X227900000Y-87850000D01*
X227900000Y-87850000D02*
X218200000Y-87850000D01*
X216500000Y-89550000D02*
X215000000Y-89550000D01*
X218200000Y-87850000D02*
X216500000Y-89550000D01*
X210000000Y-89450000D02*
X207500000Y-91950000D01*
X210000000Y-88850000D02*
X210000000Y-89450000D01*
X229285000Y-87635000D02*
X228700000Y-87050000D01*
X211800000Y-87050000D02*
X210000000Y-88850000D01*
X231712500Y-87635000D02*
X229285000Y-87635000D01*
X228700000Y-87050000D02*
X211800000Y-87050000D01*
X210585000Y-86365000D02*
X207500000Y-89450000D01*
X231712500Y-86365000D02*
X210585000Y-86365000D01*
X207500000Y-89450000D02*
X207500000Y-89550000D01*
X246480000Y-79280000D02*
X246480000Y-67080000D01*
X200570000Y-56380000D02*
X199050000Y-57900000D01*
X234887500Y-85095000D02*
X240665000Y-85095000D01*
X240665000Y-85095000D02*
X246480000Y-79280000D01*
X199050000Y-57900000D02*
X199050000Y-58300000D01*
X246480000Y-67080000D02*
X235780000Y-56380000D01*
X235780000Y-56380000D02*
X200570000Y-56380000D01*
X209655000Y-85095000D02*
X205000000Y-89750000D01*
X231712500Y-85095000D02*
X209655000Y-85095000D01*
X205000000Y-89750000D02*
X205000000Y-94550000D01*
X226400000Y-84650000D02*
X208500000Y-84650000D01*
X231712500Y-83825000D02*
X227225000Y-83825000D01*
X227225000Y-83825000D02*
X226400000Y-84650000D01*
X208500000Y-84650000D02*
X202500000Y-90650000D01*
X202500000Y-90650000D02*
X202500000Y-94550000D01*
X206570000Y-57280000D02*
X201000000Y-62850000D01*
X201000000Y-73350000D02*
X200000000Y-74350000D01*
X201000000Y-62850000D02*
X201000000Y-73350000D01*
X200000000Y-74350000D02*
X200000000Y-74450000D01*
X235830000Y-57280000D02*
X206570000Y-57280000D01*
X245630000Y-67080000D02*
X235830000Y-57280000D01*
X241805000Y-82555000D02*
X245630000Y-78730000D01*
X234887500Y-82555000D02*
X241805000Y-82555000D01*
X245630000Y-78730000D02*
X245630000Y-67080000D01*
X213000000Y-84050000D02*
X210900000Y-81950000D01*
X210900000Y-81950000D02*
X207500000Y-81950000D01*
X231712500Y-82555000D02*
X227095000Y-82555000D01*
X225600000Y-84050000D02*
X213000000Y-84050000D01*
X227095000Y-82555000D02*
X225600000Y-84050000D01*
X235880000Y-58080000D02*
X207470000Y-58080000D01*
X207470000Y-58080000D02*
X201600000Y-63950000D01*
X201600000Y-77950000D02*
X200000000Y-79550000D01*
X244730000Y-78330000D02*
X244730000Y-66930000D01*
X244730000Y-66930000D02*
X235880000Y-58080000D01*
X201600000Y-63950000D02*
X201600000Y-77950000D01*
X234887500Y-81285000D02*
X241775000Y-81285000D01*
X241775000Y-81285000D02*
X244730000Y-78330000D01*
X213500000Y-83450000D02*
X209500000Y-79450000D01*
X231712500Y-81285000D02*
X226665000Y-81285000D01*
X209500000Y-79450000D02*
X207500000Y-79450000D01*
X224500000Y-83450000D02*
X213500000Y-83450000D01*
X226665000Y-81285000D02*
X224500000Y-83450000D01*
X243880000Y-77730000D02*
X243880000Y-66880000D01*
X234887500Y-80015000D02*
X241595000Y-80015000D01*
X202500000Y-64850000D02*
X202500000Y-76950000D01*
X208470000Y-58880000D02*
X202500000Y-64850000D01*
X235880000Y-58880000D02*
X208470000Y-58880000D01*
X243880000Y-66880000D02*
X235880000Y-58880000D01*
X241595000Y-80015000D02*
X243880000Y-77730000D01*
X226035000Y-80015000D02*
X224000000Y-82050000D01*
X231712500Y-80015000D02*
X226035000Y-80015000D01*
X224000000Y-82050000D02*
X222500000Y-82050000D01*
X241315000Y-78745000D02*
X243180000Y-76880000D01*
X203300000Y-65950000D02*
X203300000Y-81250000D01*
X209620000Y-59630000D02*
X203300000Y-65950000D01*
X235730000Y-59630000D02*
X209620000Y-59630000D01*
X203300000Y-81250000D02*
X200000000Y-84550000D01*
X243180000Y-67080000D02*
X235730000Y-59630000D01*
X234887500Y-78745000D02*
X241315000Y-78745000D01*
X243180000Y-76880000D02*
X243180000Y-67080000D01*
X231712500Y-78745000D02*
X226205000Y-78745000D01*
X215000000Y-81850000D02*
X215000000Y-81950000D01*
X226205000Y-78745000D02*
X224300000Y-80650000D01*
X216200000Y-80650000D02*
X215000000Y-81850000D01*
X224300000Y-80650000D02*
X216200000Y-80650000D01*
X231712500Y-77475000D02*
X225975000Y-77475000D01*
X225975000Y-77475000D02*
X224000000Y-79450000D01*
X224000000Y-79450000D02*
X222500000Y-79450000D01*
X212320000Y-61030000D02*
X208600000Y-64750000D01*
X205000000Y-76150000D02*
X205000000Y-76950000D01*
X241630000Y-67130000D02*
X235530000Y-61030000D01*
X241630000Y-74330000D02*
X241630000Y-67130000D01*
X239755000Y-76205000D02*
X241630000Y-74330000D01*
X205000000Y-68350000D02*
X205000000Y-76150000D01*
X208600000Y-64750000D02*
X205000000Y-68350000D01*
X235530000Y-61030000D02*
X212320000Y-61030000D01*
X234887500Y-76205000D02*
X239755000Y-76205000D01*
X225445000Y-76205000D02*
X223400000Y-78250000D01*
X216200000Y-78250000D02*
X215000000Y-79450000D01*
X223400000Y-78250000D02*
X216200000Y-78250000D01*
X231712500Y-76205000D02*
X225445000Y-76205000D01*
X235575000Y-61875000D02*
X213275000Y-61875000D01*
X239075000Y-74935000D02*
X240980000Y-73030000D01*
X234887500Y-74935000D02*
X239075000Y-74935000D01*
X205700000Y-85250000D02*
X201700000Y-89250000D01*
X201700000Y-92750000D02*
X200000000Y-94450000D01*
X240980000Y-73030000D02*
X240980000Y-67280000D01*
X205700000Y-69450000D02*
X205700000Y-85250000D01*
X213275000Y-61875000D02*
X205700000Y-69450000D01*
X201700000Y-89250000D02*
X201700000Y-92750000D01*
X240980000Y-67280000D02*
X235575000Y-61875000D01*
X222600000Y-77050000D02*
X222500000Y-77050000D01*
X231712500Y-74935000D02*
X224715000Y-74935000D01*
X224715000Y-74935000D02*
X222600000Y-77050000D01*
X238795000Y-73665000D02*
X240280000Y-72180000D01*
X240280000Y-67280000D02*
X235525000Y-62525000D01*
X213925000Y-62525000D02*
X207500000Y-68950000D01*
X240280000Y-72180000D02*
X240280000Y-67280000D01*
X207500000Y-68950000D02*
X207500000Y-72050000D01*
X235525000Y-62525000D02*
X213925000Y-62525000D01*
X234887500Y-73665000D02*
X238795000Y-73665000D01*
X231712500Y-73665000D02*
X223485000Y-73665000D01*
X223485000Y-73665000D02*
X222600000Y-74550000D01*
X222600000Y-74550000D02*
X222500000Y-74550000D01*
X209200000Y-69350000D02*
X209200000Y-72750000D01*
X239580000Y-67280000D02*
X235430000Y-63130000D01*
X235430000Y-63130000D02*
X215420000Y-63130000D01*
X238365000Y-72395000D02*
X239580000Y-71180000D01*
X209200000Y-72750000D02*
X207500000Y-74450000D01*
X239580000Y-71180000D02*
X239580000Y-67280000D01*
X215420000Y-63130000D02*
X209200000Y-69350000D01*
X234887500Y-72395000D02*
X238365000Y-72395000D01*
X230000000Y-72050000D02*
X222500000Y-72050000D01*
X231712500Y-72395000D02*
X230345000Y-72395000D01*
X230345000Y-72395000D02*
X230000000Y-72050000D01*
X238880000Y-67180000D02*
X235480000Y-63780000D01*
X207600000Y-76850000D02*
X207600000Y-77050000D01*
X238880000Y-70180000D02*
X238880000Y-67180000D01*
X235480000Y-63780000D02*
X216270000Y-63780000D01*
X210000000Y-74450000D02*
X207600000Y-76850000D01*
X216270000Y-63780000D02*
X210000000Y-70050000D01*
X234887500Y-71125000D02*
X237935000Y-71125000D01*
X210000000Y-70050000D02*
X210000000Y-74450000D01*
X237935000Y-71125000D02*
X238880000Y-70180000D01*
X231712500Y-71125000D02*
X221625000Y-71125000D01*
X220000000Y-72750000D02*
X220000000Y-77050000D01*
X221625000Y-71125000D02*
X220000000Y-72750000D01*
X210600000Y-70750000D02*
X210600000Y-76350000D01*
X216820000Y-64530000D02*
X210600000Y-70750000D01*
X238080000Y-67080000D02*
X235530000Y-64530000D01*
X210600000Y-76350000D02*
X210000000Y-76950000D01*
X234887500Y-69855000D02*
X237555000Y-69855000D01*
X235530000Y-64530000D02*
X216820000Y-64530000D01*
X238080000Y-69330000D02*
X238080000Y-67080000D01*
X237555000Y-69855000D02*
X238080000Y-69330000D01*
X217500000Y-76950000D02*
X217500000Y-77050000D01*
X220495000Y-69855000D02*
X218800000Y-71550000D01*
X218800000Y-71550000D02*
X218800000Y-75650000D01*
X231712500Y-69855000D02*
X220495000Y-69855000D01*
X218800000Y-75650000D02*
X217500000Y-76950000D01*
X237380000Y-66980000D02*
X235580000Y-65180000D01*
X234887500Y-68585000D02*
X236775000Y-68585000D01*
X236775000Y-68585000D02*
X237380000Y-67980000D01*
X217770000Y-65180000D02*
X212500000Y-70450000D01*
X212500000Y-70450000D02*
X212500000Y-76950000D01*
X237380000Y-67980000D02*
X237380000Y-66980000D01*
X235580000Y-65180000D02*
X217770000Y-65180000D01*
X219965000Y-68585000D02*
X217800000Y-70750000D01*
X231712500Y-68585000D02*
X219965000Y-68585000D01*
X217800000Y-74150000D02*
X215000000Y-76950000D01*
X217800000Y-70750000D02*
X217800000Y-74150000D01*
X215000000Y-70050000D02*
X215000000Y-72050000D01*
X235530000Y-65830000D02*
X219220000Y-65830000D01*
X234887500Y-67315000D02*
X236245000Y-67315000D01*
X236400000Y-67160000D02*
X236400000Y-66700000D01*
X236245000Y-67315000D02*
X236400000Y-67160000D01*
X236400000Y-66700000D02*
X235530000Y-65830000D01*
X219220000Y-65830000D02*
X215000000Y-70050000D01*
X216200000Y-74450000D02*
X215000000Y-74450000D01*
X216600000Y-70450000D02*
X216600000Y-74050000D01*
X219735000Y-67315000D02*
X216600000Y-70450000D01*
X216600000Y-74050000D02*
X216200000Y-74450000D01*
X231712500Y-67315000D02*
X219735000Y-67315000D01*
X178000000Y-105650000D02*
X185000000Y-98650000D01*
X172500000Y-105650000D02*
X178000000Y-105650000D01*
X171465000Y-106685000D02*
X172500000Y-105650000D01*
X185000000Y-98650000D02*
X185000000Y-94450000D01*
X168587500Y-106685000D02*
X171465000Y-106685000D01*
X163825000Y-106685000D02*
X163430000Y-107080000D01*
X172600000Y-106950000D02*
X175000000Y-106950000D01*
X165412500Y-106685000D02*
X163825000Y-106685000D01*
X163730000Y-107980000D02*
X171570000Y-107980000D01*
X171570000Y-107980000D02*
X172600000Y-106950000D01*
X163430000Y-107080000D02*
X163430000Y-107680000D01*
X163430000Y-107680000D02*
X163730000Y-107980000D01*
X172400000Y-104450000D02*
X175000000Y-104450000D01*
X168587500Y-105415000D02*
X171435000Y-105415000D01*
X171435000Y-105415000D02*
X172400000Y-104450000D01*
X176900000Y-108350000D02*
X185900000Y-99350000D01*
X173700000Y-108350000D02*
X176900000Y-108350000D01*
X165412500Y-105415000D02*
X163995000Y-105415000D01*
X186700000Y-97050000D02*
X187500000Y-97050000D01*
X163995000Y-105415000D02*
X162630000Y-106780000D01*
X162630000Y-107500000D02*
X163710000Y-108580000D01*
X185900000Y-99350000D02*
X185900000Y-97850000D01*
X185900000Y-97850000D02*
X186700000Y-97050000D01*
X173470000Y-108580000D02*
X173700000Y-108350000D01*
X163710000Y-108580000D02*
X173470000Y-108580000D01*
X162630000Y-106780000D02*
X162630000Y-107500000D01*
X171305000Y-104145000D02*
X172200000Y-103250000D01*
X168587500Y-104145000D02*
X171305000Y-104145000D01*
X172200000Y-103250000D02*
X176700000Y-103250000D01*
X176700000Y-103250000D02*
X182500000Y-97450000D01*
X182500000Y-97450000D02*
X182500000Y-94450000D01*
X161930000Y-106380000D02*
X161930000Y-107690000D01*
X165412500Y-104145000D02*
X164165000Y-104145000D01*
X174200000Y-109550000D02*
X175000000Y-109550000D01*
X173930000Y-109280000D02*
X174200000Y-109550000D01*
X161930000Y-107690000D02*
X163520000Y-109280000D01*
X163520000Y-109280000D02*
X173930000Y-109280000D01*
X164165000Y-104145000D02*
X161930000Y-106380000D01*
X172600000Y-101950000D02*
X175000000Y-101950000D01*
X171675000Y-102875000D02*
X172600000Y-101950000D01*
X168587500Y-102875000D02*
X171675000Y-102875000D01*
X163270000Y-109980000D02*
X171130000Y-109980000D01*
X165412500Y-102875000D02*
X163635000Y-102875000D01*
X184100000Y-102350000D02*
X187500000Y-102350000D01*
X175600000Y-110850000D02*
X184100000Y-102350000D01*
X171130000Y-109980000D02*
X172000000Y-110850000D01*
X163635000Y-102875000D02*
X161330000Y-105180000D01*
X161330000Y-108040000D02*
X163270000Y-109980000D01*
X172000000Y-110850000D02*
X175600000Y-110850000D01*
X161330000Y-105180000D02*
X161330000Y-108040000D01*
X177300000Y-99750000D02*
X177300000Y-98450000D01*
X176400000Y-100650000D02*
X177300000Y-99750000D01*
X168587500Y-101605000D02*
X171645000Y-101605000D01*
X180000000Y-95750000D02*
X180000000Y-94450000D01*
X171645000Y-101605000D02*
X172600000Y-100650000D01*
X172600000Y-100650000D02*
X176400000Y-100650000D01*
X177300000Y-98450000D02*
X180000000Y-95750000D01*
X169230000Y-110680000D02*
X170500000Y-111950000D01*
X160630000Y-108350000D02*
X162960000Y-110680000D01*
X163285000Y-101605000D02*
X160630000Y-104260000D01*
X162960000Y-110680000D02*
X169230000Y-110680000D01*
X170500000Y-111950000D02*
X175000000Y-111950000D01*
X165412500Y-101605000D02*
X163285000Y-101605000D01*
X160630000Y-104260000D02*
X160630000Y-108350000D01*
X172200000Y-99450000D02*
X175000000Y-99450000D01*
X168587500Y-100335000D02*
X171315000Y-100335000D01*
X171315000Y-100335000D02*
X172200000Y-99450000D01*
X162620000Y-111380000D02*
X167930000Y-111380000D01*
X159830000Y-103080000D02*
X159830000Y-108590000D01*
X167930000Y-111380000D02*
X169800000Y-113250000D01*
X180700000Y-109050000D02*
X180700000Y-107050000D01*
X169800000Y-113250000D02*
X176500000Y-113250000D01*
X159830000Y-108590000D02*
X162620000Y-111380000D01*
X165412500Y-100335000D02*
X162575000Y-100335000D01*
X180700000Y-107050000D02*
X184000000Y-103750000D01*
X176500000Y-113250000D02*
X180700000Y-109050000D01*
X162575000Y-100335000D02*
X159830000Y-103080000D01*
X175900000Y-98150000D02*
X177500000Y-96550000D01*
X171785000Y-99065000D02*
X172700000Y-98150000D01*
X177500000Y-96550000D02*
X177500000Y-94350000D01*
X168587500Y-99065000D02*
X171785000Y-99065000D01*
X172700000Y-98150000D02*
X175900000Y-98150000D01*
X166730000Y-111980000D02*
X169100000Y-114350000D01*
X165412500Y-99065000D02*
X162275000Y-99065000D01*
X162275000Y-99065000D02*
X159030000Y-102310000D01*
X159030000Y-109040000D02*
X161970000Y-111980000D01*
X169100000Y-114350000D02*
X175000000Y-114350000D01*
X159030000Y-102310000D02*
X159030000Y-109040000D01*
X161970000Y-111980000D02*
X166730000Y-111980000D01*
X172155000Y-97795000D02*
X173000000Y-96950000D01*
X173000000Y-96950000D02*
X175000000Y-96950000D01*
X168587500Y-97795000D02*
X172155000Y-97795000D01*
X165730000Y-112880000D02*
X168100000Y-115250000D01*
X181700000Y-110750000D02*
X181700000Y-109150000D01*
X161975000Y-97795000D02*
X158260000Y-101510000D01*
X158260000Y-109290000D02*
X161850000Y-112880000D01*
X165412500Y-97795000D02*
X161975000Y-97795000D01*
X168100000Y-115250000D02*
X177200000Y-115250000D01*
X181700000Y-109150000D02*
X183300000Y-107550000D01*
X161850000Y-112880000D02*
X165730000Y-112880000D01*
X177200000Y-115250000D02*
X181700000Y-110750000D01*
X183300000Y-107550000D02*
X183900000Y-107550000D01*
X158260000Y-101510000D02*
X158260000Y-109290000D01*
X172925000Y-96525000D02*
X174900000Y-94550000D01*
X174900000Y-94550000D02*
X175100000Y-94550000D01*
X168587500Y-96525000D02*
X172925000Y-96525000D01*
X161635000Y-96525000D02*
X157430000Y-100730000D01*
X161235000Y-113515000D02*
X164565000Y-113515000D01*
X157430000Y-100730000D02*
X157430000Y-109710000D01*
X178100000Y-115950000D02*
X182600000Y-111450000D01*
X164565000Y-113515000D02*
X167000000Y-115950000D01*
X165412500Y-96525000D02*
X161635000Y-96525000D01*
X157430000Y-109710000D02*
X161235000Y-113515000D01*
X167000000Y-115950000D02*
X178100000Y-115950000D01*
X182600000Y-110350000D02*
X183100000Y-109850000D01*
X183100000Y-109850000D02*
X183900000Y-109850000D01*
X182600000Y-111450000D02*
X182600000Y-110350000D01*
X174600000Y-92950000D02*
X186300000Y-92950000D01*
X172295000Y-95255000D02*
X174600000Y-92950000D01*
X186300000Y-92950000D02*
X187500000Y-94150000D01*
X187500000Y-94150000D02*
X187500000Y-94450000D01*
X168587500Y-95255000D02*
X172295000Y-95255000D01*
X178700000Y-116950000D02*
X183400000Y-112250000D01*
X166100000Y-116950000D02*
X178700000Y-116950000D01*
X161355000Y-95255000D02*
X156620000Y-99990000D01*
X163530000Y-114380000D02*
X166100000Y-116950000D01*
X156620000Y-99990000D02*
X156620000Y-110140000D01*
X156620000Y-110140000D02*
X160860000Y-114380000D01*
X165412500Y-95255000D02*
X161355000Y-95255000D01*
X183400000Y-112250000D02*
X183900000Y-112250000D01*
X160860000Y-114380000D02*
X163530000Y-114380000D01*
X168587500Y-93985000D02*
X172565000Y-93985000D01*
X172565000Y-93985000D02*
X174500000Y-92050000D01*
X177400000Y-92050000D02*
X177500000Y-91950000D01*
X174500000Y-92050000D02*
X177400000Y-92050000D01*
X190100000Y-99450000D02*
X187500000Y-99450000D01*
X181100000Y-117550000D02*
X184600000Y-114050000D01*
X191300000Y-114050000D02*
X192000000Y-113350000D01*
X192000000Y-101350000D02*
X190100000Y-99450000D01*
X155720000Y-99140000D02*
X155720000Y-110410000D01*
X160380000Y-115070000D02*
X162820000Y-115070000D01*
X155720000Y-110410000D02*
X160380000Y-115070000D01*
X160875000Y-93985000D02*
X155720000Y-99140000D01*
X184600000Y-114050000D02*
X191300000Y-114050000D01*
X162820000Y-115070000D02*
X165300000Y-117550000D01*
X192000000Y-113350000D02*
X192000000Y-101350000D01*
X165412500Y-93985000D02*
X160875000Y-93985000D01*
X165300000Y-117550000D02*
X181100000Y-117550000D01*
X168587500Y-92715000D02*
X172735000Y-92715000D01*
X172735000Y-92715000D02*
X174200000Y-91250000D01*
X184400000Y-91250000D02*
X185000000Y-91850000D01*
X174200000Y-91250000D02*
X184400000Y-91250000D01*
X185000000Y-91850000D02*
X185000000Y-91950000D01*
X192000000Y-114050000D02*
X192700000Y-113350000D01*
X154870000Y-110750000D02*
X160000000Y-115880000D01*
X160605000Y-92715000D02*
X154870000Y-98450000D01*
X195100000Y-96950000D02*
X199200000Y-96950000D01*
X191100000Y-114950000D02*
X192000000Y-114050000D01*
X175600000Y-118350000D02*
X181800000Y-118350000D01*
X162130000Y-115880000D02*
X163700000Y-117450000D01*
X192700000Y-98150000D02*
X193400000Y-97450000D01*
X185200000Y-114950000D02*
X188600000Y-114950000D01*
X193400000Y-97450000D02*
X193900000Y-96950000D01*
X163700000Y-117450000D02*
X164600000Y-118350000D01*
X160000000Y-115880000D02*
X162130000Y-115880000D01*
X164600000Y-118350000D02*
X175600000Y-118350000D01*
X154870000Y-98450000D02*
X154870000Y-110750000D01*
X193900000Y-96950000D02*
X195100000Y-96950000D01*
X192700000Y-113350000D02*
X192700000Y-111050000D01*
X165412500Y-92715000D02*
X160605000Y-92715000D01*
X199200000Y-96950000D02*
X200000000Y-96950000D01*
X188600000Y-114950000D02*
X191100000Y-114950000D01*
X192700000Y-111050000D02*
X192700000Y-98150000D01*
X181800000Y-118350000D02*
X185200000Y-114950000D01*
X190000000Y-92350000D02*
X190000000Y-94550000D01*
X188200000Y-90550000D02*
X190000000Y-92350000D01*
X168587500Y-91445000D02*
X172505000Y-91445000D01*
X172505000Y-91445000D02*
X173400000Y-90550000D01*
X173400000Y-90550000D02*
X188200000Y-90550000D01*
X164200000Y-119350000D02*
X182200000Y-119350000D01*
X160415000Y-91445000D02*
X153990000Y-97870000D01*
X195000000Y-99450000D02*
X200000000Y-99450000D01*
X161430000Y-116580000D02*
X164200000Y-119350000D01*
X185600000Y-115950000D02*
X191300000Y-115950000D01*
X193600000Y-100850000D02*
X195000000Y-99450000D01*
X191300000Y-115950000D02*
X193600000Y-113650000D01*
X165412500Y-91445000D02*
X160415000Y-91445000D01*
X153990000Y-97870000D02*
X153990000Y-110890000D01*
X159680000Y-116580000D02*
X161430000Y-116580000D01*
X182200000Y-119350000D02*
X185600000Y-115950000D01*
X193600000Y-113650000D02*
X193600000Y-100850000D01*
X153990000Y-110890000D02*
X159680000Y-116580000D01*
X172775000Y-90175000D02*
X173400000Y-89550000D01*
X168587500Y-90175000D02*
X172775000Y-90175000D01*
X173400000Y-89550000D02*
X177500000Y-89550000D01*
X186000000Y-116950000D02*
X191400000Y-116950000D01*
X158960000Y-117390000D02*
X161040000Y-117390000D01*
X191400000Y-116950000D02*
X194600000Y-113750000D01*
X163900000Y-120250000D02*
X182700000Y-120250000D01*
X182700000Y-120250000D02*
X186000000Y-116950000D01*
X160325000Y-90175000D02*
X153160000Y-97340000D01*
X194600000Y-113750000D02*
X194600000Y-103250000D01*
X153160000Y-111590000D02*
X158960000Y-117390000D01*
X153160000Y-97340000D02*
X153160000Y-111590000D01*
X165412500Y-90175000D02*
X160325000Y-90175000D01*
X195200000Y-102650000D02*
X200000000Y-102650000D01*
X161040000Y-117390000D02*
X163900000Y-120250000D01*
X194600000Y-103250000D02*
X195200000Y-102650000D01*
X184355000Y-88905000D02*
X185000000Y-89550000D01*
X168587500Y-88905000D02*
X184355000Y-88905000D01*
X165412500Y-88905000D02*
X160125000Y-88905000D01*
X203500000Y-103850000D02*
X203500000Y-103750000D01*
X195500000Y-105150000D02*
X195800000Y-104850000D01*
X195500000Y-114050000D02*
X195500000Y-105150000D01*
X160800000Y-118250000D02*
X163500000Y-120950000D01*
X186400000Y-117750000D02*
X191800000Y-117750000D01*
X160125000Y-88905000D02*
X152310000Y-96720000D01*
X183200000Y-120950000D02*
X186400000Y-117750000D01*
X152310000Y-96720000D02*
X152310000Y-111900000D01*
X152310000Y-111900000D02*
X158660000Y-118250000D01*
X158660000Y-118250000D02*
X160800000Y-118250000D01*
X202500000Y-104850000D02*
X203500000Y-103850000D01*
X163500000Y-120950000D02*
X183200000Y-120950000D01*
X191800000Y-117750000D02*
X195500000Y-114050000D01*
X195800000Y-104850000D02*
X202500000Y-104850000D01*
X188900000Y-88250000D02*
X192500000Y-91850000D01*
X192500000Y-91850000D02*
X192500000Y-91950000D01*
X168587500Y-87635000D02*
X170085000Y-87635000D01*
X170700000Y-88250000D02*
X188900000Y-88250000D01*
X170085000Y-87635000D02*
X170700000Y-88250000D01*
X168587500Y-86365000D02*
X170215000Y-86365000D01*
X170215000Y-86365000D02*
X171200000Y-87350000D01*
X190300000Y-87350000D02*
X192500000Y-89550000D01*
X171200000Y-87350000D02*
X190300000Y-87350000D01*
X200000000Y-67250000D02*
X200000000Y-72050000D01*
X165412500Y-83825000D02*
X156675000Y-83825000D01*
X160900000Y-58250000D02*
X191000000Y-58250000D01*
X156675000Y-83825000D02*
X152800000Y-79950000D01*
X191000000Y-58250000D02*
X200000000Y-67250000D01*
X152800000Y-66350000D02*
X160900000Y-58250000D01*
X152800000Y-79950000D02*
X152800000Y-66350000D01*
X165412500Y-82555000D02*
X156805000Y-82555000D01*
X153630000Y-66420000D02*
X161200000Y-58850000D01*
X156805000Y-82555000D02*
X153630000Y-79380000D01*
X153630000Y-79380000D02*
X153630000Y-66420000D01*
X190500000Y-58850000D02*
X198700000Y-67050000D01*
X199800000Y-77050000D02*
X200000000Y-77050000D01*
X198700000Y-67050000D02*
X198700000Y-75950000D01*
X161200000Y-58850000D02*
X190500000Y-58850000D01*
X198700000Y-75950000D02*
X199800000Y-77050000D01*
X161500000Y-59450000D02*
X189900000Y-59450000D01*
X199900000Y-82050000D02*
X200000000Y-82050000D01*
X198200000Y-80350000D02*
X199900000Y-82050000D01*
X154530000Y-66420000D02*
X161500000Y-59450000D01*
X154530000Y-78280000D02*
X154530000Y-66420000D01*
X198200000Y-67750000D02*
X198200000Y-80350000D01*
X165412500Y-81285000D02*
X157535000Y-81285000D01*
X157535000Y-81285000D02*
X154530000Y-78280000D01*
X189900000Y-59450000D02*
X198200000Y-67750000D01*
X172200000Y-80550000D02*
X172200000Y-81550000D01*
X183500000Y-83450000D02*
X184900000Y-82050000D01*
X168587500Y-80015000D02*
X171665000Y-80015000D01*
X184900000Y-82050000D02*
X185000000Y-82050000D01*
X171665000Y-80015000D02*
X172200000Y-80550000D01*
X172200000Y-81550000D02*
X174100000Y-83450000D01*
X174100000Y-83450000D02*
X183500000Y-83450000D01*
X155430000Y-77080000D02*
X155430000Y-66420000D01*
X197500000Y-67950000D02*
X197500000Y-77050000D01*
X189600000Y-60050000D02*
X197500000Y-67950000D01*
X155430000Y-66420000D02*
X161800000Y-60050000D01*
X165412500Y-80015000D02*
X158365000Y-80015000D01*
X161800000Y-60050000D02*
X189600000Y-60050000D01*
X158365000Y-80015000D02*
X155430000Y-77080000D01*
X174900000Y-82850000D02*
X179900000Y-82850000D01*
X179900000Y-82850000D02*
X182000000Y-80750000D01*
X182000000Y-80750000D02*
X187700000Y-80750000D01*
X172900000Y-79750000D02*
X172900000Y-80850000D01*
X171895000Y-78745000D02*
X172900000Y-79750000D01*
X172900000Y-80850000D02*
X174900000Y-82850000D01*
X187700000Y-80750000D02*
X190000000Y-78450000D01*
X190000000Y-78450000D02*
X190000000Y-76950000D01*
X168587500Y-78745000D02*
X171895000Y-78745000D01*
X168587500Y-77475000D02*
X172225000Y-77475000D01*
X173700000Y-80350000D02*
X175400000Y-82050000D01*
X173700000Y-78950000D02*
X173700000Y-80350000D01*
X175400000Y-82050000D02*
X177500000Y-82050000D01*
X172225000Y-77475000D02*
X173700000Y-78950000D01*
X160125000Y-77475000D02*
X157130000Y-74480000D01*
X165412500Y-77475000D02*
X160125000Y-77475000D01*
X188830000Y-61380000D02*
X196000000Y-68550000D01*
X157130000Y-66520000D02*
X162270000Y-61380000D01*
X157130000Y-74480000D02*
X157130000Y-66520000D01*
X196000000Y-80350000D02*
X194300000Y-82050000D01*
X162270000Y-61380000D02*
X188830000Y-61380000D01*
X196000000Y-68550000D02*
X196000000Y-80350000D01*
X194300000Y-82050000D02*
X192500000Y-82050000D01*
X175900000Y-80950000D02*
X180600000Y-80950000D01*
X174600000Y-79650000D02*
X175900000Y-80950000D01*
X180600000Y-80950000D02*
X182100000Y-79450000D01*
X174600000Y-78250000D02*
X174600000Y-79650000D01*
X168587500Y-76205000D02*
X172555000Y-76205000D01*
X172555000Y-76205000D02*
X174600000Y-78250000D01*
X182100000Y-79450000D02*
X185000000Y-79450000D01*
X162470000Y-61980000D02*
X188230000Y-61980000D01*
X165412500Y-76205000D02*
X160855000Y-76205000D01*
X160855000Y-76205000D02*
X157830000Y-73180000D01*
X157830000Y-66620000D02*
X162470000Y-61980000D01*
X195000000Y-68750000D02*
X195000000Y-77050000D01*
X157830000Y-73180000D02*
X157830000Y-66620000D01*
X188230000Y-61980000D02*
X195000000Y-68750000D01*
X179000000Y-80250000D02*
X180900000Y-78350000D01*
X187500000Y-77150000D02*
X187500000Y-76950000D01*
X175200000Y-78950000D02*
X176500000Y-80250000D01*
X175200000Y-77250000D02*
X175200000Y-78950000D01*
X176500000Y-80250000D02*
X179000000Y-80250000D01*
X168587500Y-74935000D02*
X172885000Y-74935000D01*
X172885000Y-74935000D02*
X175200000Y-77250000D01*
X186300000Y-78350000D02*
X187500000Y-77150000D01*
X180900000Y-78350000D02*
X186300000Y-78350000D01*
X194400000Y-78550000D02*
X193500000Y-79450000D01*
X161585000Y-74935000D02*
X158530000Y-71880000D01*
X194400000Y-69450000D02*
X194400000Y-78550000D01*
X193500000Y-79450000D02*
X192500000Y-79450000D01*
X158530000Y-71880000D02*
X158530000Y-66720000D01*
X187530000Y-62580000D02*
X194400000Y-69450000D01*
X165412500Y-74935000D02*
X161585000Y-74935000D01*
X158530000Y-66720000D02*
X162670000Y-62580000D01*
X162670000Y-62580000D02*
X187530000Y-62580000D01*
X168587500Y-73665000D02*
X173015000Y-73665000D01*
X176000000Y-76650000D02*
X176000000Y-78050000D01*
X176000000Y-78050000D02*
X177500000Y-79550000D01*
X173015000Y-73665000D02*
X176000000Y-76650000D01*
X192600000Y-77050000D02*
X192500000Y-77050000D01*
X188050000Y-64600000D02*
X193900000Y-70450000D01*
X159230000Y-70480000D02*
X159230000Y-66820000D01*
X162415000Y-73665000D02*
X159230000Y-70480000D01*
X162870000Y-63180000D02*
X186630000Y-63180000D01*
X193900000Y-75750000D02*
X192600000Y-77050000D01*
X186630000Y-63180000D02*
X188050000Y-64600000D01*
X165412500Y-73665000D02*
X162415000Y-73665000D01*
X193900000Y-70450000D02*
X193900000Y-75750000D01*
X159230000Y-66820000D02*
X162870000Y-63180000D01*
X172845000Y-72395000D02*
X177500000Y-77050000D01*
X168587500Y-72395000D02*
X172845000Y-72395000D01*
X160030000Y-69980000D02*
X160030000Y-66920000D01*
X160030000Y-66920000D02*
X163170000Y-63780000D01*
X192400000Y-71350000D02*
X192500000Y-71450000D01*
X184830000Y-63780000D02*
X192400000Y-71350000D01*
X162445000Y-72395000D02*
X160030000Y-69980000D01*
X165412500Y-72395000D02*
X162445000Y-72395000D01*
X192500000Y-71450000D02*
X192500000Y-71950000D01*
X163170000Y-63780000D02*
X184830000Y-63780000D01*
X177400000Y-74550000D02*
X177500000Y-74550000D01*
X168587500Y-71125000D02*
X173975000Y-71125000D01*
X173975000Y-71125000D02*
X177400000Y-74550000D01*
X160830000Y-67020000D02*
X163470000Y-64380000D01*
X160830000Y-68980000D02*
X160830000Y-67020000D01*
X162975000Y-71125000D02*
X160830000Y-68980000D01*
X189000000Y-74450000D02*
X192500000Y-74450000D01*
X163470000Y-64380000D02*
X182930000Y-64380000D01*
X182930000Y-64380000D02*
X187300000Y-68750000D01*
X165412500Y-71125000D02*
X162975000Y-71125000D01*
X187300000Y-72750000D02*
X189000000Y-74450000D01*
X187300000Y-68750000D02*
X187300000Y-72750000D01*
X177500000Y-71950000D02*
X177500000Y-72050000D01*
X175405000Y-69855000D02*
X177500000Y-71950000D01*
X168587500Y-69855000D02*
X175405000Y-69855000D01*
X163405000Y-69855000D02*
X162300000Y-68750000D01*
X185000000Y-68950000D02*
X185000000Y-71950000D01*
X163870000Y-64880000D02*
X180930000Y-64880000D01*
X162300000Y-66450000D02*
X163870000Y-64880000D01*
X162300000Y-68750000D02*
X162300000Y-66450000D01*
X165412500Y-69855000D02*
X163405000Y-69855000D01*
X180930000Y-64880000D02*
X185000000Y-68950000D01*
X177135000Y-68585000D02*
X180000000Y-71450000D01*
X168587500Y-68585000D02*
X177135000Y-68585000D01*
X180000000Y-71450000D02*
X180000000Y-77050000D01*
X164020000Y-65480000D02*
X179330000Y-65480000D01*
X179330000Y-65480000D02*
X183200000Y-69350000D01*
X165412500Y-68585000D02*
X163435000Y-68585000D01*
X163435000Y-68585000D02*
X163000000Y-68150000D01*
X163000000Y-68150000D02*
X163000000Y-66500000D01*
X183200000Y-73250000D02*
X184500000Y-74550000D01*
X163000000Y-66500000D02*
X164020000Y-65480000D01*
X183200000Y-69350000D02*
X183200000Y-73250000D01*
X184500000Y-74550000D02*
X185000000Y-74550000D01*
X181300000Y-71150000D02*
X181300000Y-75750000D01*
X168587500Y-67315000D02*
X177465000Y-67315000D01*
X181300000Y-75750000D02*
X182500000Y-76950000D01*
X177465000Y-67315000D02*
X181300000Y-71150000D01*
X182300000Y-70250000D02*
X182300000Y-74250000D01*
X178130000Y-66080000D02*
X182300000Y-70250000D01*
X163700000Y-66600000D02*
X164220000Y-66080000D01*
X182300000Y-74250000D02*
X185000000Y-76950000D01*
X164220000Y-66080000D02*
X178130000Y-66080000D01*
X164115000Y-67315000D02*
X163700000Y-66900000D01*
X165412500Y-67315000D02*
X164115000Y-67315000D01*
X163700000Y-66900000D02*
X163700000Y-66600000D01*
M02*
