G04 #@! TF.GenerationSoftware,KiCad,Pcbnew,6.0.2-378541a8eb~116~ubuntu21.10.1*
G04 #@! TF.CreationDate,2022-03-11T10:43:46-08:00*
G04 #@! TF.ProjectId,PD_ElectrodeBoard_v7,50445f45-6c65-4637-9472-6f6465426f61,6.2*
G04 #@! TF.SameCoordinates,Original*
G04 #@! TF.FileFunction,Legend,Top*
G04 #@! TF.FilePolarity,Positive*
%FSLAX46Y46*%
G04 Gerber Fmt 4.6, Leading zero omitted, Abs format (unit mm)*
G04 Created by KiCad (PCBNEW 6.0.2-378541a8eb~116~ubuntu21.10.1) date 2022-03-11 10:43:46*
%MOMM*%
%LPD*%
G01*
G04 APERTURE LIST*
%ADD10C,0.001000*%
G04 APERTURE END LIST*
D10*
X172166667Y-88083333D02*
X172750000Y-88083333D01*
X172750000Y-88083333D02*
X172750000Y-88666667D01*
X172750000Y-88666667D02*
X172166667Y-88666667D01*
X172166667Y-88666667D02*
X172166667Y-88083333D01*
G36*
X172750000Y-88666667D02*
G01*
X172166667Y-88666667D01*
X172166667Y-88083333D01*
X172750000Y-88083333D01*
X172750000Y-88666667D01*
G37*
X172750000Y-88666667D02*
X172166667Y-88666667D01*
X172166667Y-88083333D01*
X172750000Y-88083333D01*
X172750000Y-88666667D01*
X173333333Y-85166667D02*
X173916667Y-85166667D01*
X173916667Y-85166667D02*
X173916667Y-85750000D01*
X173916667Y-85750000D02*
X173333333Y-85750000D01*
X173333333Y-85750000D02*
X173333333Y-85166667D01*
G36*
X173916667Y-85750000D02*
G01*
X173333333Y-85750000D01*
X173333333Y-85166667D01*
X173916667Y-85166667D01*
X173916667Y-85750000D01*
G37*
X173916667Y-85750000D02*
X173333333Y-85750000D01*
X173333333Y-85166667D01*
X173916667Y-85166667D01*
X173916667Y-85750000D01*
X173916667Y-85166667D02*
X174500000Y-85166667D01*
X174500000Y-85166667D02*
X174500000Y-85750000D01*
X174500000Y-85750000D02*
X173916667Y-85750000D01*
X173916667Y-85750000D02*
X173916667Y-85166667D01*
G36*
X174500000Y-85750000D02*
G01*
X173916667Y-85750000D01*
X173916667Y-85166667D01*
X174500000Y-85166667D01*
X174500000Y-85750000D01*
G37*
X174500000Y-85750000D02*
X173916667Y-85750000D01*
X173916667Y-85166667D01*
X174500000Y-85166667D01*
X174500000Y-85750000D01*
X171583333Y-82833333D02*
X172166667Y-82833333D01*
X172166667Y-82833333D02*
X172166667Y-83416667D01*
X172166667Y-83416667D02*
X171583333Y-83416667D01*
X171583333Y-83416667D02*
X171583333Y-82833333D01*
G36*
X172166667Y-83416667D02*
G01*
X171583333Y-83416667D01*
X171583333Y-82833333D01*
X172166667Y-82833333D01*
X172166667Y-83416667D01*
G37*
X172166667Y-83416667D02*
X171583333Y-83416667D01*
X171583333Y-82833333D01*
X172166667Y-82833333D01*
X172166667Y-83416667D01*
X169250000Y-84583333D02*
X169833333Y-84583333D01*
X169833333Y-84583333D02*
X169833333Y-85166667D01*
X169833333Y-85166667D02*
X169250000Y-85166667D01*
X169250000Y-85166667D02*
X169250000Y-84583333D01*
G36*
X169833333Y-85166667D02*
G01*
X169250000Y-85166667D01*
X169250000Y-84583333D01*
X169833333Y-84583333D01*
X169833333Y-85166667D01*
G37*
X169833333Y-85166667D02*
X169250000Y-85166667D01*
X169250000Y-84583333D01*
X169833333Y-84583333D01*
X169833333Y-85166667D01*
X168083333Y-82250000D02*
X168666667Y-82250000D01*
X168666667Y-82250000D02*
X168666667Y-82833333D01*
X168666667Y-82833333D02*
X168083333Y-82833333D01*
X168083333Y-82833333D02*
X168083333Y-82250000D01*
G36*
X168666667Y-82833333D02*
G01*
X168083333Y-82833333D01*
X168083333Y-82250000D01*
X168666667Y-82250000D01*
X168666667Y-82833333D01*
G37*
X168666667Y-82833333D02*
X168083333Y-82833333D01*
X168083333Y-82250000D01*
X168666667Y-82250000D01*
X168666667Y-82833333D01*
X167500000Y-87500000D02*
X168083333Y-87500000D01*
X168083333Y-87500000D02*
X168083333Y-88083333D01*
X168083333Y-88083333D02*
X167500000Y-88083333D01*
X167500000Y-88083333D02*
X167500000Y-87500000D01*
G36*
X168083333Y-88083333D02*
G01*
X167500000Y-88083333D01*
X167500000Y-87500000D01*
X168083333Y-87500000D01*
X168083333Y-88083333D01*
G37*
X168083333Y-88083333D02*
X167500000Y-88083333D01*
X167500000Y-87500000D01*
X168083333Y-87500000D01*
X168083333Y-88083333D01*
X171000000Y-88666667D02*
X171583333Y-88666667D01*
X171583333Y-88666667D02*
X171583333Y-89250000D01*
X171583333Y-89250000D02*
X171000000Y-89250000D01*
X171000000Y-89250000D02*
X171000000Y-88666667D01*
G36*
X171583333Y-89250000D02*
G01*
X171000000Y-89250000D01*
X171000000Y-88666667D01*
X171583333Y-88666667D01*
X171583333Y-89250000D01*
G37*
X171583333Y-89250000D02*
X171000000Y-89250000D01*
X171000000Y-88666667D01*
X171583333Y-88666667D01*
X171583333Y-89250000D01*
X171000000Y-82833333D02*
X171583333Y-82833333D01*
X171583333Y-82833333D02*
X171583333Y-83416667D01*
X171583333Y-83416667D02*
X171000000Y-83416667D01*
X171000000Y-83416667D02*
X171000000Y-82833333D01*
G36*
X171583333Y-83416667D02*
G01*
X171000000Y-83416667D01*
X171000000Y-82833333D01*
X171583333Y-82833333D01*
X171583333Y-83416667D01*
G37*
X171583333Y-83416667D02*
X171000000Y-83416667D01*
X171000000Y-82833333D01*
X171583333Y-82833333D01*
X171583333Y-83416667D01*
X169833333Y-82833333D02*
X170416667Y-82833333D01*
X170416667Y-82833333D02*
X170416667Y-83416667D01*
X170416667Y-83416667D02*
X169833333Y-83416667D01*
X169833333Y-83416667D02*
X169833333Y-82833333D01*
G36*
X170416667Y-83416667D02*
G01*
X169833333Y-83416667D01*
X169833333Y-82833333D01*
X170416667Y-82833333D01*
X170416667Y-83416667D01*
G37*
X170416667Y-83416667D02*
X169833333Y-83416667D01*
X169833333Y-82833333D01*
X170416667Y-82833333D01*
X170416667Y-83416667D01*
X167500000Y-84583333D02*
X168083333Y-84583333D01*
X168083333Y-84583333D02*
X168083333Y-85166667D01*
X168083333Y-85166667D02*
X167500000Y-85166667D01*
X167500000Y-85166667D02*
X167500000Y-84583333D01*
G36*
X168083333Y-85166667D02*
G01*
X167500000Y-85166667D01*
X167500000Y-84583333D01*
X168083333Y-84583333D01*
X168083333Y-85166667D01*
G37*
X168083333Y-85166667D02*
X167500000Y-85166667D01*
X167500000Y-84583333D01*
X168083333Y-84583333D01*
X168083333Y-85166667D01*
X167500000Y-85166667D02*
X168083333Y-85166667D01*
X168083333Y-85166667D02*
X168083333Y-85750000D01*
X168083333Y-85750000D02*
X167500000Y-85750000D01*
X167500000Y-85750000D02*
X167500000Y-85166667D01*
G36*
X168083333Y-85750000D02*
G01*
X167500000Y-85750000D01*
X167500000Y-85166667D01*
X168083333Y-85166667D01*
X168083333Y-85750000D01*
G37*
X168083333Y-85750000D02*
X167500000Y-85750000D01*
X167500000Y-85166667D01*
X168083333Y-85166667D01*
X168083333Y-85750000D01*
X170416667Y-82833333D02*
X171000000Y-82833333D01*
X171000000Y-82833333D02*
X171000000Y-83416667D01*
X171000000Y-83416667D02*
X170416667Y-83416667D01*
X170416667Y-83416667D02*
X170416667Y-82833333D01*
G36*
X171000000Y-83416667D02*
G01*
X170416667Y-83416667D01*
X170416667Y-82833333D01*
X171000000Y-82833333D01*
X171000000Y-83416667D01*
G37*
X171000000Y-83416667D02*
X170416667Y-83416667D01*
X170416667Y-82833333D01*
X171000000Y-82833333D01*
X171000000Y-83416667D01*
X173333333Y-84000000D02*
X173916667Y-84000000D01*
X173916667Y-84000000D02*
X173916667Y-84583333D01*
X173916667Y-84583333D02*
X173333333Y-84583333D01*
X173333333Y-84583333D02*
X173333333Y-84000000D01*
G36*
X173916667Y-84583333D02*
G01*
X173333333Y-84583333D01*
X173333333Y-84000000D01*
X173916667Y-84000000D01*
X173916667Y-84583333D01*
G37*
X173916667Y-84583333D02*
X173333333Y-84583333D01*
X173333333Y-84000000D01*
X173916667Y-84000000D01*
X173916667Y-84583333D01*
X167500000Y-88083333D02*
X168083333Y-88083333D01*
X168083333Y-88083333D02*
X168083333Y-88666667D01*
X168083333Y-88666667D02*
X167500000Y-88666667D01*
X167500000Y-88666667D02*
X167500000Y-88083333D01*
G36*
X168083333Y-88666667D02*
G01*
X167500000Y-88666667D01*
X167500000Y-88083333D01*
X168083333Y-88083333D01*
X168083333Y-88666667D01*
G37*
X168083333Y-88666667D02*
X167500000Y-88666667D01*
X167500000Y-88083333D01*
X168083333Y-88083333D01*
X168083333Y-88666667D01*
X172750000Y-88666667D02*
X173333333Y-88666667D01*
X173333333Y-88666667D02*
X173333333Y-89250000D01*
X173333333Y-89250000D02*
X172750000Y-89250000D01*
X172750000Y-89250000D02*
X172750000Y-88666667D01*
G36*
X173333333Y-89250000D02*
G01*
X172750000Y-89250000D01*
X172750000Y-88666667D01*
X173333333Y-88666667D01*
X173333333Y-89250000D01*
G37*
X173333333Y-89250000D02*
X172750000Y-89250000D01*
X172750000Y-88666667D01*
X173333333Y-88666667D01*
X173333333Y-89250000D01*
X170416667Y-88666667D02*
X171000000Y-88666667D01*
X171000000Y-88666667D02*
X171000000Y-89250000D01*
X171000000Y-89250000D02*
X170416667Y-89250000D01*
X170416667Y-89250000D02*
X170416667Y-88666667D01*
G36*
X171000000Y-89250000D02*
G01*
X170416667Y-89250000D01*
X170416667Y-88666667D01*
X171000000Y-88666667D01*
X171000000Y-89250000D01*
G37*
X171000000Y-89250000D02*
X170416667Y-89250000D01*
X170416667Y-88666667D01*
X171000000Y-88666667D01*
X171000000Y-89250000D01*
X173916667Y-86916667D02*
X174500000Y-86916667D01*
X174500000Y-86916667D02*
X174500000Y-87500000D01*
X174500000Y-87500000D02*
X173916667Y-87500000D01*
X173916667Y-87500000D02*
X173916667Y-86916667D01*
G36*
X174500000Y-87500000D02*
G01*
X173916667Y-87500000D01*
X173916667Y-86916667D01*
X174500000Y-86916667D01*
X174500000Y-87500000D01*
G37*
X174500000Y-87500000D02*
X173916667Y-87500000D01*
X173916667Y-86916667D01*
X174500000Y-86916667D01*
X174500000Y-87500000D01*
X173333333Y-82250000D02*
X173916667Y-82250000D01*
X173916667Y-82250000D02*
X173916667Y-82833333D01*
X173916667Y-82833333D02*
X173333333Y-82833333D01*
X173333333Y-82833333D02*
X173333333Y-82250000D01*
G36*
X173916667Y-82833333D02*
G01*
X173333333Y-82833333D01*
X173333333Y-82250000D01*
X173916667Y-82250000D01*
X173916667Y-82833333D01*
G37*
X173916667Y-82833333D02*
X173333333Y-82833333D01*
X173333333Y-82250000D01*
X173916667Y-82250000D01*
X173916667Y-82833333D01*
X172166667Y-86333333D02*
X172750000Y-86333333D01*
X172750000Y-86333333D02*
X172750000Y-86916667D01*
X172750000Y-86916667D02*
X172166667Y-86916667D01*
X172166667Y-86916667D02*
X172166667Y-86333333D01*
G36*
X172750000Y-86916667D02*
G01*
X172166667Y-86916667D01*
X172166667Y-86333333D01*
X172750000Y-86333333D01*
X172750000Y-86916667D01*
G37*
X172750000Y-86916667D02*
X172166667Y-86916667D01*
X172166667Y-86333333D01*
X172750000Y-86333333D01*
X172750000Y-86916667D01*
X173333333Y-84583333D02*
X173916667Y-84583333D01*
X173916667Y-84583333D02*
X173916667Y-85166667D01*
X173916667Y-85166667D02*
X173333333Y-85166667D01*
X173333333Y-85166667D02*
X173333333Y-84583333D01*
G36*
X173916667Y-85166667D02*
G01*
X173333333Y-85166667D01*
X173333333Y-84583333D01*
X173916667Y-84583333D01*
X173916667Y-85166667D01*
G37*
X173916667Y-85166667D02*
X173333333Y-85166667D01*
X173333333Y-84583333D01*
X173916667Y-84583333D01*
X173916667Y-85166667D01*
X168083333Y-83416667D02*
X168666667Y-83416667D01*
X168666667Y-83416667D02*
X168666667Y-84000000D01*
X168666667Y-84000000D02*
X168083333Y-84000000D01*
X168083333Y-84000000D02*
X168083333Y-83416667D01*
G36*
X168666667Y-84000000D02*
G01*
X168083333Y-84000000D01*
X168083333Y-83416667D01*
X168666667Y-83416667D01*
X168666667Y-84000000D01*
G37*
X168666667Y-84000000D02*
X168083333Y-84000000D01*
X168083333Y-83416667D01*
X168666667Y-83416667D01*
X168666667Y-84000000D01*
X173916667Y-84000000D02*
X174500000Y-84000000D01*
X174500000Y-84000000D02*
X174500000Y-84583333D01*
X174500000Y-84583333D02*
X173916667Y-84583333D01*
X173916667Y-84583333D02*
X173916667Y-84000000D01*
G36*
X174500000Y-84583333D02*
G01*
X173916667Y-84583333D01*
X173916667Y-84000000D01*
X174500000Y-84000000D01*
X174500000Y-84583333D01*
G37*
X174500000Y-84583333D02*
X173916667Y-84583333D01*
X173916667Y-84000000D01*
X174500000Y-84000000D01*
X174500000Y-84583333D01*
X168083333Y-86333333D02*
X168666667Y-86333333D01*
X168666667Y-86333333D02*
X168666667Y-86916667D01*
X168666667Y-86916667D02*
X168083333Y-86916667D01*
X168083333Y-86916667D02*
X168083333Y-86333333D01*
G36*
X168666667Y-86916667D02*
G01*
X168083333Y-86916667D01*
X168083333Y-86333333D01*
X168666667Y-86333333D01*
X168666667Y-86916667D01*
G37*
X168666667Y-86916667D02*
X168083333Y-86916667D01*
X168083333Y-86333333D01*
X168666667Y-86333333D01*
X168666667Y-86916667D01*
X173333333Y-83416667D02*
X173916667Y-83416667D01*
X173916667Y-83416667D02*
X173916667Y-84000000D01*
X173916667Y-84000000D02*
X173333333Y-84000000D01*
X173333333Y-84000000D02*
X173333333Y-83416667D01*
G36*
X173916667Y-84000000D02*
G01*
X173333333Y-84000000D01*
X173333333Y-83416667D01*
X173916667Y-83416667D01*
X173916667Y-84000000D01*
G37*
X173916667Y-84000000D02*
X173333333Y-84000000D01*
X173333333Y-83416667D01*
X173916667Y-83416667D01*
X173916667Y-84000000D01*
X169833333Y-88083333D02*
X170416667Y-88083333D01*
X170416667Y-88083333D02*
X170416667Y-88666667D01*
X170416667Y-88666667D02*
X169833333Y-88666667D01*
X169833333Y-88666667D02*
X169833333Y-88083333D01*
G36*
X170416667Y-88666667D02*
G01*
X169833333Y-88666667D01*
X169833333Y-88083333D01*
X170416667Y-88083333D01*
X170416667Y-88666667D01*
G37*
X170416667Y-88666667D02*
X169833333Y-88666667D01*
X169833333Y-88083333D01*
X170416667Y-88083333D01*
X170416667Y-88666667D01*
X167500000Y-82250000D02*
X168083333Y-82250000D01*
X168083333Y-82250000D02*
X168083333Y-82833333D01*
X168083333Y-82833333D02*
X167500000Y-82833333D01*
X167500000Y-82833333D02*
X167500000Y-82250000D01*
G36*
X168083333Y-82833333D02*
G01*
X167500000Y-82833333D01*
X167500000Y-82250000D01*
X168083333Y-82250000D01*
X168083333Y-82833333D01*
G37*
X168083333Y-82833333D02*
X167500000Y-82833333D01*
X167500000Y-82250000D01*
X168083333Y-82250000D01*
X168083333Y-82833333D01*
X172750000Y-82833333D02*
X173333333Y-82833333D01*
X173333333Y-82833333D02*
X173333333Y-83416667D01*
X173333333Y-83416667D02*
X172750000Y-83416667D01*
X172750000Y-83416667D02*
X172750000Y-82833333D01*
G36*
X173333333Y-83416667D02*
G01*
X172750000Y-83416667D01*
X172750000Y-82833333D01*
X173333333Y-82833333D01*
X173333333Y-83416667D01*
G37*
X173333333Y-83416667D02*
X172750000Y-83416667D01*
X172750000Y-82833333D01*
X173333333Y-82833333D01*
X173333333Y-83416667D01*
X173916667Y-88666667D02*
X174500000Y-88666667D01*
X174500000Y-88666667D02*
X174500000Y-89250000D01*
X174500000Y-89250000D02*
X173916667Y-89250000D01*
X173916667Y-89250000D02*
X173916667Y-88666667D01*
G36*
X174500000Y-89250000D02*
G01*
X173916667Y-89250000D01*
X173916667Y-88666667D01*
X174500000Y-88666667D01*
X174500000Y-89250000D01*
G37*
X174500000Y-89250000D02*
X173916667Y-89250000D01*
X173916667Y-88666667D01*
X174500000Y-88666667D01*
X174500000Y-89250000D01*
X171583333Y-86333333D02*
X172166667Y-86333333D01*
X172166667Y-86333333D02*
X172166667Y-86916667D01*
X172166667Y-86916667D02*
X171583333Y-86916667D01*
X171583333Y-86916667D02*
X171583333Y-86333333D01*
G36*
X172166667Y-86916667D02*
G01*
X171583333Y-86916667D01*
X171583333Y-86333333D01*
X172166667Y-86333333D01*
X172166667Y-86916667D01*
G37*
X172166667Y-86916667D02*
X171583333Y-86916667D01*
X171583333Y-86333333D01*
X172166667Y-86333333D01*
X172166667Y-86916667D01*
X171583333Y-88083333D02*
X172166667Y-88083333D01*
X172166667Y-88083333D02*
X172166667Y-88666667D01*
X172166667Y-88666667D02*
X171583333Y-88666667D01*
X171583333Y-88666667D02*
X171583333Y-88083333D01*
G36*
X172166667Y-88666667D02*
G01*
X171583333Y-88666667D01*
X171583333Y-88083333D01*
X172166667Y-88083333D01*
X172166667Y-88666667D01*
G37*
X172166667Y-88666667D02*
X171583333Y-88666667D01*
X171583333Y-88083333D01*
X172166667Y-88083333D01*
X172166667Y-88666667D01*
X173916667Y-82833333D02*
X174500000Y-82833333D01*
X174500000Y-82833333D02*
X174500000Y-83416667D01*
X174500000Y-83416667D02*
X173916667Y-83416667D01*
X173916667Y-83416667D02*
X173916667Y-82833333D01*
G36*
X174500000Y-83416667D02*
G01*
X173916667Y-83416667D01*
X173916667Y-82833333D01*
X174500000Y-82833333D01*
X174500000Y-83416667D01*
G37*
X174500000Y-83416667D02*
X173916667Y-83416667D01*
X173916667Y-82833333D01*
X174500000Y-82833333D01*
X174500000Y-83416667D01*
X170416667Y-86333333D02*
X171000000Y-86333333D01*
X171000000Y-86333333D02*
X171000000Y-86916667D01*
X171000000Y-86916667D02*
X170416667Y-86916667D01*
X170416667Y-86916667D02*
X170416667Y-86333333D01*
G36*
X171000000Y-86916667D02*
G01*
X170416667Y-86916667D01*
X170416667Y-86333333D01*
X171000000Y-86333333D01*
X171000000Y-86916667D01*
G37*
X171000000Y-86916667D02*
X170416667Y-86916667D01*
X170416667Y-86333333D01*
X171000000Y-86333333D01*
X171000000Y-86916667D01*
X168083333Y-85166667D02*
X168666667Y-85166667D01*
X168666667Y-85166667D02*
X168666667Y-85750000D01*
X168666667Y-85750000D02*
X168083333Y-85750000D01*
X168083333Y-85750000D02*
X168083333Y-85166667D01*
G36*
X168666667Y-85750000D02*
G01*
X168083333Y-85750000D01*
X168083333Y-85166667D01*
X168666667Y-85166667D01*
X168666667Y-85750000D01*
G37*
X168666667Y-85750000D02*
X168083333Y-85750000D01*
X168083333Y-85166667D01*
X168666667Y-85166667D01*
X168666667Y-85750000D01*
X168666667Y-88666667D02*
X169250000Y-88666667D01*
X169250000Y-88666667D02*
X169250000Y-89250000D01*
X169250000Y-89250000D02*
X168666667Y-89250000D01*
X168666667Y-89250000D02*
X168666667Y-88666667D01*
G36*
X169250000Y-89250000D02*
G01*
X168666667Y-89250000D01*
X168666667Y-88666667D01*
X169250000Y-88666667D01*
X169250000Y-89250000D01*
G37*
X169250000Y-89250000D02*
X168666667Y-89250000D01*
X168666667Y-88666667D01*
X169250000Y-88666667D01*
X169250000Y-89250000D01*
X169250000Y-86916667D02*
X169833333Y-86916667D01*
X169833333Y-86916667D02*
X169833333Y-87500000D01*
X169833333Y-87500000D02*
X169250000Y-87500000D01*
X169250000Y-87500000D02*
X169250000Y-86916667D01*
G36*
X169833333Y-87500000D02*
G01*
X169250000Y-87500000D01*
X169250000Y-86916667D01*
X169833333Y-86916667D01*
X169833333Y-87500000D01*
G37*
X169833333Y-87500000D02*
X169250000Y-87500000D01*
X169250000Y-86916667D01*
X169833333Y-86916667D01*
X169833333Y-87500000D01*
X167500000Y-83416667D02*
X168083333Y-83416667D01*
X168083333Y-83416667D02*
X168083333Y-84000000D01*
X168083333Y-84000000D02*
X167500000Y-84000000D01*
X167500000Y-84000000D02*
X167500000Y-83416667D01*
G36*
X168083333Y-84000000D02*
G01*
X167500000Y-84000000D01*
X167500000Y-83416667D01*
X168083333Y-83416667D01*
X168083333Y-84000000D01*
G37*
X168083333Y-84000000D02*
X167500000Y-84000000D01*
X167500000Y-83416667D01*
X168083333Y-83416667D01*
X168083333Y-84000000D01*
X168666667Y-82833333D02*
X169250000Y-82833333D01*
X169250000Y-82833333D02*
X169250000Y-83416667D01*
X169250000Y-83416667D02*
X168666667Y-83416667D01*
X168666667Y-83416667D02*
X168666667Y-82833333D01*
G36*
X169250000Y-83416667D02*
G01*
X168666667Y-83416667D01*
X168666667Y-82833333D01*
X169250000Y-82833333D01*
X169250000Y-83416667D01*
G37*
X169250000Y-83416667D02*
X168666667Y-83416667D01*
X168666667Y-82833333D01*
X169250000Y-82833333D01*
X169250000Y-83416667D01*
X171000000Y-85166667D02*
X171583333Y-85166667D01*
X171583333Y-85166667D02*
X171583333Y-85750000D01*
X171583333Y-85750000D02*
X171000000Y-85750000D01*
X171000000Y-85750000D02*
X171000000Y-85166667D01*
G36*
X171583333Y-85750000D02*
G01*
X171000000Y-85750000D01*
X171000000Y-85166667D01*
X171583333Y-85166667D01*
X171583333Y-85750000D01*
G37*
X171583333Y-85750000D02*
X171000000Y-85750000D01*
X171000000Y-85166667D01*
X171583333Y-85166667D01*
X171583333Y-85750000D01*
X169833333Y-84000000D02*
X170416667Y-84000000D01*
X170416667Y-84000000D02*
X170416667Y-84583333D01*
X170416667Y-84583333D02*
X169833333Y-84583333D01*
X169833333Y-84583333D02*
X169833333Y-84000000D01*
G36*
X170416667Y-84583333D02*
G01*
X169833333Y-84583333D01*
X169833333Y-84000000D01*
X170416667Y-84000000D01*
X170416667Y-84583333D01*
G37*
X170416667Y-84583333D02*
X169833333Y-84583333D01*
X169833333Y-84000000D01*
X170416667Y-84000000D01*
X170416667Y-84583333D01*
X173333333Y-82833333D02*
X173916667Y-82833333D01*
X173916667Y-82833333D02*
X173916667Y-83416667D01*
X173916667Y-83416667D02*
X173333333Y-83416667D01*
X173333333Y-83416667D02*
X173333333Y-82833333D01*
G36*
X173916667Y-83416667D02*
G01*
X173333333Y-83416667D01*
X173333333Y-82833333D01*
X173916667Y-82833333D01*
X173916667Y-83416667D01*
G37*
X173916667Y-83416667D02*
X173333333Y-83416667D01*
X173333333Y-82833333D01*
X173916667Y-82833333D01*
X173916667Y-83416667D01*
X172750000Y-82250000D02*
X173333333Y-82250000D01*
X173333333Y-82250000D02*
X173333333Y-82833333D01*
X173333333Y-82833333D02*
X172750000Y-82833333D01*
X172750000Y-82833333D02*
X172750000Y-82250000D01*
G36*
X173333333Y-82833333D02*
G01*
X172750000Y-82833333D01*
X172750000Y-82250000D01*
X173333333Y-82250000D01*
X173333333Y-82833333D01*
G37*
X173333333Y-82833333D02*
X172750000Y-82833333D01*
X172750000Y-82250000D01*
X173333333Y-82250000D01*
X173333333Y-82833333D01*
X173333333Y-88083333D02*
X173916667Y-88083333D01*
X173916667Y-88083333D02*
X173916667Y-88666667D01*
X173916667Y-88666667D02*
X173333333Y-88666667D01*
X173333333Y-88666667D02*
X173333333Y-88083333D01*
G36*
X173916667Y-88666667D02*
G01*
X173333333Y-88666667D01*
X173333333Y-88083333D01*
X173916667Y-88083333D01*
X173916667Y-88666667D01*
G37*
X173916667Y-88666667D02*
X173333333Y-88666667D01*
X173333333Y-88083333D01*
X173916667Y-88083333D01*
X173916667Y-88666667D01*
X171583333Y-82250000D02*
X172166667Y-82250000D01*
X172166667Y-82250000D02*
X172166667Y-82833333D01*
X172166667Y-82833333D02*
X171583333Y-82833333D01*
X171583333Y-82833333D02*
X171583333Y-82250000D01*
G36*
X172166667Y-82833333D02*
G01*
X171583333Y-82833333D01*
X171583333Y-82250000D01*
X172166667Y-82250000D01*
X172166667Y-82833333D01*
G37*
X172166667Y-82833333D02*
X171583333Y-82833333D01*
X171583333Y-82250000D01*
X172166667Y-82250000D01*
X172166667Y-82833333D01*
X173916667Y-84583333D02*
X174500000Y-84583333D01*
X174500000Y-84583333D02*
X174500000Y-85166667D01*
X174500000Y-85166667D02*
X173916667Y-85166667D01*
X173916667Y-85166667D02*
X173916667Y-84583333D01*
G36*
X174500000Y-85166667D02*
G01*
X173916667Y-85166667D01*
X173916667Y-84583333D01*
X174500000Y-84583333D01*
X174500000Y-85166667D01*
G37*
X174500000Y-85166667D02*
X173916667Y-85166667D01*
X173916667Y-84583333D01*
X174500000Y-84583333D01*
X174500000Y-85166667D01*
X173333333Y-86916667D02*
X173916667Y-86916667D01*
X173916667Y-86916667D02*
X173916667Y-87500000D01*
X173916667Y-87500000D02*
X173333333Y-87500000D01*
X173333333Y-87500000D02*
X173333333Y-86916667D01*
G36*
X173916667Y-87500000D02*
G01*
X173333333Y-87500000D01*
X173333333Y-86916667D01*
X173916667Y-86916667D01*
X173916667Y-87500000D01*
G37*
X173916667Y-87500000D02*
X173333333Y-87500000D01*
X173333333Y-86916667D01*
X173916667Y-86916667D01*
X173916667Y-87500000D01*
X169250000Y-82250000D02*
X169833333Y-82250000D01*
X169833333Y-82250000D02*
X169833333Y-82833333D01*
X169833333Y-82833333D02*
X169250000Y-82833333D01*
X169250000Y-82833333D02*
X169250000Y-82250000D01*
G36*
X169833333Y-82833333D02*
G01*
X169250000Y-82833333D01*
X169250000Y-82250000D01*
X169833333Y-82250000D01*
X169833333Y-82833333D01*
G37*
X169833333Y-82833333D02*
X169250000Y-82833333D01*
X169250000Y-82250000D01*
X169833333Y-82250000D01*
X169833333Y-82833333D01*
X173916667Y-88083333D02*
X174500000Y-88083333D01*
X174500000Y-88083333D02*
X174500000Y-88666667D01*
X174500000Y-88666667D02*
X173916667Y-88666667D01*
X173916667Y-88666667D02*
X173916667Y-88083333D01*
G36*
X174500000Y-88666667D02*
G01*
X173916667Y-88666667D01*
X173916667Y-88083333D01*
X174500000Y-88083333D01*
X174500000Y-88666667D01*
G37*
X174500000Y-88666667D02*
X173916667Y-88666667D01*
X173916667Y-88083333D01*
X174500000Y-88083333D01*
X174500000Y-88666667D01*
X172166667Y-82833333D02*
X172750000Y-82833333D01*
X172750000Y-82833333D02*
X172750000Y-83416667D01*
X172750000Y-83416667D02*
X172166667Y-83416667D01*
X172166667Y-83416667D02*
X172166667Y-82833333D01*
G36*
X172750000Y-83416667D02*
G01*
X172166667Y-83416667D01*
X172166667Y-82833333D01*
X172750000Y-82833333D01*
X172750000Y-83416667D01*
G37*
X172750000Y-83416667D02*
X172166667Y-83416667D01*
X172166667Y-82833333D01*
X172750000Y-82833333D01*
X172750000Y-83416667D01*
X172166667Y-84583333D02*
X172750000Y-84583333D01*
X172750000Y-84583333D02*
X172750000Y-85166667D01*
X172750000Y-85166667D02*
X172166667Y-85166667D01*
X172166667Y-85166667D02*
X172166667Y-84583333D01*
G36*
X172750000Y-85166667D02*
G01*
X172166667Y-85166667D01*
X172166667Y-84583333D01*
X172750000Y-84583333D01*
X172750000Y-85166667D01*
G37*
X172750000Y-85166667D02*
X172166667Y-85166667D01*
X172166667Y-84583333D01*
X172750000Y-84583333D01*
X172750000Y-85166667D01*
X173916667Y-85750000D02*
X174500000Y-85750000D01*
X174500000Y-85750000D02*
X174500000Y-86333333D01*
X174500000Y-86333333D02*
X173916667Y-86333333D01*
X173916667Y-86333333D02*
X173916667Y-85750000D01*
G36*
X174500000Y-86333333D02*
G01*
X173916667Y-86333333D01*
X173916667Y-85750000D01*
X174500000Y-85750000D01*
X174500000Y-86333333D01*
G37*
X174500000Y-86333333D02*
X173916667Y-86333333D01*
X173916667Y-85750000D01*
X174500000Y-85750000D01*
X174500000Y-86333333D01*
X168083333Y-84583333D02*
X168666667Y-84583333D01*
X168666667Y-84583333D02*
X168666667Y-85166667D01*
X168666667Y-85166667D02*
X168083333Y-85166667D01*
X168083333Y-85166667D02*
X168083333Y-84583333D01*
G36*
X168666667Y-85166667D02*
G01*
X168083333Y-85166667D01*
X168083333Y-84583333D01*
X168666667Y-84583333D01*
X168666667Y-85166667D01*
G37*
X168666667Y-85166667D02*
X168083333Y-85166667D01*
X168083333Y-84583333D01*
X168666667Y-84583333D01*
X168666667Y-85166667D01*
X172166667Y-86916667D02*
X172750000Y-86916667D01*
X172750000Y-86916667D02*
X172750000Y-87500000D01*
X172750000Y-87500000D02*
X172166667Y-87500000D01*
X172166667Y-87500000D02*
X172166667Y-86916667D01*
G36*
X172750000Y-87500000D02*
G01*
X172166667Y-87500000D01*
X172166667Y-86916667D01*
X172750000Y-86916667D01*
X172750000Y-87500000D01*
G37*
X172750000Y-87500000D02*
X172166667Y-87500000D01*
X172166667Y-86916667D01*
X172750000Y-86916667D01*
X172750000Y-87500000D01*
X170416667Y-82250000D02*
X171000000Y-82250000D01*
X171000000Y-82250000D02*
X171000000Y-82833333D01*
X171000000Y-82833333D02*
X170416667Y-82833333D01*
X170416667Y-82833333D02*
X170416667Y-82250000D01*
G36*
X171000000Y-82833333D02*
G01*
X170416667Y-82833333D01*
X170416667Y-82250000D01*
X171000000Y-82250000D01*
X171000000Y-82833333D01*
G37*
X171000000Y-82833333D02*
X170416667Y-82833333D01*
X170416667Y-82250000D01*
X171000000Y-82250000D01*
X171000000Y-82833333D01*
X168666667Y-88083333D02*
X169250000Y-88083333D01*
X169250000Y-88083333D02*
X169250000Y-88666667D01*
X169250000Y-88666667D02*
X168666667Y-88666667D01*
X168666667Y-88666667D02*
X168666667Y-88083333D01*
G36*
X169250000Y-88666667D02*
G01*
X168666667Y-88666667D01*
X168666667Y-88083333D01*
X169250000Y-88083333D01*
X169250000Y-88666667D01*
G37*
X169250000Y-88666667D02*
X168666667Y-88666667D01*
X168666667Y-88083333D01*
X169250000Y-88083333D01*
X169250000Y-88666667D01*
X171000000Y-88083333D02*
X171583333Y-88083333D01*
X171583333Y-88083333D02*
X171583333Y-88666667D01*
X171583333Y-88666667D02*
X171000000Y-88666667D01*
X171000000Y-88666667D02*
X171000000Y-88083333D01*
G36*
X171583333Y-88666667D02*
G01*
X171000000Y-88666667D01*
X171000000Y-88083333D01*
X171583333Y-88083333D01*
X171583333Y-88666667D01*
G37*
X171583333Y-88666667D02*
X171000000Y-88666667D01*
X171000000Y-88083333D01*
X171583333Y-88083333D01*
X171583333Y-88666667D01*
X173333333Y-85750000D02*
X173916667Y-85750000D01*
X173916667Y-85750000D02*
X173916667Y-86333333D01*
X173916667Y-86333333D02*
X173333333Y-86333333D01*
X173333333Y-86333333D02*
X173333333Y-85750000D01*
G36*
X173916667Y-86333333D02*
G01*
X173333333Y-86333333D01*
X173333333Y-85750000D01*
X173916667Y-85750000D01*
X173916667Y-86333333D01*
G37*
X173916667Y-86333333D02*
X173333333Y-86333333D01*
X173333333Y-85750000D01*
X173916667Y-85750000D01*
X173916667Y-86333333D01*
X173916667Y-86333333D02*
X174500000Y-86333333D01*
X174500000Y-86333333D02*
X174500000Y-86916667D01*
X174500000Y-86916667D02*
X173916667Y-86916667D01*
X173916667Y-86916667D02*
X173916667Y-86333333D01*
G36*
X174500000Y-86916667D02*
G01*
X173916667Y-86916667D01*
X173916667Y-86333333D01*
X174500000Y-86333333D01*
X174500000Y-86916667D01*
G37*
X174500000Y-86916667D02*
X173916667Y-86916667D01*
X173916667Y-86333333D01*
X174500000Y-86333333D01*
X174500000Y-86916667D01*
X167500000Y-86333333D02*
X168083333Y-86333333D01*
X168083333Y-86333333D02*
X168083333Y-86916667D01*
X168083333Y-86916667D02*
X167500000Y-86916667D01*
X167500000Y-86916667D02*
X167500000Y-86333333D01*
G36*
X168083333Y-86916667D02*
G01*
X167500000Y-86916667D01*
X167500000Y-86333333D01*
X168083333Y-86333333D01*
X168083333Y-86916667D01*
G37*
X168083333Y-86916667D02*
X167500000Y-86916667D01*
X167500000Y-86333333D01*
X168083333Y-86333333D01*
X168083333Y-86916667D01*
X173916667Y-87500000D02*
X174500000Y-87500000D01*
X174500000Y-87500000D02*
X174500000Y-88083333D01*
X174500000Y-88083333D02*
X173916667Y-88083333D01*
X173916667Y-88083333D02*
X173916667Y-87500000D01*
G36*
X174500000Y-88083333D02*
G01*
X173916667Y-88083333D01*
X173916667Y-87500000D01*
X174500000Y-87500000D01*
X174500000Y-88083333D01*
G37*
X174500000Y-88083333D02*
X173916667Y-88083333D01*
X173916667Y-87500000D01*
X174500000Y-87500000D01*
X174500000Y-88083333D01*
X171000000Y-86333333D02*
X171583333Y-86333333D01*
X171583333Y-86333333D02*
X171583333Y-86916667D01*
X171583333Y-86916667D02*
X171000000Y-86916667D01*
X171000000Y-86916667D02*
X171000000Y-86333333D01*
G36*
X171583333Y-86916667D02*
G01*
X171000000Y-86916667D01*
X171000000Y-86333333D01*
X171583333Y-86333333D01*
X171583333Y-86916667D01*
G37*
X171583333Y-86916667D02*
X171000000Y-86916667D01*
X171000000Y-86333333D01*
X171583333Y-86333333D01*
X171583333Y-86916667D01*
X168083333Y-88666667D02*
X168666667Y-88666667D01*
X168666667Y-88666667D02*
X168666667Y-89250000D01*
X168666667Y-89250000D02*
X168083333Y-89250000D01*
X168083333Y-89250000D02*
X168083333Y-88666667D01*
G36*
X168666667Y-89250000D02*
G01*
X168083333Y-89250000D01*
X168083333Y-88666667D01*
X168666667Y-88666667D01*
X168666667Y-89250000D01*
G37*
X168666667Y-89250000D02*
X168083333Y-89250000D01*
X168083333Y-88666667D01*
X168666667Y-88666667D01*
X168666667Y-89250000D01*
X169250000Y-88666667D02*
X169833333Y-88666667D01*
X169833333Y-88666667D02*
X169833333Y-89250000D01*
X169833333Y-89250000D02*
X169250000Y-89250000D01*
X169250000Y-89250000D02*
X169250000Y-88666667D01*
G36*
X169833333Y-89250000D02*
G01*
X169250000Y-89250000D01*
X169250000Y-88666667D01*
X169833333Y-88666667D01*
X169833333Y-89250000D01*
G37*
X169833333Y-89250000D02*
X169250000Y-89250000D01*
X169250000Y-88666667D01*
X169833333Y-88666667D01*
X169833333Y-89250000D01*
X167500000Y-85750000D02*
X168083333Y-85750000D01*
X168083333Y-85750000D02*
X168083333Y-86333333D01*
X168083333Y-86333333D02*
X167500000Y-86333333D01*
X167500000Y-86333333D02*
X167500000Y-85750000D01*
G36*
X168083333Y-86333333D02*
G01*
X167500000Y-86333333D01*
X167500000Y-85750000D01*
X168083333Y-85750000D01*
X168083333Y-86333333D01*
G37*
X168083333Y-86333333D02*
X167500000Y-86333333D01*
X167500000Y-85750000D01*
X168083333Y-85750000D01*
X168083333Y-86333333D01*
X167500000Y-88666667D02*
X168083333Y-88666667D01*
X168083333Y-88666667D02*
X168083333Y-89250000D01*
X168083333Y-89250000D02*
X167500000Y-89250000D01*
X167500000Y-89250000D02*
X167500000Y-88666667D01*
G36*
X168083333Y-89250000D02*
G01*
X167500000Y-89250000D01*
X167500000Y-88666667D01*
X168083333Y-88666667D01*
X168083333Y-89250000D01*
G37*
X168083333Y-89250000D02*
X167500000Y-89250000D01*
X167500000Y-88666667D01*
X168083333Y-88666667D01*
X168083333Y-89250000D01*
X173333333Y-87500000D02*
X173916667Y-87500000D01*
X173916667Y-87500000D02*
X173916667Y-88083333D01*
X173916667Y-88083333D02*
X173333333Y-88083333D01*
X173333333Y-88083333D02*
X173333333Y-87500000D01*
G36*
X173916667Y-88083333D02*
G01*
X173333333Y-88083333D01*
X173333333Y-87500000D01*
X173916667Y-87500000D01*
X173916667Y-88083333D01*
G37*
X173916667Y-88083333D02*
X173333333Y-88083333D01*
X173333333Y-87500000D01*
X173916667Y-87500000D01*
X173916667Y-88083333D01*
X171583333Y-88666667D02*
X172166667Y-88666667D01*
X172166667Y-88666667D02*
X172166667Y-89250000D01*
X172166667Y-89250000D02*
X171583333Y-89250000D01*
X171583333Y-89250000D02*
X171583333Y-88666667D01*
G36*
X172166667Y-89250000D02*
G01*
X171583333Y-89250000D01*
X171583333Y-88666667D01*
X172166667Y-88666667D01*
X172166667Y-89250000D01*
G37*
X172166667Y-89250000D02*
X171583333Y-89250000D01*
X171583333Y-88666667D01*
X172166667Y-88666667D01*
X172166667Y-89250000D01*
X171583333Y-84000000D02*
X172166667Y-84000000D01*
X172166667Y-84000000D02*
X172166667Y-84583333D01*
X172166667Y-84583333D02*
X171583333Y-84583333D01*
X171583333Y-84583333D02*
X171583333Y-84000000D01*
G36*
X172166667Y-84583333D02*
G01*
X171583333Y-84583333D01*
X171583333Y-84000000D01*
X172166667Y-84000000D01*
X172166667Y-84583333D01*
G37*
X172166667Y-84583333D02*
X171583333Y-84583333D01*
X171583333Y-84000000D01*
X172166667Y-84000000D01*
X172166667Y-84583333D01*
X169250000Y-85750000D02*
X169833333Y-85750000D01*
X169833333Y-85750000D02*
X169833333Y-86333333D01*
X169833333Y-86333333D02*
X169250000Y-86333333D01*
X169250000Y-86333333D02*
X169250000Y-85750000D01*
G36*
X169833333Y-86333333D02*
G01*
X169250000Y-86333333D01*
X169250000Y-85750000D01*
X169833333Y-85750000D01*
X169833333Y-86333333D01*
G37*
X169833333Y-86333333D02*
X169250000Y-86333333D01*
X169250000Y-85750000D01*
X169833333Y-85750000D01*
X169833333Y-86333333D01*
X169250000Y-85166667D02*
X169833333Y-85166667D01*
X169833333Y-85166667D02*
X169833333Y-85750000D01*
X169833333Y-85750000D02*
X169250000Y-85750000D01*
X169250000Y-85750000D02*
X169250000Y-85166667D01*
G36*
X169833333Y-85750000D02*
G01*
X169250000Y-85750000D01*
X169250000Y-85166667D01*
X169833333Y-85166667D01*
X169833333Y-85750000D01*
G37*
X169833333Y-85750000D02*
X169250000Y-85750000D01*
X169250000Y-85166667D01*
X169833333Y-85166667D01*
X169833333Y-85750000D01*
X167500000Y-84000000D02*
X168083333Y-84000000D01*
X168083333Y-84000000D02*
X168083333Y-84583333D01*
X168083333Y-84583333D02*
X167500000Y-84583333D01*
X167500000Y-84583333D02*
X167500000Y-84000000D01*
G36*
X168083333Y-84583333D02*
G01*
X167500000Y-84583333D01*
X167500000Y-84000000D01*
X168083333Y-84000000D01*
X168083333Y-84583333D01*
G37*
X168083333Y-84583333D02*
X167500000Y-84583333D01*
X167500000Y-84000000D01*
X168083333Y-84000000D01*
X168083333Y-84583333D01*
X169833333Y-82250000D02*
X170416667Y-82250000D01*
X170416667Y-82250000D02*
X170416667Y-82833333D01*
X170416667Y-82833333D02*
X169833333Y-82833333D01*
X169833333Y-82833333D02*
X169833333Y-82250000D01*
G36*
X170416667Y-82833333D02*
G01*
X169833333Y-82833333D01*
X169833333Y-82250000D01*
X170416667Y-82250000D01*
X170416667Y-82833333D01*
G37*
X170416667Y-82833333D02*
X169833333Y-82833333D01*
X169833333Y-82250000D01*
X170416667Y-82250000D01*
X170416667Y-82833333D01*
X168083333Y-88083333D02*
X168666667Y-88083333D01*
X168666667Y-88083333D02*
X168666667Y-88666667D01*
X168666667Y-88666667D02*
X168083333Y-88666667D01*
X168083333Y-88666667D02*
X168083333Y-88083333D01*
G36*
X168666667Y-88666667D02*
G01*
X168083333Y-88666667D01*
X168083333Y-88083333D01*
X168666667Y-88083333D01*
X168666667Y-88666667D01*
G37*
X168666667Y-88666667D02*
X168083333Y-88666667D01*
X168083333Y-88083333D01*
X168666667Y-88083333D01*
X168666667Y-88666667D01*
X172166667Y-82250000D02*
X172750000Y-82250000D01*
X172750000Y-82250000D02*
X172750000Y-82833333D01*
X172750000Y-82833333D02*
X172166667Y-82833333D01*
X172166667Y-82833333D02*
X172166667Y-82250000D01*
G36*
X172750000Y-82833333D02*
G01*
X172166667Y-82833333D01*
X172166667Y-82250000D01*
X172750000Y-82250000D01*
X172750000Y-82833333D01*
G37*
X172750000Y-82833333D02*
X172166667Y-82833333D01*
X172166667Y-82250000D01*
X172750000Y-82250000D01*
X172750000Y-82833333D01*
X169250000Y-82833333D02*
X169833333Y-82833333D01*
X169833333Y-82833333D02*
X169833333Y-83416667D01*
X169833333Y-83416667D02*
X169250000Y-83416667D01*
X169250000Y-83416667D02*
X169250000Y-82833333D01*
G36*
X169833333Y-83416667D02*
G01*
X169250000Y-83416667D01*
X169250000Y-82833333D01*
X169833333Y-82833333D01*
X169833333Y-83416667D01*
G37*
X169833333Y-83416667D02*
X169250000Y-83416667D01*
X169250000Y-82833333D01*
X169833333Y-82833333D01*
X169833333Y-83416667D01*
X168083333Y-84000000D02*
X168666667Y-84000000D01*
X168666667Y-84000000D02*
X168666667Y-84583333D01*
X168666667Y-84583333D02*
X168083333Y-84583333D01*
X168083333Y-84583333D02*
X168083333Y-84000000D01*
G36*
X168666667Y-84583333D02*
G01*
X168083333Y-84583333D01*
X168083333Y-84000000D01*
X168666667Y-84000000D01*
X168666667Y-84583333D01*
G37*
X168666667Y-84583333D02*
X168083333Y-84583333D01*
X168083333Y-84000000D01*
X168666667Y-84000000D01*
X168666667Y-84583333D01*
X168083333Y-87500000D02*
X168666667Y-87500000D01*
X168666667Y-87500000D02*
X168666667Y-88083333D01*
X168666667Y-88083333D02*
X168083333Y-88083333D01*
X168083333Y-88083333D02*
X168083333Y-87500000D01*
G36*
X168666667Y-88083333D02*
G01*
X168083333Y-88083333D01*
X168083333Y-87500000D01*
X168666667Y-87500000D01*
X168666667Y-88083333D01*
G37*
X168666667Y-88083333D02*
X168083333Y-88083333D01*
X168083333Y-87500000D01*
X168666667Y-87500000D01*
X168666667Y-88083333D01*
X168666667Y-82250000D02*
X169250000Y-82250000D01*
X169250000Y-82250000D02*
X169250000Y-82833333D01*
X169250000Y-82833333D02*
X168666667Y-82833333D01*
X168666667Y-82833333D02*
X168666667Y-82250000D01*
G36*
X169250000Y-82833333D02*
G01*
X168666667Y-82833333D01*
X168666667Y-82250000D01*
X169250000Y-82250000D01*
X169250000Y-82833333D01*
G37*
X169250000Y-82833333D02*
X168666667Y-82833333D01*
X168666667Y-82250000D01*
X169250000Y-82250000D01*
X169250000Y-82833333D01*
X170416667Y-88083333D02*
X171000000Y-88083333D01*
X171000000Y-88083333D02*
X171000000Y-88666667D01*
X171000000Y-88666667D02*
X170416667Y-88666667D01*
X170416667Y-88666667D02*
X170416667Y-88083333D01*
G36*
X171000000Y-88666667D02*
G01*
X170416667Y-88666667D01*
X170416667Y-88083333D01*
X171000000Y-88083333D01*
X171000000Y-88666667D01*
G37*
X171000000Y-88666667D02*
X170416667Y-88666667D01*
X170416667Y-88083333D01*
X171000000Y-88083333D01*
X171000000Y-88666667D01*
X172166667Y-84000000D02*
X172750000Y-84000000D01*
X172750000Y-84000000D02*
X172750000Y-84583333D01*
X172750000Y-84583333D02*
X172166667Y-84583333D01*
X172166667Y-84583333D02*
X172166667Y-84000000D01*
G36*
X172750000Y-84583333D02*
G01*
X172166667Y-84583333D01*
X172166667Y-84000000D01*
X172750000Y-84000000D01*
X172750000Y-84583333D01*
G37*
X172750000Y-84583333D02*
X172166667Y-84583333D01*
X172166667Y-84000000D01*
X172750000Y-84000000D01*
X172750000Y-84583333D01*
X168083333Y-85750000D02*
X168666667Y-85750000D01*
X168666667Y-85750000D02*
X168666667Y-86333333D01*
X168666667Y-86333333D02*
X168083333Y-86333333D01*
X168083333Y-86333333D02*
X168083333Y-85750000D01*
G36*
X168666667Y-86333333D02*
G01*
X168083333Y-86333333D01*
X168083333Y-85750000D01*
X168666667Y-85750000D01*
X168666667Y-86333333D01*
G37*
X168666667Y-86333333D02*
X168083333Y-86333333D01*
X168083333Y-85750000D01*
X168666667Y-85750000D01*
X168666667Y-86333333D01*
X173916667Y-83416667D02*
X174500000Y-83416667D01*
X174500000Y-83416667D02*
X174500000Y-84000000D01*
X174500000Y-84000000D02*
X173916667Y-84000000D01*
X173916667Y-84000000D02*
X173916667Y-83416667D01*
G36*
X174500000Y-84000000D02*
G01*
X173916667Y-84000000D01*
X173916667Y-83416667D01*
X174500000Y-83416667D01*
X174500000Y-84000000D01*
G37*
X174500000Y-84000000D02*
X173916667Y-84000000D01*
X173916667Y-83416667D01*
X174500000Y-83416667D01*
X174500000Y-84000000D01*
X170416667Y-86916667D02*
X171000000Y-86916667D01*
X171000000Y-86916667D02*
X171000000Y-87500000D01*
X171000000Y-87500000D02*
X170416667Y-87500000D01*
X170416667Y-87500000D02*
X170416667Y-86916667D01*
G36*
X171000000Y-87500000D02*
G01*
X170416667Y-87500000D01*
X170416667Y-86916667D01*
X171000000Y-86916667D01*
X171000000Y-87500000D01*
G37*
X171000000Y-87500000D02*
X170416667Y-87500000D01*
X170416667Y-86916667D01*
X171000000Y-86916667D01*
X171000000Y-87500000D01*
X167500000Y-82833333D02*
X168083333Y-82833333D01*
X168083333Y-82833333D02*
X168083333Y-83416667D01*
X168083333Y-83416667D02*
X167500000Y-83416667D01*
X167500000Y-83416667D02*
X167500000Y-82833333D01*
G36*
X168083333Y-83416667D02*
G01*
X167500000Y-83416667D01*
X167500000Y-82833333D01*
X168083333Y-82833333D01*
X168083333Y-83416667D01*
G37*
X168083333Y-83416667D02*
X167500000Y-83416667D01*
X167500000Y-82833333D01*
X168083333Y-82833333D01*
X168083333Y-83416667D01*
X172166667Y-88666667D02*
X172750000Y-88666667D01*
X172750000Y-88666667D02*
X172750000Y-89250000D01*
X172750000Y-89250000D02*
X172166667Y-89250000D01*
X172166667Y-89250000D02*
X172166667Y-88666667D01*
G36*
X172750000Y-89250000D02*
G01*
X172166667Y-89250000D01*
X172166667Y-88666667D01*
X172750000Y-88666667D01*
X172750000Y-89250000D01*
G37*
X172750000Y-89250000D02*
X172166667Y-89250000D01*
X172166667Y-88666667D01*
X172750000Y-88666667D01*
X172750000Y-89250000D01*
X171000000Y-82250000D02*
X171583333Y-82250000D01*
X171583333Y-82250000D02*
X171583333Y-82833333D01*
X171583333Y-82833333D02*
X171000000Y-82833333D01*
X171000000Y-82833333D02*
X171000000Y-82250000D01*
G36*
X171583333Y-82833333D02*
G01*
X171000000Y-82833333D01*
X171000000Y-82250000D01*
X171583333Y-82250000D01*
X171583333Y-82833333D01*
G37*
X171583333Y-82833333D02*
X171000000Y-82833333D01*
X171000000Y-82250000D01*
X171583333Y-82250000D01*
X171583333Y-82833333D01*
X173333333Y-86333333D02*
X173916667Y-86333333D01*
X173916667Y-86333333D02*
X173916667Y-86916667D01*
X173916667Y-86916667D02*
X173333333Y-86916667D01*
X173333333Y-86916667D02*
X173333333Y-86333333D01*
G36*
X173916667Y-86916667D02*
G01*
X173333333Y-86916667D01*
X173333333Y-86333333D01*
X173916667Y-86333333D01*
X173916667Y-86916667D01*
G37*
X173916667Y-86916667D02*
X173333333Y-86916667D01*
X173333333Y-86333333D01*
X173916667Y-86333333D01*
X173916667Y-86916667D01*
X172750000Y-88083333D02*
X173333333Y-88083333D01*
X173333333Y-88083333D02*
X173333333Y-88666667D01*
X173333333Y-88666667D02*
X172750000Y-88666667D01*
X172750000Y-88666667D02*
X172750000Y-88083333D01*
G36*
X173333333Y-88666667D02*
G01*
X172750000Y-88666667D01*
X172750000Y-88083333D01*
X173333333Y-88083333D01*
X173333333Y-88666667D01*
G37*
X173333333Y-88666667D02*
X172750000Y-88666667D01*
X172750000Y-88083333D01*
X173333333Y-88083333D01*
X173333333Y-88666667D01*
X167500000Y-86916667D02*
X168083333Y-86916667D01*
X168083333Y-86916667D02*
X168083333Y-87500000D01*
X168083333Y-87500000D02*
X167500000Y-87500000D01*
X167500000Y-87500000D02*
X167500000Y-86916667D01*
G36*
X168083333Y-87500000D02*
G01*
X167500000Y-87500000D01*
X167500000Y-86916667D01*
X168083333Y-86916667D01*
X168083333Y-87500000D01*
G37*
X168083333Y-87500000D02*
X167500000Y-87500000D01*
X167500000Y-86916667D01*
X168083333Y-86916667D01*
X168083333Y-87500000D01*
X170416667Y-84583333D02*
X171000000Y-84583333D01*
X171000000Y-84583333D02*
X171000000Y-85166667D01*
X171000000Y-85166667D02*
X170416667Y-85166667D01*
X170416667Y-85166667D02*
X170416667Y-84583333D01*
G36*
X171000000Y-85166667D02*
G01*
X170416667Y-85166667D01*
X170416667Y-84583333D01*
X171000000Y-84583333D01*
X171000000Y-85166667D01*
G37*
X171000000Y-85166667D02*
X170416667Y-85166667D01*
X170416667Y-84583333D01*
X171000000Y-84583333D01*
X171000000Y-85166667D01*
X169833333Y-88666667D02*
X170416667Y-88666667D01*
X170416667Y-88666667D02*
X170416667Y-89250000D01*
X170416667Y-89250000D02*
X169833333Y-89250000D01*
X169833333Y-89250000D02*
X169833333Y-88666667D01*
G36*
X170416667Y-89250000D02*
G01*
X169833333Y-89250000D01*
X169833333Y-88666667D01*
X170416667Y-88666667D01*
X170416667Y-89250000D01*
G37*
X170416667Y-89250000D02*
X169833333Y-89250000D01*
X169833333Y-88666667D01*
X170416667Y-88666667D01*
X170416667Y-89250000D01*
X168083333Y-82833333D02*
X168666667Y-82833333D01*
X168666667Y-82833333D02*
X168666667Y-83416667D01*
X168666667Y-83416667D02*
X168083333Y-83416667D01*
X168083333Y-83416667D02*
X168083333Y-82833333D01*
G36*
X168666667Y-83416667D02*
G01*
X168083333Y-83416667D01*
X168083333Y-82833333D01*
X168666667Y-82833333D01*
X168666667Y-83416667D01*
G37*
X168666667Y-83416667D02*
X168083333Y-83416667D01*
X168083333Y-82833333D01*
X168666667Y-82833333D01*
X168666667Y-83416667D01*
X169833333Y-85166667D02*
X170416667Y-85166667D01*
X170416667Y-85166667D02*
X170416667Y-85750000D01*
X170416667Y-85750000D02*
X169833333Y-85750000D01*
X169833333Y-85750000D02*
X169833333Y-85166667D01*
G36*
X170416667Y-85750000D02*
G01*
X169833333Y-85750000D01*
X169833333Y-85166667D01*
X170416667Y-85166667D01*
X170416667Y-85750000D01*
G37*
X170416667Y-85750000D02*
X169833333Y-85750000D01*
X169833333Y-85166667D01*
X170416667Y-85166667D01*
X170416667Y-85750000D01*
X173333333Y-88666667D02*
X173916667Y-88666667D01*
X173916667Y-88666667D02*
X173916667Y-89250000D01*
X173916667Y-89250000D02*
X173333333Y-89250000D01*
X173333333Y-89250000D02*
X173333333Y-88666667D01*
G36*
X173916667Y-89250000D02*
G01*
X173333333Y-89250000D01*
X173333333Y-88666667D01*
X173916667Y-88666667D01*
X173916667Y-89250000D01*
G37*
X173916667Y-89250000D02*
X173333333Y-89250000D01*
X173333333Y-88666667D01*
X173916667Y-88666667D01*
X173916667Y-89250000D01*
X171000000Y-85750000D02*
X171583333Y-85750000D01*
X171583333Y-85750000D02*
X171583333Y-86333333D01*
X171583333Y-86333333D02*
X171000000Y-86333333D01*
X171000000Y-86333333D02*
X171000000Y-85750000D01*
G36*
X171583333Y-86333333D02*
G01*
X171000000Y-86333333D01*
X171000000Y-85750000D01*
X171583333Y-85750000D01*
X171583333Y-86333333D01*
G37*
X171583333Y-86333333D02*
X171000000Y-86333333D01*
X171000000Y-85750000D01*
X171583333Y-85750000D01*
X171583333Y-86333333D01*
X173916667Y-82250000D02*
X174500000Y-82250000D01*
X174500000Y-82250000D02*
X174500000Y-82833333D01*
X174500000Y-82833333D02*
X173916667Y-82833333D01*
X173916667Y-82833333D02*
X173916667Y-82250000D01*
G36*
X174500000Y-82833333D02*
G01*
X173916667Y-82833333D01*
X173916667Y-82250000D01*
X174500000Y-82250000D01*
X174500000Y-82833333D01*
G37*
X174500000Y-82833333D02*
X173916667Y-82833333D01*
X173916667Y-82250000D01*
X174500000Y-82250000D01*
X174500000Y-82833333D01*
X168083333Y-86916667D02*
X168666667Y-86916667D01*
X168666667Y-86916667D02*
X168666667Y-87500000D01*
X168666667Y-87500000D02*
X168083333Y-87500000D01*
X168083333Y-87500000D02*
X168083333Y-86916667D01*
G36*
X168666667Y-87500000D02*
G01*
X168083333Y-87500000D01*
X168083333Y-86916667D01*
X168666667Y-86916667D01*
X168666667Y-87500000D01*
G37*
X168666667Y-87500000D02*
X168083333Y-87500000D01*
X168083333Y-86916667D01*
X168666667Y-86916667D01*
X168666667Y-87500000D01*
X169250000Y-88083333D02*
X169833333Y-88083333D01*
X169833333Y-88083333D02*
X169833333Y-88666667D01*
X169833333Y-88666667D02*
X169250000Y-88666667D01*
X169250000Y-88666667D02*
X169250000Y-88083333D01*
G36*
X169833333Y-88666667D02*
G01*
X169250000Y-88666667D01*
X169250000Y-88083333D01*
X169833333Y-88083333D01*
X169833333Y-88666667D01*
G37*
X169833333Y-88666667D02*
X169250000Y-88666667D01*
X169250000Y-88083333D01*
X169833333Y-88083333D01*
X169833333Y-88666667D01*
X231433333Y-83833333D02*
X232016667Y-83833333D01*
X232016667Y-83833333D02*
X232016667Y-84416667D01*
X232016667Y-84416667D02*
X231433333Y-84416667D01*
X231433333Y-84416667D02*
X231433333Y-83833333D01*
G36*
X232016667Y-84416667D02*
G01*
X231433333Y-84416667D01*
X231433333Y-83833333D01*
X232016667Y-83833333D01*
X232016667Y-84416667D01*
G37*
X232016667Y-84416667D02*
X231433333Y-84416667D01*
X231433333Y-83833333D01*
X232016667Y-83833333D01*
X232016667Y-84416667D01*
X230266667Y-86166667D02*
X230850000Y-86166667D01*
X230850000Y-86166667D02*
X230850000Y-86750000D01*
X230850000Y-86750000D02*
X230266667Y-86750000D01*
X230266667Y-86750000D02*
X230266667Y-86166667D01*
G36*
X230850000Y-86750000D02*
G01*
X230266667Y-86750000D01*
X230266667Y-86166667D01*
X230850000Y-86166667D01*
X230850000Y-86750000D01*
G37*
X230850000Y-86750000D02*
X230266667Y-86750000D01*
X230266667Y-86166667D01*
X230850000Y-86166667D01*
X230850000Y-86750000D01*
X230266667Y-85000000D02*
X230850000Y-85000000D01*
X230850000Y-85000000D02*
X230850000Y-85583333D01*
X230850000Y-85583333D02*
X230266667Y-85583333D01*
X230266667Y-85583333D02*
X230266667Y-85000000D01*
G36*
X230850000Y-85583333D02*
G01*
X230266667Y-85583333D01*
X230266667Y-85000000D01*
X230850000Y-85000000D01*
X230850000Y-85583333D01*
G37*
X230850000Y-85583333D02*
X230266667Y-85583333D01*
X230266667Y-85000000D01*
X230850000Y-85000000D01*
X230850000Y-85583333D01*
X225600000Y-85000000D02*
X226183333Y-85000000D01*
X226183333Y-85000000D02*
X226183333Y-85583333D01*
X226183333Y-85583333D02*
X225600000Y-85583333D01*
X225600000Y-85583333D02*
X225600000Y-85000000D01*
G36*
X226183333Y-85583333D02*
G01*
X225600000Y-85583333D01*
X225600000Y-85000000D01*
X226183333Y-85000000D01*
X226183333Y-85583333D01*
G37*
X226183333Y-85583333D02*
X225600000Y-85583333D01*
X225600000Y-85000000D01*
X226183333Y-85000000D01*
X226183333Y-85583333D01*
X226766667Y-89666667D02*
X227350000Y-89666667D01*
X227350000Y-89666667D02*
X227350000Y-90250000D01*
X227350000Y-90250000D02*
X226766667Y-90250000D01*
X226766667Y-90250000D02*
X226766667Y-89666667D01*
G36*
X227350000Y-90250000D02*
G01*
X226766667Y-90250000D01*
X226766667Y-89666667D01*
X227350000Y-89666667D01*
X227350000Y-90250000D01*
G37*
X227350000Y-90250000D02*
X226766667Y-90250000D01*
X226766667Y-89666667D01*
X227350000Y-89666667D01*
X227350000Y-90250000D01*
X229683333Y-89083333D02*
X230266667Y-89083333D01*
X230266667Y-89083333D02*
X230266667Y-89666667D01*
X230266667Y-89666667D02*
X229683333Y-89666667D01*
X229683333Y-89666667D02*
X229683333Y-89083333D01*
G36*
X230266667Y-89666667D02*
G01*
X229683333Y-89666667D01*
X229683333Y-89083333D01*
X230266667Y-89083333D01*
X230266667Y-89666667D01*
G37*
X230266667Y-89666667D02*
X229683333Y-89666667D01*
X229683333Y-89083333D01*
X230266667Y-89083333D01*
X230266667Y-89666667D01*
X230850000Y-89083333D02*
X231433333Y-89083333D01*
X231433333Y-89083333D02*
X231433333Y-89666667D01*
X231433333Y-89666667D02*
X230850000Y-89666667D01*
X230850000Y-89666667D02*
X230850000Y-89083333D01*
G36*
X231433333Y-89666667D02*
G01*
X230850000Y-89666667D01*
X230850000Y-89083333D01*
X231433333Y-89083333D01*
X231433333Y-89666667D01*
G37*
X231433333Y-89666667D02*
X230850000Y-89666667D01*
X230850000Y-89083333D01*
X231433333Y-89083333D01*
X231433333Y-89666667D01*
X226183333Y-83250000D02*
X226766667Y-83250000D01*
X226766667Y-83250000D02*
X226766667Y-83833333D01*
X226766667Y-83833333D02*
X226183333Y-83833333D01*
X226183333Y-83833333D02*
X226183333Y-83250000D01*
G36*
X226766667Y-83833333D02*
G01*
X226183333Y-83833333D01*
X226183333Y-83250000D01*
X226766667Y-83250000D01*
X226766667Y-83833333D01*
G37*
X226766667Y-83833333D02*
X226183333Y-83833333D01*
X226183333Y-83250000D01*
X226766667Y-83250000D01*
X226766667Y-83833333D01*
X229100000Y-85583333D02*
X229683333Y-85583333D01*
X229683333Y-85583333D02*
X229683333Y-86166667D01*
X229683333Y-86166667D02*
X229100000Y-86166667D01*
X229100000Y-86166667D02*
X229100000Y-85583333D01*
G36*
X229683333Y-86166667D02*
G01*
X229100000Y-86166667D01*
X229100000Y-85583333D01*
X229683333Y-85583333D01*
X229683333Y-86166667D01*
G37*
X229683333Y-86166667D02*
X229100000Y-86166667D01*
X229100000Y-85583333D01*
X229683333Y-85583333D01*
X229683333Y-86166667D01*
X226183333Y-86166667D02*
X226766667Y-86166667D01*
X226766667Y-86166667D02*
X226766667Y-86750000D01*
X226766667Y-86750000D02*
X226183333Y-86750000D01*
X226183333Y-86750000D02*
X226183333Y-86166667D01*
G36*
X226766667Y-86750000D02*
G01*
X226183333Y-86750000D01*
X226183333Y-86166667D01*
X226766667Y-86166667D01*
X226766667Y-86750000D01*
G37*
X226766667Y-86750000D02*
X226183333Y-86750000D01*
X226183333Y-86166667D01*
X226766667Y-86166667D01*
X226766667Y-86750000D01*
X230850000Y-83250000D02*
X231433333Y-83250000D01*
X231433333Y-83250000D02*
X231433333Y-83833333D01*
X231433333Y-83833333D02*
X230850000Y-83833333D01*
X230850000Y-83833333D02*
X230850000Y-83250000D01*
G36*
X231433333Y-83833333D02*
G01*
X230850000Y-83833333D01*
X230850000Y-83250000D01*
X231433333Y-83250000D01*
X231433333Y-83833333D01*
G37*
X231433333Y-83833333D02*
X230850000Y-83833333D01*
X230850000Y-83250000D01*
X231433333Y-83250000D01*
X231433333Y-83833333D01*
X230850000Y-89666667D02*
X231433333Y-89666667D01*
X231433333Y-89666667D02*
X231433333Y-90250000D01*
X231433333Y-90250000D02*
X230850000Y-90250000D01*
X230850000Y-90250000D02*
X230850000Y-89666667D01*
G36*
X231433333Y-90250000D02*
G01*
X230850000Y-90250000D01*
X230850000Y-89666667D01*
X231433333Y-89666667D01*
X231433333Y-90250000D01*
G37*
X231433333Y-90250000D02*
X230850000Y-90250000D01*
X230850000Y-89666667D01*
X231433333Y-89666667D01*
X231433333Y-90250000D01*
X231433333Y-88500000D02*
X232016667Y-88500000D01*
X232016667Y-88500000D02*
X232016667Y-89083333D01*
X232016667Y-89083333D02*
X231433333Y-89083333D01*
X231433333Y-89083333D02*
X231433333Y-88500000D01*
G36*
X232016667Y-89083333D02*
G01*
X231433333Y-89083333D01*
X231433333Y-88500000D01*
X232016667Y-88500000D01*
X232016667Y-89083333D01*
G37*
X232016667Y-89083333D02*
X231433333Y-89083333D01*
X231433333Y-88500000D01*
X232016667Y-88500000D01*
X232016667Y-89083333D01*
X226183333Y-85000000D02*
X226766667Y-85000000D01*
X226766667Y-85000000D02*
X226766667Y-85583333D01*
X226766667Y-85583333D02*
X226183333Y-85583333D01*
X226183333Y-85583333D02*
X226183333Y-85000000D01*
G36*
X226766667Y-85583333D02*
G01*
X226183333Y-85583333D01*
X226183333Y-85000000D01*
X226766667Y-85000000D01*
X226766667Y-85583333D01*
G37*
X226766667Y-85583333D02*
X226183333Y-85583333D01*
X226183333Y-85000000D01*
X226766667Y-85000000D01*
X226766667Y-85583333D01*
X227350000Y-83833333D02*
X227933333Y-83833333D01*
X227933333Y-83833333D02*
X227933333Y-84416667D01*
X227933333Y-84416667D02*
X227350000Y-84416667D01*
X227350000Y-84416667D02*
X227350000Y-83833333D01*
G36*
X227933333Y-84416667D02*
G01*
X227350000Y-84416667D01*
X227350000Y-83833333D01*
X227933333Y-83833333D01*
X227933333Y-84416667D01*
G37*
X227933333Y-84416667D02*
X227350000Y-84416667D01*
X227350000Y-83833333D01*
X227933333Y-83833333D01*
X227933333Y-84416667D01*
X230266667Y-89083333D02*
X230850000Y-89083333D01*
X230850000Y-89083333D02*
X230850000Y-89666667D01*
X230850000Y-89666667D02*
X230266667Y-89666667D01*
X230266667Y-89666667D02*
X230266667Y-89083333D01*
G36*
X230850000Y-89666667D02*
G01*
X230266667Y-89666667D01*
X230266667Y-89083333D01*
X230850000Y-89083333D01*
X230850000Y-89666667D01*
G37*
X230850000Y-89666667D02*
X230266667Y-89666667D01*
X230266667Y-89083333D01*
X230850000Y-89083333D01*
X230850000Y-89666667D01*
X226183333Y-86750000D02*
X226766667Y-86750000D01*
X226766667Y-86750000D02*
X226766667Y-87333333D01*
X226766667Y-87333333D02*
X226183333Y-87333333D01*
X226183333Y-87333333D02*
X226183333Y-86750000D01*
G36*
X226766667Y-87333333D02*
G01*
X226183333Y-87333333D01*
X226183333Y-86750000D01*
X226766667Y-86750000D01*
X226766667Y-87333333D01*
G37*
X226766667Y-87333333D02*
X226183333Y-87333333D01*
X226183333Y-86750000D01*
X226766667Y-86750000D01*
X226766667Y-87333333D01*
X225600000Y-86166667D02*
X226183333Y-86166667D01*
X226183333Y-86166667D02*
X226183333Y-86750000D01*
X226183333Y-86750000D02*
X225600000Y-86750000D01*
X225600000Y-86750000D02*
X225600000Y-86166667D01*
G36*
X226183333Y-86750000D02*
G01*
X225600000Y-86750000D01*
X225600000Y-86166667D01*
X226183333Y-86166667D01*
X226183333Y-86750000D01*
G37*
X226183333Y-86750000D02*
X225600000Y-86750000D01*
X225600000Y-86166667D01*
X226183333Y-86166667D01*
X226183333Y-86750000D01*
X226766667Y-83833333D02*
X227350000Y-83833333D01*
X227350000Y-83833333D02*
X227350000Y-84416667D01*
X227350000Y-84416667D02*
X226766667Y-84416667D01*
X226766667Y-84416667D02*
X226766667Y-83833333D01*
G36*
X227350000Y-84416667D02*
G01*
X226766667Y-84416667D01*
X226766667Y-83833333D01*
X227350000Y-83833333D01*
X227350000Y-84416667D01*
G37*
X227350000Y-84416667D02*
X226766667Y-84416667D01*
X226766667Y-83833333D01*
X227350000Y-83833333D01*
X227350000Y-84416667D01*
X227350000Y-89666667D02*
X227933333Y-89666667D01*
X227933333Y-89666667D02*
X227933333Y-90250000D01*
X227933333Y-90250000D02*
X227350000Y-90250000D01*
X227350000Y-90250000D02*
X227350000Y-89666667D01*
G36*
X227933333Y-90250000D02*
G01*
X227350000Y-90250000D01*
X227350000Y-89666667D01*
X227933333Y-89666667D01*
X227933333Y-90250000D01*
G37*
X227933333Y-90250000D02*
X227350000Y-90250000D01*
X227350000Y-89666667D01*
X227933333Y-89666667D01*
X227933333Y-90250000D01*
X230266667Y-86750000D02*
X230850000Y-86750000D01*
X230850000Y-86750000D02*
X230850000Y-87333333D01*
X230850000Y-87333333D02*
X230266667Y-87333333D01*
X230266667Y-87333333D02*
X230266667Y-86750000D01*
G36*
X230850000Y-87333333D02*
G01*
X230266667Y-87333333D01*
X230266667Y-86750000D01*
X230850000Y-86750000D01*
X230850000Y-87333333D01*
G37*
X230850000Y-87333333D02*
X230266667Y-87333333D01*
X230266667Y-86750000D01*
X230850000Y-86750000D01*
X230850000Y-87333333D01*
X232016667Y-85583333D02*
X232600000Y-85583333D01*
X232600000Y-85583333D02*
X232600000Y-86166667D01*
X232600000Y-86166667D02*
X232016667Y-86166667D01*
X232016667Y-86166667D02*
X232016667Y-85583333D01*
G36*
X232600000Y-86166667D02*
G01*
X232016667Y-86166667D01*
X232016667Y-85583333D01*
X232600000Y-85583333D01*
X232600000Y-86166667D01*
G37*
X232600000Y-86166667D02*
X232016667Y-86166667D01*
X232016667Y-85583333D01*
X232600000Y-85583333D01*
X232600000Y-86166667D01*
X227350000Y-89083333D02*
X227933333Y-89083333D01*
X227933333Y-89083333D02*
X227933333Y-89666667D01*
X227933333Y-89666667D02*
X227350000Y-89666667D01*
X227350000Y-89666667D02*
X227350000Y-89083333D01*
G36*
X227933333Y-89666667D02*
G01*
X227350000Y-89666667D01*
X227350000Y-89083333D01*
X227933333Y-89083333D01*
X227933333Y-89666667D01*
G37*
X227933333Y-89666667D02*
X227350000Y-89666667D01*
X227350000Y-89083333D01*
X227933333Y-89083333D01*
X227933333Y-89666667D01*
X225600000Y-87333333D02*
X226183333Y-87333333D01*
X226183333Y-87333333D02*
X226183333Y-87916667D01*
X226183333Y-87916667D02*
X225600000Y-87916667D01*
X225600000Y-87916667D02*
X225600000Y-87333333D01*
G36*
X226183333Y-87916667D02*
G01*
X225600000Y-87916667D01*
X225600000Y-87333333D01*
X226183333Y-87333333D01*
X226183333Y-87916667D01*
G37*
X226183333Y-87916667D02*
X225600000Y-87916667D01*
X225600000Y-87333333D01*
X226183333Y-87333333D01*
X226183333Y-87916667D01*
X232016667Y-83250000D02*
X232600000Y-83250000D01*
X232600000Y-83250000D02*
X232600000Y-83833333D01*
X232600000Y-83833333D02*
X232016667Y-83833333D01*
X232016667Y-83833333D02*
X232016667Y-83250000D01*
G36*
X232600000Y-83833333D02*
G01*
X232016667Y-83833333D01*
X232016667Y-83250000D01*
X232600000Y-83250000D01*
X232600000Y-83833333D01*
G37*
X232600000Y-83833333D02*
X232016667Y-83833333D01*
X232016667Y-83250000D01*
X232600000Y-83250000D01*
X232600000Y-83833333D01*
X227933333Y-89666667D02*
X228516667Y-89666667D01*
X228516667Y-89666667D02*
X228516667Y-90250000D01*
X228516667Y-90250000D02*
X227933333Y-90250000D01*
X227933333Y-90250000D02*
X227933333Y-89666667D01*
G36*
X228516667Y-90250000D02*
G01*
X227933333Y-90250000D01*
X227933333Y-89666667D01*
X228516667Y-89666667D01*
X228516667Y-90250000D01*
G37*
X228516667Y-90250000D02*
X227933333Y-90250000D01*
X227933333Y-89666667D01*
X228516667Y-89666667D01*
X228516667Y-90250000D01*
X230266667Y-87916667D02*
X230850000Y-87916667D01*
X230850000Y-87916667D02*
X230850000Y-88500000D01*
X230850000Y-88500000D02*
X230266667Y-88500000D01*
X230266667Y-88500000D02*
X230266667Y-87916667D01*
G36*
X230850000Y-88500000D02*
G01*
X230266667Y-88500000D01*
X230266667Y-87916667D01*
X230850000Y-87916667D01*
X230850000Y-88500000D01*
G37*
X230850000Y-88500000D02*
X230266667Y-88500000D01*
X230266667Y-87916667D01*
X230850000Y-87916667D01*
X230850000Y-88500000D01*
X230266667Y-83250000D02*
X230850000Y-83250000D01*
X230850000Y-83250000D02*
X230850000Y-83833333D01*
X230850000Y-83833333D02*
X230266667Y-83833333D01*
X230266667Y-83833333D02*
X230266667Y-83250000D01*
G36*
X230850000Y-83833333D02*
G01*
X230266667Y-83833333D01*
X230266667Y-83250000D01*
X230850000Y-83250000D01*
X230850000Y-83833333D01*
G37*
X230850000Y-83833333D02*
X230266667Y-83833333D01*
X230266667Y-83250000D01*
X230850000Y-83250000D01*
X230850000Y-83833333D01*
X228516667Y-83833333D02*
X229100000Y-83833333D01*
X229100000Y-83833333D02*
X229100000Y-84416667D01*
X229100000Y-84416667D02*
X228516667Y-84416667D01*
X228516667Y-84416667D02*
X228516667Y-83833333D01*
G36*
X229100000Y-84416667D02*
G01*
X228516667Y-84416667D01*
X228516667Y-83833333D01*
X229100000Y-83833333D01*
X229100000Y-84416667D01*
G37*
X229100000Y-84416667D02*
X228516667Y-84416667D01*
X228516667Y-83833333D01*
X229100000Y-83833333D01*
X229100000Y-84416667D01*
X230266667Y-83833333D02*
X230850000Y-83833333D01*
X230850000Y-83833333D02*
X230850000Y-84416667D01*
X230850000Y-84416667D02*
X230266667Y-84416667D01*
X230266667Y-84416667D02*
X230266667Y-83833333D01*
G36*
X230850000Y-84416667D02*
G01*
X230266667Y-84416667D01*
X230266667Y-83833333D01*
X230850000Y-83833333D01*
X230850000Y-84416667D01*
G37*
X230850000Y-84416667D02*
X230266667Y-84416667D01*
X230266667Y-83833333D01*
X230850000Y-83833333D01*
X230850000Y-84416667D01*
X227350000Y-85583333D02*
X227933333Y-85583333D01*
X227933333Y-85583333D02*
X227933333Y-86166667D01*
X227933333Y-86166667D02*
X227350000Y-86166667D01*
X227350000Y-86166667D02*
X227350000Y-85583333D01*
G36*
X227933333Y-86166667D02*
G01*
X227350000Y-86166667D01*
X227350000Y-85583333D01*
X227933333Y-85583333D01*
X227933333Y-86166667D01*
G37*
X227933333Y-86166667D02*
X227350000Y-86166667D01*
X227350000Y-85583333D01*
X227933333Y-85583333D01*
X227933333Y-86166667D01*
X225600000Y-83833333D02*
X226183333Y-83833333D01*
X226183333Y-83833333D02*
X226183333Y-84416667D01*
X226183333Y-84416667D02*
X225600000Y-84416667D01*
X225600000Y-84416667D02*
X225600000Y-83833333D01*
G36*
X226183333Y-84416667D02*
G01*
X225600000Y-84416667D01*
X225600000Y-83833333D01*
X226183333Y-83833333D01*
X226183333Y-84416667D01*
G37*
X226183333Y-84416667D02*
X225600000Y-84416667D01*
X225600000Y-83833333D01*
X226183333Y-83833333D01*
X226183333Y-84416667D01*
X228516667Y-87916667D02*
X229100000Y-87916667D01*
X229100000Y-87916667D02*
X229100000Y-88500000D01*
X229100000Y-88500000D02*
X228516667Y-88500000D01*
X228516667Y-88500000D02*
X228516667Y-87916667D01*
G36*
X229100000Y-88500000D02*
G01*
X228516667Y-88500000D01*
X228516667Y-87916667D01*
X229100000Y-87916667D01*
X229100000Y-88500000D01*
G37*
X229100000Y-88500000D02*
X228516667Y-88500000D01*
X228516667Y-87916667D01*
X229100000Y-87916667D01*
X229100000Y-88500000D01*
X228516667Y-89666667D02*
X229100000Y-89666667D01*
X229100000Y-89666667D02*
X229100000Y-90250000D01*
X229100000Y-90250000D02*
X228516667Y-90250000D01*
X228516667Y-90250000D02*
X228516667Y-89666667D01*
G36*
X229100000Y-90250000D02*
G01*
X228516667Y-90250000D01*
X228516667Y-89666667D01*
X229100000Y-89666667D01*
X229100000Y-90250000D01*
G37*
X229100000Y-90250000D02*
X228516667Y-90250000D01*
X228516667Y-89666667D01*
X229100000Y-89666667D01*
X229100000Y-90250000D01*
X232016667Y-87916667D02*
X232600000Y-87916667D01*
X232600000Y-87916667D02*
X232600000Y-88500000D01*
X232600000Y-88500000D02*
X232016667Y-88500000D01*
X232016667Y-88500000D02*
X232016667Y-87916667D01*
G36*
X232600000Y-88500000D02*
G01*
X232016667Y-88500000D01*
X232016667Y-87916667D01*
X232600000Y-87916667D01*
X232600000Y-88500000D01*
G37*
X232600000Y-88500000D02*
X232016667Y-88500000D01*
X232016667Y-87916667D01*
X232600000Y-87916667D01*
X232600000Y-88500000D01*
X232016667Y-89666667D02*
X232600000Y-89666667D01*
X232600000Y-89666667D02*
X232600000Y-90250000D01*
X232600000Y-90250000D02*
X232016667Y-90250000D01*
X232016667Y-90250000D02*
X232016667Y-89666667D01*
G36*
X232600000Y-90250000D02*
G01*
X232016667Y-90250000D01*
X232016667Y-89666667D01*
X232600000Y-89666667D01*
X232600000Y-90250000D01*
G37*
X232600000Y-90250000D02*
X232016667Y-90250000D01*
X232016667Y-89666667D01*
X232600000Y-89666667D01*
X232600000Y-90250000D01*
X225600000Y-87916667D02*
X226183333Y-87916667D01*
X226183333Y-87916667D02*
X226183333Y-88500000D01*
X226183333Y-88500000D02*
X225600000Y-88500000D01*
X225600000Y-88500000D02*
X225600000Y-87916667D01*
G36*
X226183333Y-88500000D02*
G01*
X225600000Y-88500000D01*
X225600000Y-87916667D01*
X226183333Y-87916667D01*
X226183333Y-88500000D01*
G37*
X226183333Y-88500000D02*
X225600000Y-88500000D01*
X225600000Y-87916667D01*
X226183333Y-87916667D01*
X226183333Y-88500000D01*
X232016667Y-86750000D02*
X232600000Y-86750000D01*
X232600000Y-86750000D02*
X232600000Y-87333333D01*
X232600000Y-87333333D02*
X232016667Y-87333333D01*
X232016667Y-87333333D02*
X232016667Y-86750000D01*
G36*
X232600000Y-87333333D02*
G01*
X232016667Y-87333333D01*
X232016667Y-86750000D01*
X232600000Y-86750000D01*
X232600000Y-87333333D01*
G37*
X232600000Y-87333333D02*
X232016667Y-87333333D01*
X232016667Y-86750000D01*
X232600000Y-86750000D01*
X232600000Y-87333333D01*
X226766667Y-89083333D02*
X227350000Y-89083333D01*
X227350000Y-89083333D02*
X227350000Y-89666667D01*
X227350000Y-89666667D02*
X226766667Y-89666667D01*
X226766667Y-89666667D02*
X226766667Y-89083333D01*
G36*
X227350000Y-89666667D02*
G01*
X226766667Y-89666667D01*
X226766667Y-89083333D01*
X227350000Y-89083333D01*
X227350000Y-89666667D01*
G37*
X227350000Y-89666667D02*
X226766667Y-89666667D01*
X226766667Y-89083333D01*
X227350000Y-89083333D01*
X227350000Y-89666667D01*
X226183333Y-88500000D02*
X226766667Y-88500000D01*
X226766667Y-88500000D02*
X226766667Y-89083333D01*
X226766667Y-89083333D02*
X226183333Y-89083333D01*
X226183333Y-89083333D02*
X226183333Y-88500000D01*
G36*
X226766667Y-89083333D02*
G01*
X226183333Y-89083333D01*
X226183333Y-88500000D01*
X226766667Y-88500000D01*
X226766667Y-89083333D01*
G37*
X226766667Y-89083333D02*
X226183333Y-89083333D01*
X226183333Y-88500000D01*
X226766667Y-88500000D01*
X226766667Y-89083333D01*
X229100000Y-86166667D02*
X229683333Y-86166667D01*
X229683333Y-86166667D02*
X229683333Y-86750000D01*
X229683333Y-86750000D02*
X229100000Y-86750000D01*
X229100000Y-86750000D02*
X229100000Y-86166667D01*
G36*
X229683333Y-86750000D02*
G01*
X229100000Y-86750000D01*
X229100000Y-86166667D01*
X229683333Y-86166667D01*
X229683333Y-86750000D01*
G37*
X229683333Y-86750000D02*
X229100000Y-86750000D01*
X229100000Y-86166667D01*
X229683333Y-86166667D01*
X229683333Y-86750000D01*
X230266667Y-87333333D02*
X230850000Y-87333333D01*
X230850000Y-87333333D02*
X230850000Y-87916667D01*
X230850000Y-87916667D02*
X230266667Y-87916667D01*
X230266667Y-87916667D02*
X230266667Y-87333333D01*
G36*
X230850000Y-87916667D02*
G01*
X230266667Y-87916667D01*
X230266667Y-87333333D01*
X230850000Y-87333333D01*
X230850000Y-87916667D01*
G37*
X230850000Y-87916667D02*
X230266667Y-87916667D01*
X230266667Y-87333333D01*
X230850000Y-87333333D01*
X230850000Y-87916667D01*
X225600000Y-85583333D02*
X226183333Y-85583333D01*
X226183333Y-85583333D02*
X226183333Y-86166667D01*
X226183333Y-86166667D02*
X225600000Y-86166667D01*
X225600000Y-86166667D02*
X225600000Y-85583333D01*
G36*
X226183333Y-86166667D02*
G01*
X225600000Y-86166667D01*
X225600000Y-85583333D01*
X226183333Y-85583333D01*
X226183333Y-86166667D01*
G37*
X226183333Y-86166667D02*
X225600000Y-86166667D01*
X225600000Y-85583333D01*
X226183333Y-85583333D01*
X226183333Y-86166667D01*
X227933333Y-87916667D02*
X228516667Y-87916667D01*
X228516667Y-87916667D02*
X228516667Y-88500000D01*
X228516667Y-88500000D02*
X227933333Y-88500000D01*
X227933333Y-88500000D02*
X227933333Y-87916667D01*
G36*
X228516667Y-88500000D02*
G01*
X227933333Y-88500000D01*
X227933333Y-87916667D01*
X228516667Y-87916667D01*
X228516667Y-88500000D01*
G37*
X228516667Y-88500000D02*
X227933333Y-88500000D01*
X227933333Y-87916667D01*
X228516667Y-87916667D01*
X228516667Y-88500000D01*
X232016667Y-89083333D02*
X232600000Y-89083333D01*
X232600000Y-89083333D02*
X232600000Y-89666667D01*
X232600000Y-89666667D02*
X232016667Y-89666667D01*
X232016667Y-89666667D02*
X232016667Y-89083333D01*
G36*
X232600000Y-89666667D02*
G01*
X232016667Y-89666667D01*
X232016667Y-89083333D01*
X232600000Y-89083333D01*
X232600000Y-89666667D01*
G37*
X232600000Y-89666667D02*
X232016667Y-89666667D01*
X232016667Y-89083333D01*
X232600000Y-89083333D01*
X232600000Y-89666667D01*
X230850000Y-83833333D02*
X231433333Y-83833333D01*
X231433333Y-83833333D02*
X231433333Y-84416667D01*
X231433333Y-84416667D02*
X230850000Y-84416667D01*
X230850000Y-84416667D02*
X230850000Y-83833333D01*
G36*
X231433333Y-84416667D02*
G01*
X230850000Y-84416667D01*
X230850000Y-83833333D01*
X231433333Y-83833333D01*
X231433333Y-84416667D01*
G37*
X231433333Y-84416667D02*
X230850000Y-84416667D01*
X230850000Y-83833333D01*
X231433333Y-83833333D01*
X231433333Y-84416667D01*
X225600000Y-89666667D02*
X226183333Y-89666667D01*
X226183333Y-89666667D02*
X226183333Y-90250000D01*
X226183333Y-90250000D02*
X225600000Y-90250000D01*
X225600000Y-90250000D02*
X225600000Y-89666667D01*
G36*
X226183333Y-90250000D02*
G01*
X225600000Y-90250000D01*
X225600000Y-89666667D01*
X226183333Y-89666667D01*
X226183333Y-90250000D01*
G37*
X226183333Y-90250000D02*
X225600000Y-90250000D01*
X225600000Y-89666667D01*
X226183333Y-89666667D01*
X226183333Y-90250000D01*
X225600000Y-84416667D02*
X226183333Y-84416667D01*
X226183333Y-84416667D02*
X226183333Y-85000000D01*
X226183333Y-85000000D02*
X225600000Y-85000000D01*
X225600000Y-85000000D02*
X225600000Y-84416667D01*
G36*
X226183333Y-85000000D02*
G01*
X225600000Y-85000000D01*
X225600000Y-84416667D01*
X226183333Y-84416667D01*
X226183333Y-85000000D01*
G37*
X226183333Y-85000000D02*
X225600000Y-85000000D01*
X225600000Y-84416667D01*
X226183333Y-84416667D01*
X226183333Y-85000000D01*
X227933333Y-85000000D02*
X228516667Y-85000000D01*
X228516667Y-85000000D02*
X228516667Y-85583333D01*
X228516667Y-85583333D02*
X227933333Y-85583333D01*
X227933333Y-85583333D02*
X227933333Y-85000000D01*
G36*
X228516667Y-85583333D02*
G01*
X227933333Y-85583333D01*
X227933333Y-85000000D01*
X228516667Y-85000000D01*
X228516667Y-85583333D01*
G37*
X228516667Y-85583333D02*
X227933333Y-85583333D01*
X227933333Y-85000000D01*
X228516667Y-85000000D01*
X228516667Y-85583333D01*
X229683333Y-89666667D02*
X230266667Y-89666667D01*
X230266667Y-89666667D02*
X230266667Y-90250000D01*
X230266667Y-90250000D02*
X229683333Y-90250000D01*
X229683333Y-90250000D02*
X229683333Y-89666667D01*
G36*
X230266667Y-90250000D02*
G01*
X229683333Y-90250000D01*
X229683333Y-89666667D01*
X230266667Y-89666667D01*
X230266667Y-90250000D01*
G37*
X230266667Y-90250000D02*
X229683333Y-90250000D01*
X229683333Y-89666667D01*
X230266667Y-89666667D01*
X230266667Y-90250000D01*
X229100000Y-83250000D02*
X229683333Y-83250000D01*
X229683333Y-83250000D02*
X229683333Y-83833333D01*
X229683333Y-83833333D02*
X229100000Y-83833333D01*
X229100000Y-83833333D02*
X229100000Y-83250000D01*
G36*
X229683333Y-83833333D02*
G01*
X229100000Y-83833333D01*
X229100000Y-83250000D01*
X229683333Y-83250000D01*
X229683333Y-83833333D01*
G37*
X229683333Y-83833333D02*
X229100000Y-83833333D01*
X229100000Y-83250000D01*
X229683333Y-83250000D01*
X229683333Y-83833333D01*
X231433333Y-86166667D02*
X232016667Y-86166667D01*
X232016667Y-86166667D02*
X232016667Y-86750000D01*
X232016667Y-86750000D02*
X231433333Y-86750000D01*
X231433333Y-86750000D02*
X231433333Y-86166667D01*
G36*
X232016667Y-86750000D02*
G01*
X231433333Y-86750000D01*
X231433333Y-86166667D01*
X232016667Y-86166667D01*
X232016667Y-86750000D01*
G37*
X232016667Y-86750000D02*
X231433333Y-86750000D01*
X231433333Y-86166667D01*
X232016667Y-86166667D01*
X232016667Y-86750000D01*
X232016667Y-84416667D02*
X232600000Y-84416667D01*
X232600000Y-84416667D02*
X232600000Y-85000000D01*
X232600000Y-85000000D02*
X232016667Y-85000000D01*
X232016667Y-85000000D02*
X232016667Y-84416667D01*
G36*
X232600000Y-85000000D02*
G01*
X232016667Y-85000000D01*
X232016667Y-84416667D01*
X232600000Y-84416667D01*
X232600000Y-85000000D01*
G37*
X232600000Y-85000000D02*
X232016667Y-85000000D01*
X232016667Y-84416667D01*
X232600000Y-84416667D01*
X232600000Y-85000000D01*
X225600000Y-86750000D02*
X226183333Y-86750000D01*
X226183333Y-86750000D02*
X226183333Y-87333333D01*
X226183333Y-87333333D02*
X225600000Y-87333333D01*
X225600000Y-87333333D02*
X225600000Y-86750000D01*
G36*
X226183333Y-87333333D02*
G01*
X225600000Y-87333333D01*
X225600000Y-86750000D01*
X226183333Y-86750000D01*
X226183333Y-87333333D01*
G37*
X226183333Y-87333333D02*
X225600000Y-87333333D01*
X225600000Y-86750000D01*
X226183333Y-86750000D01*
X226183333Y-87333333D01*
X232016667Y-85000000D02*
X232600000Y-85000000D01*
X232600000Y-85000000D02*
X232600000Y-85583333D01*
X232600000Y-85583333D02*
X232016667Y-85583333D01*
X232016667Y-85583333D02*
X232016667Y-85000000D01*
G36*
X232600000Y-85583333D02*
G01*
X232016667Y-85583333D01*
X232016667Y-85000000D01*
X232600000Y-85000000D01*
X232600000Y-85583333D01*
G37*
X232600000Y-85583333D02*
X232016667Y-85583333D01*
X232016667Y-85000000D01*
X232600000Y-85000000D01*
X232600000Y-85583333D01*
X229100000Y-87916667D02*
X229683333Y-87916667D01*
X229683333Y-87916667D02*
X229683333Y-88500000D01*
X229683333Y-88500000D02*
X229100000Y-88500000D01*
X229100000Y-88500000D02*
X229100000Y-87916667D01*
G36*
X229683333Y-88500000D02*
G01*
X229100000Y-88500000D01*
X229100000Y-87916667D01*
X229683333Y-87916667D01*
X229683333Y-88500000D01*
G37*
X229683333Y-88500000D02*
X229100000Y-88500000D01*
X229100000Y-87916667D01*
X229683333Y-87916667D01*
X229683333Y-88500000D01*
X231433333Y-84416667D02*
X232016667Y-84416667D01*
X232016667Y-84416667D02*
X232016667Y-85000000D01*
X232016667Y-85000000D02*
X231433333Y-85000000D01*
X231433333Y-85000000D02*
X231433333Y-84416667D01*
G36*
X232016667Y-85000000D02*
G01*
X231433333Y-85000000D01*
X231433333Y-84416667D01*
X232016667Y-84416667D01*
X232016667Y-85000000D01*
G37*
X232016667Y-85000000D02*
X231433333Y-85000000D01*
X231433333Y-84416667D01*
X232016667Y-84416667D01*
X232016667Y-85000000D01*
X231433333Y-87916667D02*
X232016667Y-87916667D01*
X232016667Y-87916667D02*
X232016667Y-88500000D01*
X232016667Y-88500000D02*
X231433333Y-88500000D01*
X231433333Y-88500000D02*
X231433333Y-87916667D01*
G36*
X232016667Y-88500000D02*
G01*
X231433333Y-88500000D01*
X231433333Y-87916667D01*
X232016667Y-87916667D01*
X232016667Y-88500000D01*
G37*
X232016667Y-88500000D02*
X231433333Y-88500000D01*
X231433333Y-87916667D01*
X232016667Y-87916667D01*
X232016667Y-88500000D01*
X229683333Y-83250000D02*
X230266667Y-83250000D01*
X230266667Y-83250000D02*
X230266667Y-83833333D01*
X230266667Y-83833333D02*
X229683333Y-83833333D01*
X229683333Y-83833333D02*
X229683333Y-83250000D01*
G36*
X230266667Y-83833333D02*
G01*
X229683333Y-83833333D01*
X229683333Y-83250000D01*
X230266667Y-83250000D01*
X230266667Y-83833333D01*
G37*
X230266667Y-83833333D02*
X229683333Y-83833333D01*
X229683333Y-83250000D01*
X230266667Y-83250000D01*
X230266667Y-83833333D01*
X225600000Y-83250000D02*
X226183333Y-83250000D01*
X226183333Y-83250000D02*
X226183333Y-83833333D01*
X226183333Y-83833333D02*
X225600000Y-83833333D01*
X225600000Y-83833333D02*
X225600000Y-83250000D01*
G36*
X226183333Y-83833333D02*
G01*
X225600000Y-83833333D01*
X225600000Y-83250000D01*
X226183333Y-83250000D01*
X226183333Y-83833333D01*
G37*
X226183333Y-83833333D02*
X225600000Y-83833333D01*
X225600000Y-83250000D01*
X226183333Y-83250000D01*
X226183333Y-83833333D01*
X226183333Y-87333333D02*
X226766667Y-87333333D01*
X226766667Y-87333333D02*
X226766667Y-87916667D01*
X226766667Y-87916667D02*
X226183333Y-87916667D01*
X226183333Y-87916667D02*
X226183333Y-87333333D01*
G36*
X226766667Y-87916667D02*
G01*
X226183333Y-87916667D01*
X226183333Y-87333333D01*
X226766667Y-87333333D01*
X226766667Y-87916667D01*
G37*
X226766667Y-87916667D02*
X226183333Y-87916667D01*
X226183333Y-87333333D01*
X226766667Y-87333333D01*
X226766667Y-87916667D01*
X231433333Y-83250000D02*
X232016667Y-83250000D01*
X232016667Y-83250000D02*
X232016667Y-83833333D01*
X232016667Y-83833333D02*
X231433333Y-83833333D01*
X231433333Y-83833333D02*
X231433333Y-83250000D01*
G36*
X232016667Y-83833333D02*
G01*
X231433333Y-83833333D01*
X231433333Y-83250000D01*
X232016667Y-83250000D01*
X232016667Y-83833333D01*
G37*
X232016667Y-83833333D02*
X231433333Y-83833333D01*
X231433333Y-83250000D01*
X232016667Y-83250000D01*
X232016667Y-83833333D01*
X226183333Y-89666667D02*
X226766667Y-89666667D01*
X226766667Y-89666667D02*
X226766667Y-90250000D01*
X226766667Y-90250000D02*
X226183333Y-90250000D01*
X226183333Y-90250000D02*
X226183333Y-89666667D01*
G36*
X226766667Y-90250000D02*
G01*
X226183333Y-90250000D01*
X226183333Y-89666667D01*
X226766667Y-89666667D01*
X226766667Y-90250000D01*
G37*
X226766667Y-90250000D02*
X226183333Y-90250000D01*
X226183333Y-89666667D01*
X226766667Y-89666667D01*
X226766667Y-90250000D01*
X229683333Y-83833333D02*
X230266667Y-83833333D01*
X230266667Y-83833333D02*
X230266667Y-84416667D01*
X230266667Y-84416667D02*
X229683333Y-84416667D01*
X229683333Y-84416667D02*
X229683333Y-83833333D01*
G36*
X230266667Y-84416667D02*
G01*
X229683333Y-84416667D01*
X229683333Y-83833333D01*
X230266667Y-83833333D01*
X230266667Y-84416667D01*
G37*
X230266667Y-84416667D02*
X229683333Y-84416667D01*
X229683333Y-83833333D01*
X230266667Y-83833333D01*
X230266667Y-84416667D01*
X227933333Y-83250000D02*
X228516667Y-83250000D01*
X228516667Y-83250000D02*
X228516667Y-83833333D01*
X228516667Y-83833333D02*
X227933333Y-83833333D01*
X227933333Y-83833333D02*
X227933333Y-83250000D01*
G36*
X228516667Y-83833333D02*
G01*
X227933333Y-83833333D01*
X227933333Y-83250000D01*
X228516667Y-83250000D01*
X228516667Y-83833333D01*
G37*
X228516667Y-83833333D02*
X227933333Y-83833333D01*
X227933333Y-83250000D01*
X228516667Y-83250000D01*
X228516667Y-83833333D01*
X225600000Y-89083333D02*
X226183333Y-89083333D01*
X226183333Y-89083333D02*
X226183333Y-89666667D01*
X226183333Y-89666667D02*
X225600000Y-89666667D01*
X225600000Y-89666667D02*
X225600000Y-89083333D01*
G36*
X226183333Y-89666667D02*
G01*
X225600000Y-89666667D01*
X225600000Y-89083333D01*
X226183333Y-89083333D01*
X226183333Y-89666667D01*
G37*
X226183333Y-89666667D02*
X225600000Y-89666667D01*
X225600000Y-89083333D01*
X226183333Y-89083333D01*
X226183333Y-89666667D01*
X227933333Y-89083333D02*
X228516667Y-89083333D01*
X228516667Y-89083333D02*
X228516667Y-89666667D01*
X228516667Y-89666667D02*
X227933333Y-89666667D01*
X227933333Y-89666667D02*
X227933333Y-89083333D01*
G36*
X228516667Y-89666667D02*
G01*
X227933333Y-89666667D01*
X227933333Y-89083333D01*
X228516667Y-89083333D01*
X228516667Y-89666667D01*
G37*
X228516667Y-89666667D02*
X227933333Y-89666667D01*
X227933333Y-89083333D01*
X228516667Y-89083333D01*
X228516667Y-89666667D01*
X227933333Y-85583333D02*
X228516667Y-85583333D01*
X228516667Y-85583333D02*
X228516667Y-86166667D01*
X228516667Y-86166667D02*
X227933333Y-86166667D01*
X227933333Y-86166667D02*
X227933333Y-85583333D01*
G36*
X228516667Y-86166667D02*
G01*
X227933333Y-86166667D01*
X227933333Y-85583333D01*
X228516667Y-85583333D01*
X228516667Y-86166667D01*
G37*
X228516667Y-86166667D02*
X227933333Y-86166667D01*
X227933333Y-85583333D01*
X228516667Y-85583333D01*
X228516667Y-86166667D01*
X228516667Y-83250000D02*
X229100000Y-83250000D01*
X229100000Y-83250000D02*
X229100000Y-83833333D01*
X229100000Y-83833333D02*
X228516667Y-83833333D01*
X228516667Y-83833333D02*
X228516667Y-83250000D01*
G36*
X229100000Y-83833333D02*
G01*
X228516667Y-83833333D01*
X228516667Y-83250000D01*
X229100000Y-83250000D01*
X229100000Y-83833333D01*
G37*
X229100000Y-83833333D02*
X228516667Y-83833333D01*
X228516667Y-83250000D01*
X229100000Y-83250000D01*
X229100000Y-83833333D01*
X232016667Y-86166667D02*
X232600000Y-86166667D01*
X232600000Y-86166667D02*
X232600000Y-86750000D01*
X232600000Y-86750000D02*
X232016667Y-86750000D01*
X232016667Y-86750000D02*
X232016667Y-86166667D01*
G36*
X232600000Y-86750000D02*
G01*
X232016667Y-86750000D01*
X232016667Y-86166667D01*
X232600000Y-86166667D01*
X232600000Y-86750000D01*
G37*
X232600000Y-86750000D02*
X232016667Y-86750000D01*
X232016667Y-86166667D01*
X232600000Y-86166667D01*
X232600000Y-86750000D01*
X229100000Y-89083333D02*
X229683333Y-89083333D01*
X229683333Y-89083333D02*
X229683333Y-89666667D01*
X229683333Y-89666667D02*
X229100000Y-89666667D01*
X229100000Y-89666667D02*
X229100000Y-89083333D01*
G36*
X229683333Y-89666667D02*
G01*
X229100000Y-89666667D01*
X229100000Y-89083333D01*
X229683333Y-89083333D01*
X229683333Y-89666667D01*
G37*
X229683333Y-89666667D02*
X229100000Y-89666667D01*
X229100000Y-89083333D01*
X229683333Y-89083333D01*
X229683333Y-89666667D01*
X229683333Y-87916667D02*
X230266667Y-87916667D01*
X230266667Y-87916667D02*
X230266667Y-88500000D01*
X230266667Y-88500000D02*
X229683333Y-88500000D01*
X229683333Y-88500000D02*
X229683333Y-87916667D01*
G36*
X230266667Y-88500000D02*
G01*
X229683333Y-88500000D01*
X229683333Y-87916667D01*
X230266667Y-87916667D01*
X230266667Y-88500000D01*
G37*
X230266667Y-88500000D02*
X229683333Y-88500000D01*
X229683333Y-87916667D01*
X230266667Y-87916667D01*
X230266667Y-88500000D01*
X231433333Y-85000000D02*
X232016667Y-85000000D01*
X232016667Y-85000000D02*
X232016667Y-85583333D01*
X232016667Y-85583333D02*
X231433333Y-85583333D01*
X231433333Y-85583333D02*
X231433333Y-85000000D01*
G36*
X232016667Y-85583333D02*
G01*
X231433333Y-85583333D01*
X231433333Y-85000000D01*
X232016667Y-85000000D01*
X232016667Y-85583333D01*
G37*
X232016667Y-85583333D02*
X231433333Y-85583333D01*
X231433333Y-85000000D01*
X232016667Y-85000000D01*
X232016667Y-85583333D01*
X227350000Y-87333333D02*
X227933333Y-87333333D01*
X227933333Y-87333333D02*
X227933333Y-87916667D01*
X227933333Y-87916667D02*
X227350000Y-87916667D01*
X227350000Y-87916667D02*
X227350000Y-87333333D01*
G36*
X227933333Y-87916667D02*
G01*
X227350000Y-87916667D01*
X227350000Y-87333333D01*
X227933333Y-87333333D01*
X227933333Y-87916667D01*
G37*
X227933333Y-87916667D02*
X227350000Y-87916667D01*
X227350000Y-87333333D01*
X227933333Y-87333333D01*
X227933333Y-87916667D01*
X226183333Y-83833333D02*
X226766667Y-83833333D01*
X226766667Y-83833333D02*
X226766667Y-84416667D01*
X226766667Y-84416667D02*
X226183333Y-84416667D01*
X226183333Y-84416667D02*
X226183333Y-83833333D01*
G36*
X226766667Y-84416667D02*
G01*
X226183333Y-84416667D01*
X226183333Y-83833333D01*
X226766667Y-83833333D01*
X226766667Y-84416667D01*
G37*
X226766667Y-84416667D02*
X226183333Y-84416667D01*
X226183333Y-83833333D01*
X226766667Y-83833333D01*
X226766667Y-84416667D01*
X227350000Y-83250000D02*
X227933333Y-83250000D01*
X227933333Y-83250000D02*
X227933333Y-83833333D01*
X227933333Y-83833333D02*
X227350000Y-83833333D01*
X227350000Y-83833333D02*
X227350000Y-83250000D01*
G36*
X227933333Y-83833333D02*
G01*
X227350000Y-83833333D01*
X227350000Y-83250000D01*
X227933333Y-83250000D01*
X227933333Y-83833333D01*
G37*
X227933333Y-83833333D02*
X227350000Y-83833333D01*
X227350000Y-83250000D01*
X227933333Y-83250000D01*
X227933333Y-83833333D01*
X228516667Y-86166667D02*
X229100000Y-86166667D01*
X229100000Y-86166667D02*
X229100000Y-86750000D01*
X229100000Y-86750000D02*
X228516667Y-86750000D01*
X228516667Y-86750000D02*
X228516667Y-86166667D01*
G36*
X229100000Y-86750000D02*
G01*
X228516667Y-86750000D01*
X228516667Y-86166667D01*
X229100000Y-86166667D01*
X229100000Y-86750000D01*
G37*
X229100000Y-86750000D02*
X228516667Y-86750000D01*
X228516667Y-86166667D01*
X229100000Y-86166667D01*
X229100000Y-86750000D01*
X229100000Y-89666667D02*
X229683333Y-89666667D01*
X229683333Y-89666667D02*
X229683333Y-90250000D01*
X229683333Y-90250000D02*
X229100000Y-90250000D01*
X229100000Y-90250000D02*
X229100000Y-89666667D01*
G36*
X229683333Y-90250000D02*
G01*
X229100000Y-90250000D01*
X229100000Y-89666667D01*
X229683333Y-89666667D01*
X229683333Y-90250000D01*
G37*
X229683333Y-90250000D02*
X229100000Y-90250000D01*
X229100000Y-89666667D01*
X229683333Y-89666667D01*
X229683333Y-90250000D01*
X226183333Y-87916667D02*
X226766667Y-87916667D01*
X226766667Y-87916667D02*
X226766667Y-88500000D01*
X226766667Y-88500000D02*
X226183333Y-88500000D01*
X226183333Y-88500000D02*
X226183333Y-87916667D01*
G36*
X226766667Y-88500000D02*
G01*
X226183333Y-88500000D01*
X226183333Y-87916667D01*
X226766667Y-87916667D01*
X226766667Y-88500000D01*
G37*
X226766667Y-88500000D02*
X226183333Y-88500000D01*
X226183333Y-87916667D01*
X226766667Y-87916667D01*
X226766667Y-88500000D01*
X232016667Y-83833333D02*
X232600000Y-83833333D01*
X232600000Y-83833333D02*
X232600000Y-84416667D01*
X232600000Y-84416667D02*
X232016667Y-84416667D01*
X232016667Y-84416667D02*
X232016667Y-83833333D01*
G36*
X232600000Y-84416667D02*
G01*
X232016667Y-84416667D01*
X232016667Y-83833333D01*
X232600000Y-83833333D01*
X232600000Y-84416667D01*
G37*
X232600000Y-84416667D02*
X232016667Y-84416667D01*
X232016667Y-83833333D01*
X232600000Y-83833333D01*
X232600000Y-84416667D01*
X228516667Y-89083333D02*
X229100000Y-89083333D01*
X229100000Y-89083333D02*
X229100000Y-89666667D01*
X229100000Y-89666667D02*
X228516667Y-89666667D01*
X228516667Y-89666667D02*
X228516667Y-89083333D01*
G36*
X229100000Y-89666667D02*
G01*
X228516667Y-89666667D01*
X228516667Y-89083333D01*
X229100000Y-89083333D01*
X229100000Y-89666667D01*
G37*
X229100000Y-89666667D02*
X228516667Y-89666667D01*
X228516667Y-89083333D01*
X229100000Y-89083333D01*
X229100000Y-89666667D01*
X226766667Y-83250000D02*
X227350000Y-83250000D01*
X227350000Y-83250000D02*
X227350000Y-83833333D01*
X227350000Y-83833333D02*
X226766667Y-83833333D01*
X226766667Y-83833333D02*
X226766667Y-83250000D01*
G36*
X227350000Y-83833333D02*
G01*
X226766667Y-83833333D01*
X226766667Y-83250000D01*
X227350000Y-83250000D01*
X227350000Y-83833333D01*
G37*
X227350000Y-83833333D02*
X226766667Y-83833333D01*
X226766667Y-83250000D01*
X227350000Y-83250000D01*
X227350000Y-83833333D01*
X229683333Y-86750000D02*
X230266667Y-86750000D01*
X230266667Y-86750000D02*
X230266667Y-87333333D01*
X230266667Y-87333333D02*
X229683333Y-87333333D01*
X229683333Y-87333333D02*
X229683333Y-86750000D01*
G36*
X230266667Y-87333333D02*
G01*
X229683333Y-87333333D01*
X229683333Y-86750000D01*
X230266667Y-86750000D01*
X230266667Y-87333333D01*
G37*
X230266667Y-87333333D02*
X229683333Y-87333333D01*
X229683333Y-86750000D01*
X230266667Y-86750000D01*
X230266667Y-87333333D01*
X232016667Y-87333333D02*
X232600000Y-87333333D01*
X232600000Y-87333333D02*
X232600000Y-87916667D01*
X232600000Y-87916667D02*
X232016667Y-87916667D01*
X232016667Y-87916667D02*
X232016667Y-87333333D01*
G36*
X232600000Y-87916667D02*
G01*
X232016667Y-87916667D01*
X232016667Y-87333333D01*
X232600000Y-87333333D01*
X232600000Y-87916667D01*
G37*
X232600000Y-87916667D02*
X232016667Y-87916667D01*
X232016667Y-87333333D01*
X232600000Y-87333333D01*
X232600000Y-87916667D01*
X226183333Y-85583333D02*
X226766667Y-85583333D01*
X226766667Y-85583333D02*
X226766667Y-86166667D01*
X226766667Y-86166667D02*
X226183333Y-86166667D01*
X226183333Y-86166667D02*
X226183333Y-85583333D01*
G36*
X226766667Y-86166667D02*
G01*
X226183333Y-86166667D01*
X226183333Y-85583333D01*
X226766667Y-85583333D01*
X226766667Y-86166667D01*
G37*
X226766667Y-86166667D02*
X226183333Y-86166667D01*
X226183333Y-85583333D01*
X226766667Y-85583333D01*
X226766667Y-86166667D01*
X226183333Y-89083333D02*
X226766667Y-89083333D01*
X226766667Y-89083333D02*
X226766667Y-89666667D01*
X226766667Y-89666667D02*
X226183333Y-89666667D01*
X226183333Y-89666667D02*
X226183333Y-89083333D01*
G36*
X226766667Y-89666667D02*
G01*
X226183333Y-89666667D01*
X226183333Y-89083333D01*
X226766667Y-89083333D01*
X226766667Y-89666667D01*
G37*
X226766667Y-89666667D02*
X226183333Y-89666667D01*
X226183333Y-89083333D01*
X226766667Y-89083333D01*
X226766667Y-89666667D01*
X231433333Y-87333333D02*
X232016667Y-87333333D01*
X232016667Y-87333333D02*
X232016667Y-87916667D01*
X232016667Y-87916667D02*
X231433333Y-87916667D01*
X231433333Y-87916667D02*
X231433333Y-87333333D01*
G36*
X232016667Y-87916667D02*
G01*
X231433333Y-87916667D01*
X231433333Y-87333333D01*
X232016667Y-87333333D01*
X232016667Y-87916667D01*
G37*
X232016667Y-87916667D02*
X231433333Y-87916667D01*
X231433333Y-87333333D01*
X232016667Y-87333333D01*
X232016667Y-87916667D01*
X227350000Y-86166667D02*
X227933333Y-86166667D01*
X227933333Y-86166667D02*
X227933333Y-86750000D01*
X227933333Y-86750000D02*
X227350000Y-86750000D01*
X227350000Y-86750000D02*
X227350000Y-86166667D01*
G36*
X227933333Y-86750000D02*
G01*
X227350000Y-86750000D01*
X227350000Y-86166667D01*
X227933333Y-86166667D01*
X227933333Y-86750000D01*
G37*
X227933333Y-86750000D02*
X227350000Y-86750000D01*
X227350000Y-86166667D01*
X227933333Y-86166667D01*
X227933333Y-86750000D01*
X232016667Y-88500000D02*
X232600000Y-88500000D01*
X232600000Y-88500000D02*
X232600000Y-89083333D01*
X232600000Y-89083333D02*
X232016667Y-89083333D01*
X232016667Y-89083333D02*
X232016667Y-88500000D01*
G36*
X232600000Y-89083333D02*
G01*
X232016667Y-89083333D01*
X232016667Y-88500000D01*
X232600000Y-88500000D01*
X232600000Y-89083333D01*
G37*
X232600000Y-89083333D02*
X232016667Y-89083333D01*
X232016667Y-88500000D01*
X232600000Y-88500000D01*
X232600000Y-89083333D01*
X231433333Y-85583333D02*
X232016667Y-85583333D01*
X232016667Y-85583333D02*
X232016667Y-86166667D01*
X232016667Y-86166667D02*
X231433333Y-86166667D01*
X231433333Y-86166667D02*
X231433333Y-85583333D01*
G36*
X232016667Y-86166667D02*
G01*
X231433333Y-86166667D01*
X231433333Y-85583333D01*
X232016667Y-85583333D01*
X232016667Y-86166667D01*
G37*
X232016667Y-86166667D02*
X231433333Y-86166667D01*
X231433333Y-85583333D01*
X232016667Y-85583333D01*
X232016667Y-86166667D01*
X231433333Y-89666667D02*
X232016667Y-89666667D01*
X232016667Y-89666667D02*
X232016667Y-90250000D01*
X232016667Y-90250000D02*
X231433333Y-90250000D01*
X231433333Y-90250000D02*
X231433333Y-89666667D01*
G36*
X232016667Y-90250000D02*
G01*
X231433333Y-90250000D01*
X231433333Y-89666667D01*
X232016667Y-89666667D01*
X232016667Y-90250000D01*
G37*
X232016667Y-90250000D02*
X231433333Y-90250000D01*
X231433333Y-89666667D01*
X232016667Y-89666667D01*
X232016667Y-90250000D01*
X229100000Y-83833333D02*
X229683333Y-83833333D01*
X229683333Y-83833333D02*
X229683333Y-84416667D01*
X229683333Y-84416667D02*
X229100000Y-84416667D01*
X229100000Y-84416667D02*
X229100000Y-83833333D01*
G36*
X229683333Y-84416667D02*
G01*
X229100000Y-84416667D01*
X229100000Y-83833333D01*
X229683333Y-83833333D01*
X229683333Y-84416667D01*
G37*
X229683333Y-84416667D02*
X229100000Y-84416667D01*
X229100000Y-83833333D01*
X229683333Y-83833333D01*
X229683333Y-84416667D01*
X227933333Y-83833333D02*
X228516667Y-83833333D01*
X228516667Y-83833333D02*
X228516667Y-84416667D01*
X228516667Y-84416667D02*
X227933333Y-84416667D01*
X227933333Y-84416667D02*
X227933333Y-83833333D01*
G36*
X228516667Y-84416667D02*
G01*
X227933333Y-84416667D01*
X227933333Y-83833333D01*
X228516667Y-83833333D01*
X228516667Y-84416667D01*
G37*
X228516667Y-84416667D02*
X227933333Y-84416667D01*
X227933333Y-83833333D01*
X228516667Y-83833333D01*
X228516667Y-84416667D01*
X230266667Y-89666667D02*
X230850000Y-89666667D01*
X230850000Y-89666667D02*
X230850000Y-90250000D01*
X230850000Y-90250000D02*
X230266667Y-90250000D01*
X230266667Y-90250000D02*
X230266667Y-89666667D01*
G36*
X230850000Y-90250000D02*
G01*
X230266667Y-90250000D01*
X230266667Y-89666667D01*
X230850000Y-89666667D01*
X230850000Y-90250000D01*
G37*
X230850000Y-90250000D02*
X230266667Y-90250000D01*
X230266667Y-89666667D01*
X230850000Y-89666667D01*
X230850000Y-90250000D01*
X231433333Y-86750000D02*
X232016667Y-86750000D01*
X232016667Y-86750000D02*
X232016667Y-87333333D01*
X232016667Y-87333333D02*
X231433333Y-87333333D01*
X231433333Y-87333333D02*
X231433333Y-86750000D01*
G36*
X232016667Y-87333333D02*
G01*
X231433333Y-87333333D01*
X231433333Y-86750000D01*
X232016667Y-86750000D01*
X232016667Y-87333333D01*
G37*
X232016667Y-87333333D02*
X231433333Y-87333333D01*
X231433333Y-86750000D01*
X232016667Y-86750000D01*
X232016667Y-87333333D01*
X226183333Y-84416667D02*
X226766667Y-84416667D01*
X226766667Y-84416667D02*
X226766667Y-85000000D01*
X226766667Y-85000000D02*
X226183333Y-85000000D01*
X226183333Y-85000000D02*
X226183333Y-84416667D01*
G36*
X226766667Y-85000000D02*
G01*
X226183333Y-85000000D01*
X226183333Y-84416667D01*
X226766667Y-84416667D01*
X226766667Y-85000000D01*
G37*
X226766667Y-85000000D02*
X226183333Y-85000000D01*
X226183333Y-84416667D01*
X226766667Y-84416667D01*
X226766667Y-85000000D01*
X231433333Y-89083333D02*
X232016667Y-89083333D01*
X232016667Y-89083333D02*
X232016667Y-89666667D01*
X232016667Y-89666667D02*
X231433333Y-89666667D01*
X231433333Y-89666667D02*
X231433333Y-89083333D01*
G36*
X232016667Y-89666667D02*
G01*
X231433333Y-89666667D01*
X231433333Y-89083333D01*
X232016667Y-89083333D01*
X232016667Y-89666667D01*
G37*
X232016667Y-89666667D02*
X231433333Y-89666667D01*
X231433333Y-89083333D01*
X232016667Y-89083333D01*
X232016667Y-89666667D01*
X225600000Y-88500000D02*
X226183333Y-88500000D01*
X226183333Y-88500000D02*
X226183333Y-89083333D01*
X226183333Y-89083333D02*
X225600000Y-89083333D01*
X225600000Y-89083333D02*
X225600000Y-88500000D01*
G36*
X226183333Y-89083333D02*
G01*
X225600000Y-89083333D01*
X225600000Y-88500000D01*
X226183333Y-88500000D01*
X226183333Y-89083333D01*
G37*
X226183333Y-89083333D02*
X225600000Y-89083333D01*
X225600000Y-88500000D01*
X226183333Y-88500000D01*
X226183333Y-89083333D01*
X229583333Y-74733333D02*
X230166667Y-74733333D01*
X230166667Y-74733333D02*
X230166667Y-75316667D01*
X230166667Y-75316667D02*
X229583333Y-75316667D01*
X229583333Y-75316667D02*
X229583333Y-74733333D01*
G36*
X230166667Y-75316667D02*
G01*
X229583333Y-75316667D01*
X229583333Y-74733333D01*
X230166667Y-74733333D01*
X230166667Y-75316667D01*
G37*
X230166667Y-75316667D02*
X229583333Y-75316667D01*
X229583333Y-74733333D01*
X230166667Y-74733333D01*
X230166667Y-75316667D01*
X226083333Y-74150000D02*
X226666667Y-74150000D01*
X226666667Y-74150000D02*
X226666667Y-74733333D01*
X226666667Y-74733333D02*
X226083333Y-74733333D01*
X226083333Y-74733333D02*
X226083333Y-74150000D01*
G36*
X226666667Y-74733333D02*
G01*
X226083333Y-74733333D01*
X226083333Y-74150000D01*
X226666667Y-74150000D01*
X226666667Y-74733333D01*
G37*
X226666667Y-74733333D02*
X226083333Y-74733333D01*
X226083333Y-74150000D01*
X226666667Y-74150000D01*
X226666667Y-74733333D01*
X227833333Y-71233333D02*
X228416667Y-71233333D01*
X228416667Y-71233333D02*
X228416667Y-71816667D01*
X228416667Y-71816667D02*
X227833333Y-71816667D01*
X227833333Y-71816667D02*
X227833333Y-71233333D01*
G36*
X228416667Y-71816667D02*
G01*
X227833333Y-71816667D01*
X227833333Y-71233333D01*
X228416667Y-71233333D01*
X228416667Y-71816667D01*
G37*
X228416667Y-71816667D02*
X227833333Y-71816667D01*
X227833333Y-71233333D01*
X228416667Y-71233333D01*
X228416667Y-71816667D01*
X231916667Y-70650000D02*
X232500000Y-70650000D01*
X232500000Y-70650000D02*
X232500000Y-71233333D01*
X232500000Y-71233333D02*
X231916667Y-71233333D01*
X231916667Y-71233333D02*
X231916667Y-70650000D01*
G36*
X232500000Y-71233333D02*
G01*
X231916667Y-71233333D01*
X231916667Y-70650000D01*
X232500000Y-70650000D01*
X232500000Y-71233333D01*
G37*
X232500000Y-71233333D02*
X231916667Y-71233333D01*
X231916667Y-70650000D01*
X232500000Y-70650000D01*
X232500000Y-71233333D01*
X225500000Y-71816667D02*
X226083333Y-71816667D01*
X226083333Y-71816667D02*
X226083333Y-72400000D01*
X226083333Y-72400000D02*
X225500000Y-72400000D01*
X225500000Y-72400000D02*
X225500000Y-71816667D01*
G36*
X226083333Y-72400000D02*
G01*
X225500000Y-72400000D01*
X225500000Y-71816667D01*
X226083333Y-71816667D01*
X226083333Y-72400000D01*
G37*
X226083333Y-72400000D02*
X225500000Y-72400000D01*
X225500000Y-71816667D01*
X226083333Y-71816667D01*
X226083333Y-72400000D01*
X225500000Y-71233333D02*
X226083333Y-71233333D01*
X226083333Y-71233333D02*
X226083333Y-71816667D01*
X226083333Y-71816667D02*
X225500000Y-71816667D01*
X225500000Y-71816667D02*
X225500000Y-71233333D01*
G36*
X226083333Y-71816667D02*
G01*
X225500000Y-71816667D01*
X225500000Y-71233333D01*
X226083333Y-71233333D01*
X226083333Y-71816667D01*
G37*
X226083333Y-71816667D02*
X225500000Y-71816667D01*
X225500000Y-71233333D01*
X226083333Y-71233333D01*
X226083333Y-71816667D01*
X231916667Y-76483333D02*
X232500000Y-76483333D01*
X232500000Y-76483333D02*
X232500000Y-77066667D01*
X232500000Y-77066667D02*
X231916667Y-77066667D01*
X231916667Y-77066667D02*
X231916667Y-76483333D01*
G36*
X232500000Y-77066667D02*
G01*
X231916667Y-77066667D01*
X231916667Y-76483333D01*
X232500000Y-76483333D01*
X232500000Y-77066667D01*
G37*
X232500000Y-77066667D02*
X231916667Y-77066667D01*
X231916667Y-76483333D01*
X232500000Y-76483333D01*
X232500000Y-77066667D01*
X231916667Y-74150000D02*
X232500000Y-74150000D01*
X232500000Y-74150000D02*
X232500000Y-74733333D01*
X232500000Y-74733333D02*
X231916667Y-74733333D01*
X231916667Y-74733333D02*
X231916667Y-74150000D01*
G36*
X232500000Y-74733333D02*
G01*
X231916667Y-74733333D01*
X231916667Y-74150000D01*
X232500000Y-74150000D01*
X232500000Y-74733333D01*
G37*
X232500000Y-74733333D02*
X231916667Y-74733333D01*
X231916667Y-74150000D01*
X232500000Y-74150000D01*
X232500000Y-74733333D01*
X231916667Y-71233333D02*
X232500000Y-71233333D01*
X232500000Y-71233333D02*
X232500000Y-71816667D01*
X232500000Y-71816667D02*
X231916667Y-71816667D01*
X231916667Y-71816667D02*
X231916667Y-71233333D01*
G36*
X232500000Y-71816667D02*
G01*
X231916667Y-71816667D01*
X231916667Y-71233333D01*
X232500000Y-71233333D01*
X232500000Y-71816667D01*
G37*
X232500000Y-71816667D02*
X231916667Y-71816667D01*
X231916667Y-71233333D01*
X232500000Y-71233333D01*
X232500000Y-71816667D01*
X226083333Y-75900000D02*
X226666667Y-75900000D01*
X226666667Y-75900000D02*
X226666667Y-76483333D01*
X226666667Y-76483333D02*
X226083333Y-76483333D01*
X226083333Y-76483333D02*
X226083333Y-75900000D01*
G36*
X226666667Y-76483333D02*
G01*
X226083333Y-76483333D01*
X226083333Y-75900000D01*
X226666667Y-75900000D01*
X226666667Y-76483333D01*
G37*
X226666667Y-76483333D02*
X226083333Y-76483333D01*
X226083333Y-75900000D01*
X226666667Y-75900000D01*
X226666667Y-76483333D01*
X231916667Y-74733333D02*
X232500000Y-74733333D01*
X232500000Y-74733333D02*
X232500000Y-75316667D01*
X232500000Y-75316667D02*
X231916667Y-75316667D01*
X231916667Y-75316667D02*
X231916667Y-74733333D01*
G36*
X232500000Y-75316667D02*
G01*
X231916667Y-75316667D01*
X231916667Y-74733333D01*
X232500000Y-74733333D01*
X232500000Y-75316667D01*
G37*
X232500000Y-75316667D02*
X231916667Y-75316667D01*
X231916667Y-74733333D01*
X232500000Y-74733333D01*
X232500000Y-75316667D01*
X231333333Y-77066667D02*
X231916667Y-77066667D01*
X231916667Y-77066667D02*
X231916667Y-77650000D01*
X231916667Y-77650000D02*
X231333333Y-77650000D01*
X231333333Y-77650000D02*
X231333333Y-77066667D01*
G36*
X231916667Y-77650000D02*
G01*
X231333333Y-77650000D01*
X231333333Y-77066667D01*
X231916667Y-77066667D01*
X231916667Y-77650000D01*
G37*
X231916667Y-77650000D02*
X231333333Y-77650000D01*
X231333333Y-77066667D01*
X231916667Y-77066667D01*
X231916667Y-77650000D01*
X226083333Y-75316667D02*
X226666667Y-75316667D01*
X226666667Y-75316667D02*
X226666667Y-75900000D01*
X226666667Y-75900000D02*
X226083333Y-75900000D01*
X226083333Y-75900000D02*
X226083333Y-75316667D01*
G36*
X226666667Y-75900000D02*
G01*
X226083333Y-75900000D01*
X226083333Y-75316667D01*
X226666667Y-75316667D01*
X226666667Y-75900000D01*
G37*
X226666667Y-75900000D02*
X226083333Y-75900000D01*
X226083333Y-75316667D01*
X226666667Y-75316667D01*
X226666667Y-75900000D01*
X227250000Y-76483333D02*
X227833333Y-76483333D01*
X227833333Y-76483333D02*
X227833333Y-77066667D01*
X227833333Y-77066667D02*
X227250000Y-77066667D01*
X227250000Y-77066667D02*
X227250000Y-76483333D01*
G36*
X227833333Y-77066667D02*
G01*
X227250000Y-77066667D01*
X227250000Y-76483333D01*
X227833333Y-76483333D01*
X227833333Y-77066667D01*
G37*
X227833333Y-77066667D02*
X227250000Y-77066667D01*
X227250000Y-76483333D01*
X227833333Y-76483333D01*
X227833333Y-77066667D01*
X229000000Y-76483333D02*
X229583333Y-76483333D01*
X229583333Y-76483333D02*
X229583333Y-77066667D01*
X229583333Y-77066667D02*
X229000000Y-77066667D01*
X229000000Y-77066667D02*
X229000000Y-76483333D01*
G36*
X229583333Y-77066667D02*
G01*
X229000000Y-77066667D01*
X229000000Y-76483333D01*
X229583333Y-76483333D01*
X229583333Y-77066667D01*
G37*
X229583333Y-77066667D02*
X229000000Y-77066667D01*
X229000000Y-76483333D01*
X229583333Y-76483333D01*
X229583333Y-77066667D01*
X231333333Y-74150000D02*
X231916667Y-74150000D01*
X231916667Y-74150000D02*
X231916667Y-74733333D01*
X231916667Y-74733333D02*
X231333333Y-74733333D01*
X231333333Y-74733333D02*
X231333333Y-74150000D01*
G36*
X231916667Y-74733333D02*
G01*
X231333333Y-74733333D01*
X231333333Y-74150000D01*
X231916667Y-74150000D01*
X231916667Y-74733333D01*
G37*
X231916667Y-74733333D02*
X231333333Y-74733333D01*
X231333333Y-74150000D01*
X231916667Y-74150000D01*
X231916667Y-74733333D01*
X225500000Y-72983333D02*
X226083333Y-72983333D01*
X226083333Y-72983333D02*
X226083333Y-73566667D01*
X226083333Y-73566667D02*
X225500000Y-73566667D01*
X225500000Y-73566667D02*
X225500000Y-72983333D01*
G36*
X226083333Y-73566667D02*
G01*
X225500000Y-73566667D01*
X225500000Y-72983333D01*
X226083333Y-72983333D01*
X226083333Y-73566667D01*
G37*
X226083333Y-73566667D02*
X225500000Y-73566667D01*
X225500000Y-72983333D01*
X226083333Y-72983333D01*
X226083333Y-73566667D01*
X227250000Y-72983333D02*
X227833333Y-72983333D01*
X227833333Y-72983333D02*
X227833333Y-73566667D01*
X227833333Y-73566667D02*
X227250000Y-73566667D01*
X227250000Y-73566667D02*
X227250000Y-72983333D01*
G36*
X227833333Y-73566667D02*
G01*
X227250000Y-73566667D01*
X227250000Y-72983333D01*
X227833333Y-72983333D01*
X227833333Y-73566667D01*
G37*
X227833333Y-73566667D02*
X227250000Y-73566667D01*
X227250000Y-72983333D01*
X227833333Y-72983333D01*
X227833333Y-73566667D01*
X225500000Y-74150000D02*
X226083333Y-74150000D01*
X226083333Y-74150000D02*
X226083333Y-74733333D01*
X226083333Y-74733333D02*
X225500000Y-74733333D01*
X225500000Y-74733333D02*
X225500000Y-74150000D01*
G36*
X226083333Y-74733333D02*
G01*
X225500000Y-74733333D01*
X225500000Y-74150000D01*
X226083333Y-74150000D01*
X226083333Y-74733333D01*
G37*
X226083333Y-74733333D02*
X225500000Y-74733333D01*
X225500000Y-74150000D01*
X226083333Y-74150000D01*
X226083333Y-74733333D01*
X230166667Y-70650000D02*
X230750000Y-70650000D01*
X230750000Y-70650000D02*
X230750000Y-71233333D01*
X230750000Y-71233333D02*
X230166667Y-71233333D01*
X230166667Y-71233333D02*
X230166667Y-70650000D01*
G36*
X230750000Y-71233333D02*
G01*
X230166667Y-71233333D01*
X230166667Y-70650000D01*
X230750000Y-70650000D01*
X230750000Y-71233333D01*
G37*
X230750000Y-71233333D02*
X230166667Y-71233333D01*
X230166667Y-70650000D01*
X230750000Y-70650000D01*
X230750000Y-71233333D01*
X226083333Y-71233333D02*
X226666667Y-71233333D01*
X226666667Y-71233333D02*
X226666667Y-71816667D01*
X226666667Y-71816667D02*
X226083333Y-71816667D01*
X226083333Y-71816667D02*
X226083333Y-71233333D01*
G36*
X226666667Y-71816667D02*
G01*
X226083333Y-71816667D01*
X226083333Y-71233333D01*
X226666667Y-71233333D01*
X226666667Y-71816667D01*
G37*
X226666667Y-71816667D02*
X226083333Y-71816667D01*
X226083333Y-71233333D01*
X226666667Y-71233333D01*
X226666667Y-71816667D01*
X226083333Y-72983333D02*
X226666667Y-72983333D01*
X226666667Y-72983333D02*
X226666667Y-73566667D01*
X226666667Y-73566667D02*
X226083333Y-73566667D01*
X226083333Y-73566667D02*
X226083333Y-72983333D01*
G36*
X226666667Y-73566667D02*
G01*
X226083333Y-73566667D01*
X226083333Y-72983333D01*
X226666667Y-72983333D01*
X226666667Y-73566667D01*
G37*
X226666667Y-73566667D02*
X226083333Y-73566667D01*
X226083333Y-72983333D01*
X226666667Y-72983333D01*
X226666667Y-73566667D01*
X226666667Y-77066667D02*
X227250000Y-77066667D01*
X227250000Y-77066667D02*
X227250000Y-77650000D01*
X227250000Y-77650000D02*
X226666667Y-77650000D01*
X226666667Y-77650000D02*
X226666667Y-77066667D01*
G36*
X227250000Y-77650000D02*
G01*
X226666667Y-77650000D01*
X226666667Y-77066667D01*
X227250000Y-77066667D01*
X227250000Y-77650000D01*
G37*
X227250000Y-77650000D02*
X226666667Y-77650000D01*
X226666667Y-77066667D01*
X227250000Y-77066667D01*
X227250000Y-77650000D01*
X230166667Y-71233333D02*
X230750000Y-71233333D01*
X230750000Y-71233333D02*
X230750000Y-71816667D01*
X230750000Y-71816667D02*
X230166667Y-71816667D01*
X230166667Y-71816667D02*
X230166667Y-71233333D01*
G36*
X230750000Y-71816667D02*
G01*
X230166667Y-71816667D01*
X230166667Y-71233333D01*
X230750000Y-71233333D01*
X230750000Y-71816667D01*
G37*
X230750000Y-71816667D02*
X230166667Y-71816667D01*
X230166667Y-71233333D01*
X230750000Y-71233333D01*
X230750000Y-71816667D01*
X226083333Y-72400000D02*
X226666667Y-72400000D01*
X226666667Y-72400000D02*
X226666667Y-72983333D01*
X226666667Y-72983333D02*
X226083333Y-72983333D01*
X226083333Y-72983333D02*
X226083333Y-72400000D01*
G36*
X226666667Y-72983333D02*
G01*
X226083333Y-72983333D01*
X226083333Y-72400000D01*
X226666667Y-72400000D01*
X226666667Y-72983333D01*
G37*
X226666667Y-72983333D02*
X226083333Y-72983333D01*
X226083333Y-72400000D01*
X226666667Y-72400000D01*
X226666667Y-72983333D01*
X231333333Y-76483333D02*
X231916667Y-76483333D01*
X231916667Y-76483333D02*
X231916667Y-77066667D01*
X231916667Y-77066667D02*
X231333333Y-77066667D01*
X231333333Y-77066667D02*
X231333333Y-76483333D01*
G36*
X231916667Y-77066667D02*
G01*
X231333333Y-77066667D01*
X231333333Y-76483333D01*
X231916667Y-76483333D01*
X231916667Y-77066667D01*
G37*
X231916667Y-77066667D02*
X231333333Y-77066667D01*
X231333333Y-76483333D01*
X231916667Y-76483333D01*
X231916667Y-77066667D01*
X229000000Y-77066667D02*
X229583333Y-77066667D01*
X229583333Y-77066667D02*
X229583333Y-77650000D01*
X229583333Y-77650000D02*
X229000000Y-77650000D01*
X229000000Y-77650000D02*
X229000000Y-77066667D01*
G36*
X229583333Y-77650000D02*
G01*
X229000000Y-77650000D01*
X229000000Y-77066667D01*
X229583333Y-77066667D01*
X229583333Y-77650000D01*
G37*
X229583333Y-77650000D02*
X229000000Y-77650000D01*
X229000000Y-77066667D01*
X229583333Y-77066667D01*
X229583333Y-77650000D01*
X231333333Y-72983333D02*
X231916667Y-72983333D01*
X231916667Y-72983333D02*
X231916667Y-73566667D01*
X231916667Y-73566667D02*
X231333333Y-73566667D01*
X231333333Y-73566667D02*
X231333333Y-72983333D01*
G36*
X231916667Y-73566667D02*
G01*
X231333333Y-73566667D01*
X231333333Y-72983333D01*
X231916667Y-72983333D01*
X231916667Y-73566667D01*
G37*
X231916667Y-73566667D02*
X231333333Y-73566667D01*
X231333333Y-72983333D01*
X231916667Y-72983333D01*
X231916667Y-73566667D01*
X226666667Y-76483333D02*
X227250000Y-76483333D01*
X227250000Y-76483333D02*
X227250000Y-77066667D01*
X227250000Y-77066667D02*
X226666667Y-77066667D01*
X226666667Y-77066667D02*
X226666667Y-76483333D01*
G36*
X227250000Y-77066667D02*
G01*
X226666667Y-77066667D01*
X226666667Y-76483333D01*
X227250000Y-76483333D01*
X227250000Y-77066667D01*
G37*
X227250000Y-77066667D02*
X226666667Y-77066667D01*
X226666667Y-76483333D01*
X227250000Y-76483333D01*
X227250000Y-77066667D01*
X226666667Y-70650000D02*
X227250000Y-70650000D01*
X227250000Y-70650000D02*
X227250000Y-71233333D01*
X227250000Y-71233333D02*
X226666667Y-71233333D01*
X226666667Y-71233333D02*
X226666667Y-70650000D01*
G36*
X227250000Y-71233333D02*
G01*
X226666667Y-71233333D01*
X226666667Y-70650000D01*
X227250000Y-70650000D01*
X227250000Y-71233333D01*
G37*
X227250000Y-71233333D02*
X226666667Y-71233333D01*
X226666667Y-70650000D01*
X227250000Y-70650000D01*
X227250000Y-71233333D01*
X230166667Y-77066667D02*
X230750000Y-77066667D01*
X230750000Y-77066667D02*
X230750000Y-77650000D01*
X230750000Y-77650000D02*
X230166667Y-77650000D01*
X230166667Y-77650000D02*
X230166667Y-77066667D01*
G36*
X230750000Y-77650000D02*
G01*
X230166667Y-77650000D01*
X230166667Y-77066667D01*
X230750000Y-77066667D01*
X230750000Y-77650000D01*
G37*
X230750000Y-77650000D02*
X230166667Y-77650000D01*
X230166667Y-77066667D01*
X230750000Y-77066667D01*
X230750000Y-77650000D01*
X231916667Y-72983333D02*
X232500000Y-72983333D01*
X232500000Y-72983333D02*
X232500000Y-73566667D01*
X232500000Y-73566667D02*
X231916667Y-73566667D01*
X231916667Y-73566667D02*
X231916667Y-72983333D01*
G36*
X232500000Y-73566667D02*
G01*
X231916667Y-73566667D01*
X231916667Y-72983333D01*
X232500000Y-72983333D01*
X232500000Y-73566667D01*
G37*
X232500000Y-73566667D02*
X231916667Y-73566667D01*
X231916667Y-72983333D01*
X232500000Y-72983333D01*
X232500000Y-73566667D01*
X226083333Y-70650000D02*
X226666667Y-70650000D01*
X226666667Y-70650000D02*
X226666667Y-71233333D01*
X226666667Y-71233333D02*
X226083333Y-71233333D01*
X226083333Y-71233333D02*
X226083333Y-70650000D01*
G36*
X226666667Y-71233333D02*
G01*
X226083333Y-71233333D01*
X226083333Y-70650000D01*
X226666667Y-70650000D01*
X226666667Y-71233333D01*
G37*
X226666667Y-71233333D02*
X226083333Y-71233333D01*
X226083333Y-70650000D01*
X226666667Y-70650000D01*
X226666667Y-71233333D01*
X229583333Y-76483333D02*
X230166667Y-76483333D01*
X230166667Y-76483333D02*
X230166667Y-77066667D01*
X230166667Y-77066667D02*
X229583333Y-77066667D01*
X229583333Y-77066667D02*
X229583333Y-76483333D01*
G36*
X230166667Y-77066667D02*
G01*
X229583333Y-77066667D01*
X229583333Y-76483333D01*
X230166667Y-76483333D01*
X230166667Y-77066667D01*
G37*
X230166667Y-77066667D02*
X229583333Y-77066667D01*
X229583333Y-76483333D01*
X230166667Y-76483333D01*
X230166667Y-77066667D01*
X231333333Y-71816667D02*
X231916667Y-71816667D01*
X231916667Y-71816667D02*
X231916667Y-72400000D01*
X231916667Y-72400000D02*
X231333333Y-72400000D01*
X231333333Y-72400000D02*
X231333333Y-71816667D01*
G36*
X231916667Y-72400000D02*
G01*
X231333333Y-72400000D01*
X231333333Y-71816667D01*
X231916667Y-71816667D01*
X231916667Y-72400000D01*
G37*
X231916667Y-72400000D02*
X231333333Y-72400000D01*
X231333333Y-71816667D01*
X231916667Y-71816667D01*
X231916667Y-72400000D01*
X227833333Y-72400000D02*
X228416667Y-72400000D01*
X228416667Y-72400000D02*
X228416667Y-72983333D01*
X228416667Y-72983333D02*
X227833333Y-72983333D01*
X227833333Y-72983333D02*
X227833333Y-72400000D01*
G36*
X228416667Y-72983333D02*
G01*
X227833333Y-72983333D01*
X227833333Y-72400000D01*
X228416667Y-72400000D01*
X228416667Y-72983333D01*
G37*
X228416667Y-72983333D02*
X227833333Y-72983333D01*
X227833333Y-72400000D01*
X228416667Y-72400000D01*
X228416667Y-72983333D01*
X231333333Y-74733333D02*
X231916667Y-74733333D01*
X231916667Y-74733333D02*
X231916667Y-75316667D01*
X231916667Y-75316667D02*
X231333333Y-75316667D01*
X231333333Y-75316667D02*
X231333333Y-74733333D01*
G36*
X231916667Y-75316667D02*
G01*
X231333333Y-75316667D01*
X231333333Y-74733333D01*
X231916667Y-74733333D01*
X231916667Y-75316667D01*
G37*
X231916667Y-75316667D02*
X231333333Y-75316667D01*
X231333333Y-74733333D01*
X231916667Y-74733333D01*
X231916667Y-75316667D01*
X230166667Y-76483333D02*
X230750000Y-76483333D01*
X230750000Y-76483333D02*
X230750000Y-77066667D01*
X230750000Y-77066667D02*
X230166667Y-77066667D01*
X230166667Y-77066667D02*
X230166667Y-76483333D01*
G36*
X230750000Y-77066667D02*
G01*
X230166667Y-77066667D01*
X230166667Y-76483333D01*
X230750000Y-76483333D01*
X230750000Y-77066667D01*
G37*
X230750000Y-77066667D02*
X230166667Y-77066667D01*
X230166667Y-76483333D01*
X230750000Y-76483333D01*
X230750000Y-77066667D01*
X231916667Y-71816667D02*
X232500000Y-71816667D01*
X232500000Y-71816667D02*
X232500000Y-72400000D01*
X232500000Y-72400000D02*
X231916667Y-72400000D01*
X231916667Y-72400000D02*
X231916667Y-71816667D01*
G36*
X232500000Y-72400000D02*
G01*
X231916667Y-72400000D01*
X231916667Y-71816667D01*
X232500000Y-71816667D01*
X232500000Y-72400000D01*
G37*
X232500000Y-72400000D02*
X231916667Y-72400000D01*
X231916667Y-71816667D01*
X232500000Y-71816667D01*
X232500000Y-72400000D01*
X225500000Y-72400000D02*
X226083333Y-72400000D01*
X226083333Y-72400000D02*
X226083333Y-72983333D01*
X226083333Y-72983333D02*
X225500000Y-72983333D01*
X225500000Y-72983333D02*
X225500000Y-72400000D01*
G36*
X226083333Y-72983333D02*
G01*
X225500000Y-72983333D01*
X225500000Y-72400000D01*
X226083333Y-72400000D01*
X226083333Y-72983333D01*
G37*
X226083333Y-72983333D02*
X225500000Y-72983333D01*
X225500000Y-72400000D01*
X226083333Y-72400000D01*
X226083333Y-72983333D01*
X229583333Y-75316667D02*
X230166667Y-75316667D01*
X230166667Y-75316667D02*
X230166667Y-75900000D01*
X230166667Y-75900000D02*
X229583333Y-75900000D01*
X229583333Y-75900000D02*
X229583333Y-75316667D01*
G36*
X230166667Y-75900000D02*
G01*
X229583333Y-75900000D01*
X229583333Y-75316667D01*
X230166667Y-75316667D01*
X230166667Y-75900000D01*
G37*
X230166667Y-75900000D02*
X229583333Y-75900000D01*
X229583333Y-75316667D01*
X230166667Y-75316667D01*
X230166667Y-75900000D01*
X229000000Y-70650000D02*
X229583333Y-70650000D01*
X229583333Y-70650000D02*
X229583333Y-71233333D01*
X229583333Y-71233333D02*
X229000000Y-71233333D01*
X229000000Y-71233333D02*
X229000000Y-70650000D01*
G36*
X229583333Y-71233333D02*
G01*
X229000000Y-71233333D01*
X229000000Y-70650000D01*
X229583333Y-70650000D01*
X229583333Y-71233333D01*
G37*
X229583333Y-71233333D02*
X229000000Y-71233333D01*
X229000000Y-70650000D01*
X229583333Y-70650000D01*
X229583333Y-71233333D01*
X229000000Y-72983333D02*
X229583333Y-72983333D01*
X229583333Y-72983333D02*
X229583333Y-73566667D01*
X229583333Y-73566667D02*
X229000000Y-73566667D01*
X229000000Y-73566667D02*
X229000000Y-72983333D01*
G36*
X229583333Y-73566667D02*
G01*
X229000000Y-73566667D01*
X229000000Y-72983333D01*
X229583333Y-72983333D01*
X229583333Y-73566667D01*
G37*
X229583333Y-73566667D02*
X229000000Y-73566667D01*
X229000000Y-72983333D01*
X229583333Y-72983333D01*
X229583333Y-73566667D01*
X231333333Y-70650000D02*
X231916667Y-70650000D01*
X231916667Y-70650000D02*
X231916667Y-71233333D01*
X231916667Y-71233333D02*
X231333333Y-71233333D01*
X231333333Y-71233333D02*
X231333333Y-70650000D01*
G36*
X231916667Y-71233333D02*
G01*
X231333333Y-71233333D01*
X231333333Y-70650000D01*
X231916667Y-70650000D01*
X231916667Y-71233333D01*
G37*
X231916667Y-71233333D02*
X231333333Y-71233333D01*
X231333333Y-70650000D01*
X231916667Y-70650000D01*
X231916667Y-71233333D01*
X231916667Y-75316667D02*
X232500000Y-75316667D01*
X232500000Y-75316667D02*
X232500000Y-75900000D01*
X232500000Y-75900000D02*
X231916667Y-75900000D01*
X231916667Y-75900000D02*
X231916667Y-75316667D01*
G36*
X232500000Y-75900000D02*
G01*
X231916667Y-75900000D01*
X231916667Y-75316667D01*
X232500000Y-75316667D01*
X232500000Y-75900000D01*
G37*
X232500000Y-75900000D02*
X231916667Y-75900000D01*
X231916667Y-75316667D01*
X232500000Y-75316667D01*
X232500000Y-75900000D01*
X226083333Y-74733333D02*
X226666667Y-74733333D01*
X226666667Y-74733333D02*
X226666667Y-75316667D01*
X226666667Y-75316667D02*
X226083333Y-75316667D01*
X226083333Y-75316667D02*
X226083333Y-74733333D01*
G36*
X226666667Y-75316667D02*
G01*
X226083333Y-75316667D01*
X226083333Y-74733333D01*
X226666667Y-74733333D01*
X226666667Y-75316667D01*
G37*
X226666667Y-75316667D02*
X226083333Y-75316667D01*
X226083333Y-74733333D01*
X226666667Y-74733333D01*
X226666667Y-75316667D01*
X230750000Y-76483333D02*
X231333333Y-76483333D01*
X231333333Y-76483333D02*
X231333333Y-77066667D01*
X231333333Y-77066667D02*
X230750000Y-77066667D01*
X230750000Y-77066667D02*
X230750000Y-76483333D01*
G36*
X231333333Y-77066667D02*
G01*
X230750000Y-77066667D01*
X230750000Y-76483333D01*
X231333333Y-76483333D01*
X231333333Y-77066667D01*
G37*
X231333333Y-77066667D02*
X230750000Y-77066667D01*
X230750000Y-76483333D01*
X231333333Y-76483333D01*
X231333333Y-77066667D01*
X227833333Y-77066667D02*
X228416667Y-77066667D01*
X228416667Y-77066667D02*
X228416667Y-77650000D01*
X228416667Y-77650000D02*
X227833333Y-77650000D01*
X227833333Y-77650000D02*
X227833333Y-77066667D01*
G36*
X228416667Y-77650000D02*
G01*
X227833333Y-77650000D01*
X227833333Y-77066667D01*
X228416667Y-77066667D01*
X228416667Y-77650000D01*
G37*
X228416667Y-77650000D02*
X227833333Y-77650000D01*
X227833333Y-77066667D01*
X228416667Y-77066667D01*
X228416667Y-77650000D01*
X225500000Y-75900000D02*
X226083333Y-75900000D01*
X226083333Y-75900000D02*
X226083333Y-76483333D01*
X226083333Y-76483333D02*
X225500000Y-76483333D01*
X225500000Y-76483333D02*
X225500000Y-75900000D01*
G36*
X226083333Y-76483333D02*
G01*
X225500000Y-76483333D01*
X225500000Y-75900000D01*
X226083333Y-75900000D01*
X226083333Y-76483333D01*
G37*
X226083333Y-76483333D02*
X225500000Y-76483333D01*
X225500000Y-75900000D01*
X226083333Y-75900000D01*
X226083333Y-76483333D01*
X227250000Y-74733333D02*
X227833333Y-74733333D01*
X227833333Y-74733333D02*
X227833333Y-75316667D01*
X227833333Y-75316667D02*
X227250000Y-75316667D01*
X227250000Y-75316667D02*
X227250000Y-74733333D01*
G36*
X227833333Y-75316667D02*
G01*
X227250000Y-75316667D01*
X227250000Y-74733333D01*
X227833333Y-74733333D01*
X227833333Y-75316667D01*
G37*
X227833333Y-75316667D02*
X227250000Y-75316667D01*
X227250000Y-74733333D01*
X227833333Y-74733333D01*
X227833333Y-75316667D01*
X229000000Y-72400000D02*
X229583333Y-72400000D01*
X229583333Y-72400000D02*
X229583333Y-72983333D01*
X229583333Y-72983333D02*
X229000000Y-72983333D01*
X229000000Y-72983333D02*
X229000000Y-72400000D01*
G36*
X229583333Y-72983333D02*
G01*
X229000000Y-72983333D01*
X229000000Y-72400000D01*
X229583333Y-72400000D01*
X229583333Y-72983333D01*
G37*
X229583333Y-72983333D02*
X229000000Y-72983333D01*
X229000000Y-72400000D01*
X229583333Y-72400000D01*
X229583333Y-72983333D01*
X225500000Y-77066667D02*
X226083333Y-77066667D01*
X226083333Y-77066667D02*
X226083333Y-77650000D01*
X226083333Y-77650000D02*
X225500000Y-77650000D01*
X225500000Y-77650000D02*
X225500000Y-77066667D01*
G36*
X226083333Y-77650000D02*
G01*
X225500000Y-77650000D01*
X225500000Y-77066667D01*
X226083333Y-77066667D01*
X226083333Y-77650000D01*
G37*
X226083333Y-77650000D02*
X225500000Y-77650000D01*
X225500000Y-77066667D01*
X226083333Y-77066667D01*
X226083333Y-77650000D01*
X229000000Y-71233333D02*
X229583333Y-71233333D01*
X229583333Y-71233333D02*
X229583333Y-71816667D01*
X229583333Y-71816667D02*
X229000000Y-71816667D01*
X229000000Y-71816667D02*
X229000000Y-71233333D01*
G36*
X229583333Y-71816667D02*
G01*
X229000000Y-71816667D01*
X229000000Y-71233333D01*
X229583333Y-71233333D01*
X229583333Y-71816667D01*
G37*
X229583333Y-71816667D02*
X229000000Y-71816667D01*
X229000000Y-71233333D01*
X229583333Y-71233333D01*
X229583333Y-71816667D01*
X229000000Y-75316667D02*
X229583333Y-75316667D01*
X229583333Y-75316667D02*
X229583333Y-75900000D01*
X229583333Y-75900000D02*
X229000000Y-75900000D01*
X229000000Y-75900000D02*
X229000000Y-75316667D01*
G36*
X229583333Y-75900000D02*
G01*
X229000000Y-75900000D01*
X229000000Y-75316667D01*
X229583333Y-75316667D01*
X229583333Y-75900000D01*
G37*
X229583333Y-75900000D02*
X229000000Y-75900000D01*
X229000000Y-75316667D01*
X229583333Y-75316667D01*
X229583333Y-75900000D01*
X227833333Y-76483333D02*
X228416667Y-76483333D01*
X228416667Y-76483333D02*
X228416667Y-77066667D01*
X228416667Y-77066667D02*
X227833333Y-77066667D01*
X227833333Y-77066667D02*
X227833333Y-76483333D01*
G36*
X228416667Y-77066667D02*
G01*
X227833333Y-77066667D01*
X227833333Y-76483333D01*
X228416667Y-76483333D01*
X228416667Y-77066667D01*
G37*
X228416667Y-77066667D02*
X227833333Y-77066667D01*
X227833333Y-76483333D01*
X228416667Y-76483333D01*
X228416667Y-77066667D01*
X228416667Y-76483333D02*
X229000000Y-76483333D01*
X229000000Y-76483333D02*
X229000000Y-77066667D01*
X229000000Y-77066667D02*
X228416667Y-77066667D01*
X228416667Y-77066667D02*
X228416667Y-76483333D01*
G36*
X229000000Y-77066667D02*
G01*
X228416667Y-77066667D01*
X228416667Y-76483333D01*
X229000000Y-76483333D01*
X229000000Y-77066667D01*
G37*
X229000000Y-77066667D02*
X228416667Y-77066667D01*
X228416667Y-76483333D01*
X229000000Y-76483333D01*
X229000000Y-77066667D01*
X228416667Y-77066667D02*
X229000000Y-77066667D01*
X229000000Y-77066667D02*
X229000000Y-77650000D01*
X229000000Y-77650000D02*
X228416667Y-77650000D01*
X228416667Y-77650000D02*
X228416667Y-77066667D01*
G36*
X229000000Y-77650000D02*
G01*
X228416667Y-77650000D01*
X228416667Y-77066667D01*
X229000000Y-77066667D01*
X229000000Y-77650000D01*
G37*
X229000000Y-77650000D02*
X228416667Y-77650000D01*
X228416667Y-77066667D01*
X229000000Y-77066667D01*
X229000000Y-77650000D01*
X225500000Y-75316667D02*
X226083333Y-75316667D01*
X226083333Y-75316667D02*
X226083333Y-75900000D01*
X226083333Y-75900000D02*
X225500000Y-75900000D01*
X225500000Y-75900000D02*
X225500000Y-75316667D01*
G36*
X226083333Y-75900000D02*
G01*
X225500000Y-75900000D01*
X225500000Y-75316667D01*
X226083333Y-75316667D01*
X226083333Y-75900000D01*
G37*
X226083333Y-75900000D02*
X225500000Y-75900000D01*
X225500000Y-75316667D01*
X226083333Y-75316667D01*
X226083333Y-75900000D01*
X231916667Y-77066667D02*
X232500000Y-77066667D01*
X232500000Y-77066667D02*
X232500000Y-77650000D01*
X232500000Y-77650000D02*
X231916667Y-77650000D01*
X231916667Y-77650000D02*
X231916667Y-77066667D01*
G36*
X232500000Y-77650000D02*
G01*
X231916667Y-77650000D01*
X231916667Y-77066667D01*
X232500000Y-77066667D01*
X232500000Y-77650000D01*
G37*
X232500000Y-77650000D02*
X231916667Y-77650000D01*
X231916667Y-77066667D01*
X232500000Y-77066667D01*
X232500000Y-77650000D01*
X227250000Y-77066667D02*
X227833333Y-77066667D01*
X227833333Y-77066667D02*
X227833333Y-77650000D01*
X227833333Y-77650000D02*
X227250000Y-77650000D01*
X227250000Y-77650000D02*
X227250000Y-77066667D01*
G36*
X227833333Y-77650000D02*
G01*
X227250000Y-77650000D01*
X227250000Y-77066667D01*
X227833333Y-77066667D01*
X227833333Y-77650000D01*
G37*
X227833333Y-77650000D02*
X227250000Y-77650000D01*
X227250000Y-77066667D01*
X227833333Y-77066667D01*
X227833333Y-77650000D01*
X226083333Y-73566667D02*
X226666667Y-73566667D01*
X226666667Y-73566667D02*
X226666667Y-74150000D01*
X226666667Y-74150000D02*
X226083333Y-74150000D01*
X226083333Y-74150000D02*
X226083333Y-73566667D01*
G36*
X226666667Y-74150000D02*
G01*
X226083333Y-74150000D01*
X226083333Y-73566667D01*
X226666667Y-73566667D01*
X226666667Y-74150000D01*
G37*
X226666667Y-74150000D02*
X226083333Y-74150000D01*
X226083333Y-73566667D01*
X226666667Y-73566667D01*
X226666667Y-74150000D01*
X229583333Y-77066667D02*
X230166667Y-77066667D01*
X230166667Y-77066667D02*
X230166667Y-77650000D01*
X230166667Y-77650000D02*
X229583333Y-77650000D01*
X229583333Y-77650000D02*
X229583333Y-77066667D01*
G36*
X230166667Y-77650000D02*
G01*
X229583333Y-77650000D01*
X229583333Y-77066667D01*
X230166667Y-77066667D01*
X230166667Y-77650000D01*
G37*
X230166667Y-77650000D02*
X229583333Y-77650000D01*
X229583333Y-77066667D01*
X230166667Y-77066667D01*
X230166667Y-77650000D01*
X227250000Y-75316667D02*
X227833333Y-75316667D01*
X227833333Y-75316667D02*
X227833333Y-75900000D01*
X227833333Y-75900000D02*
X227250000Y-75900000D01*
X227250000Y-75900000D02*
X227250000Y-75316667D01*
G36*
X227833333Y-75900000D02*
G01*
X227250000Y-75900000D01*
X227250000Y-75316667D01*
X227833333Y-75316667D01*
X227833333Y-75900000D01*
G37*
X227833333Y-75900000D02*
X227250000Y-75900000D01*
X227250000Y-75316667D01*
X227833333Y-75316667D01*
X227833333Y-75900000D01*
X227250000Y-70650000D02*
X227833333Y-70650000D01*
X227833333Y-70650000D02*
X227833333Y-71233333D01*
X227833333Y-71233333D02*
X227250000Y-71233333D01*
X227250000Y-71233333D02*
X227250000Y-70650000D01*
G36*
X227833333Y-71233333D02*
G01*
X227250000Y-71233333D01*
X227250000Y-70650000D01*
X227833333Y-70650000D01*
X227833333Y-71233333D01*
G37*
X227833333Y-71233333D02*
X227250000Y-71233333D01*
X227250000Y-70650000D01*
X227833333Y-70650000D01*
X227833333Y-71233333D01*
X229583333Y-71233333D02*
X230166667Y-71233333D01*
X230166667Y-71233333D02*
X230166667Y-71816667D01*
X230166667Y-71816667D02*
X229583333Y-71816667D01*
X229583333Y-71816667D02*
X229583333Y-71233333D01*
G36*
X230166667Y-71816667D02*
G01*
X229583333Y-71816667D01*
X229583333Y-71233333D01*
X230166667Y-71233333D01*
X230166667Y-71816667D01*
G37*
X230166667Y-71816667D02*
X229583333Y-71816667D01*
X229583333Y-71233333D01*
X230166667Y-71233333D01*
X230166667Y-71816667D01*
X231333333Y-72400000D02*
X231916667Y-72400000D01*
X231916667Y-72400000D02*
X231916667Y-72983333D01*
X231916667Y-72983333D02*
X231333333Y-72983333D01*
X231333333Y-72983333D02*
X231333333Y-72400000D01*
G36*
X231916667Y-72983333D02*
G01*
X231333333Y-72983333D01*
X231333333Y-72400000D01*
X231916667Y-72400000D01*
X231916667Y-72983333D01*
G37*
X231916667Y-72983333D02*
X231333333Y-72983333D01*
X231333333Y-72400000D01*
X231916667Y-72400000D01*
X231916667Y-72983333D01*
X230750000Y-70650000D02*
X231333333Y-70650000D01*
X231333333Y-70650000D02*
X231333333Y-71233333D01*
X231333333Y-71233333D02*
X230750000Y-71233333D01*
X230750000Y-71233333D02*
X230750000Y-70650000D01*
G36*
X231333333Y-71233333D02*
G01*
X230750000Y-71233333D01*
X230750000Y-70650000D01*
X231333333Y-70650000D01*
X231333333Y-71233333D01*
G37*
X231333333Y-71233333D02*
X230750000Y-71233333D01*
X230750000Y-70650000D01*
X231333333Y-70650000D01*
X231333333Y-71233333D01*
X227250000Y-71233333D02*
X227833333Y-71233333D01*
X227833333Y-71233333D02*
X227833333Y-71816667D01*
X227833333Y-71816667D02*
X227250000Y-71816667D01*
X227250000Y-71816667D02*
X227250000Y-71233333D01*
G36*
X227833333Y-71816667D02*
G01*
X227250000Y-71816667D01*
X227250000Y-71233333D01*
X227833333Y-71233333D01*
X227833333Y-71816667D01*
G37*
X227833333Y-71816667D02*
X227250000Y-71816667D01*
X227250000Y-71233333D01*
X227833333Y-71233333D01*
X227833333Y-71816667D01*
X226083333Y-77066667D02*
X226666667Y-77066667D01*
X226666667Y-77066667D02*
X226666667Y-77650000D01*
X226666667Y-77650000D02*
X226083333Y-77650000D01*
X226083333Y-77650000D02*
X226083333Y-77066667D01*
G36*
X226666667Y-77650000D02*
G01*
X226083333Y-77650000D01*
X226083333Y-77066667D01*
X226666667Y-77066667D01*
X226666667Y-77650000D01*
G37*
X226666667Y-77650000D02*
X226083333Y-77650000D01*
X226083333Y-77066667D01*
X226666667Y-77066667D01*
X226666667Y-77650000D01*
X227833333Y-70650000D02*
X228416667Y-70650000D01*
X228416667Y-70650000D02*
X228416667Y-71233333D01*
X228416667Y-71233333D02*
X227833333Y-71233333D01*
X227833333Y-71233333D02*
X227833333Y-70650000D01*
G36*
X228416667Y-71233333D02*
G01*
X227833333Y-71233333D01*
X227833333Y-70650000D01*
X228416667Y-70650000D01*
X228416667Y-71233333D01*
G37*
X228416667Y-71233333D02*
X227833333Y-71233333D01*
X227833333Y-70650000D01*
X228416667Y-70650000D01*
X228416667Y-71233333D01*
X225500000Y-73566667D02*
X226083333Y-73566667D01*
X226083333Y-73566667D02*
X226083333Y-74150000D01*
X226083333Y-74150000D02*
X225500000Y-74150000D01*
X225500000Y-74150000D02*
X225500000Y-73566667D01*
G36*
X226083333Y-74150000D02*
G01*
X225500000Y-74150000D01*
X225500000Y-73566667D01*
X226083333Y-73566667D01*
X226083333Y-74150000D01*
G37*
X226083333Y-74150000D02*
X225500000Y-74150000D01*
X225500000Y-73566667D01*
X226083333Y-73566667D01*
X226083333Y-74150000D01*
X229000000Y-74150000D02*
X229583333Y-74150000D01*
X229583333Y-74150000D02*
X229583333Y-74733333D01*
X229583333Y-74733333D02*
X229000000Y-74733333D01*
X229000000Y-74733333D02*
X229000000Y-74150000D01*
G36*
X229583333Y-74733333D02*
G01*
X229000000Y-74733333D01*
X229000000Y-74150000D01*
X229583333Y-74150000D01*
X229583333Y-74733333D01*
G37*
X229583333Y-74733333D02*
X229000000Y-74733333D01*
X229000000Y-74150000D01*
X229583333Y-74150000D01*
X229583333Y-74733333D01*
X228416667Y-73566667D02*
X229000000Y-73566667D01*
X229000000Y-73566667D02*
X229000000Y-74150000D01*
X229000000Y-74150000D02*
X228416667Y-74150000D01*
X228416667Y-74150000D02*
X228416667Y-73566667D01*
G36*
X229000000Y-74150000D02*
G01*
X228416667Y-74150000D01*
X228416667Y-73566667D01*
X229000000Y-73566667D01*
X229000000Y-74150000D01*
G37*
X229000000Y-74150000D02*
X228416667Y-74150000D01*
X228416667Y-73566667D01*
X229000000Y-73566667D01*
X229000000Y-74150000D01*
X225500000Y-74733333D02*
X226083333Y-74733333D01*
X226083333Y-74733333D02*
X226083333Y-75316667D01*
X226083333Y-75316667D02*
X225500000Y-75316667D01*
X225500000Y-75316667D02*
X225500000Y-74733333D01*
G36*
X226083333Y-75316667D02*
G01*
X225500000Y-75316667D01*
X225500000Y-74733333D01*
X226083333Y-74733333D01*
X226083333Y-75316667D01*
G37*
X226083333Y-75316667D02*
X225500000Y-75316667D01*
X225500000Y-74733333D01*
X226083333Y-74733333D01*
X226083333Y-75316667D01*
X226083333Y-71816667D02*
X226666667Y-71816667D01*
X226666667Y-71816667D02*
X226666667Y-72400000D01*
X226666667Y-72400000D02*
X226083333Y-72400000D01*
X226083333Y-72400000D02*
X226083333Y-71816667D01*
G36*
X226666667Y-72400000D02*
G01*
X226083333Y-72400000D01*
X226083333Y-71816667D01*
X226666667Y-71816667D01*
X226666667Y-72400000D01*
G37*
X226666667Y-72400000D02*
X226083333Y-72400000D01*
X226083333Y-71816667D01*
X226666667Y-71816667D01*
X226666667Y-72400000D01*
X228416667Y-75316667D02*
X229000000Y-75316667D01*
X229000000Y-75316667D02*
X229000000Y-75900000D01*
X229000000Y-75900000D02*
X228416667Y-75900000D01*
X228416667Y-75900000D02*
X228416667Y-75316667D01*
G36*
X229000000Y-75900000D02*
G01*
X228416667Y-75900000D01*
X228416667Y-75316667D01*
X229000000Y-75316667D01*
X229000000Y-75900000D01*
G37*
X229000000Y-75900000D02*
X228416667Y-75900000D01*
X228416667Y-75316667D01*
X229000000Y-75316667D01*
X229000000Y-75900000D01*
X228416667Y-71233333D02*
X229000000Y-71233333D01*
X229000000Y-71233333D02*
X229000000Y-71816667D01*
X229000000Y-71816667D02*
X228416667Y-71816667D01*
X228416667Y-71816667D02*
X228416667Y-71233333D01*
G36*
X229000000Y-71816667D02*
G01*
X228416667Y-71816667D01*
X228416667Y-71233333D01*
X229000000Y-71233333D01*
X229000000Y-71816667D01*
G37*
X229000000Y-71816667D02*
X228416667Y-71816667D01*
X228416667Y-71233333D01*
X229000000Y-71233333D01*
X229000000Y-71816667D01*
X225500000Y-76483333D02*
X226083333Y-76483333D01*
X226083333Y-76483333D02*
X226083333Y-77066667D01*
X226083333Y-77066667D02*
X225500000Y-77066667D01*
X225500000Y-77066667D02*
X225500000Y-76483333D01*
G36*
X226083333Y-77066667D02*
G01*
X225500000Y-77066667D01*
X225500000Y-76483333D01*
X226083333Y-76483333D01*
X226083333Y-77066667D01*
G37*
X226083333Y-77066667D02*
X225500000Y-77066667D01*
X225500000Y-76483333D01*
X226083333Y-76483333D01*
X226083333Y-77066667D01*
X231916667Y-75900000D02*
X232500000Y-75900000D01*
X232500000Y-75900000D02*
X232500000Y-76483333D01*
X232500000Y-76483333D02*
X231916667Y-76483333D01*
X231916667Y-76483333D02*
X231916667Y-75900000D01*
G36*
X232500000Y-76483333D02*
G01*
X231916667Y-76483333D01*
X231916667Y-75900000D01*
X232500000Y-75900000D01*
X232500000Y-76483333D01*
G37*
X232500000Y-76483333D02*
X231916667Y-76483333D01*
X231916667Y-75900000D01*
X232500000Y-75900000D01*
X232500000Y-76483333D01*
X228416667Y-70650000D02*
X229000000Y-70650000D01*
X229000000Y-70650000D02*
X229000000Y-71233333D01*
X229000000Y-71233333D02*
X228416667Y-71233333D01*
X228416667Y-71233333D02*
X228416667Y-70650000D01*
G36*
X229000000Y-71233333D02*
G01*
X228416667Y-71233333D01*
X228416667Y-70650000D01*
X229000000Y-70650000D01*
X229000000Y-71233333D01*
G37*
X229000000Y-71233333D02*
X228416667Y-71233333D01*
X228416667Y-70650000D01*
X229000000Y-70650000D01*
X229000000Y-71233333D01*
X231333333Y-71233333D02*
X231916667Y-71233333D01*
X231916667Y-71233333D02*
X231916667Y-71816667D01*
X231916667Y-71816667D02*
X231333333Y-71816667D01*
X231333333Y-71816667D02*
X231333333Y-71233333D01*
G36*
X231916667Y-71816667D02*
G01*
X231333333Y-71816667D01*
X231333333Y-71233333D01*
X231916667Y-71233333D01*
X231916667Y-71816667D01*
G37*
X231916667Y-71816667D02*
X231333333Y-71816667D01*
X231333333Y-71233333D01*
X231916667Y-71233333D01*
X231916667Y-71816667D01*
X229583333Y-70650000D02*
X230166667Y-70650000D01*
X230166667Y-70650000D02*
X230166667Y-71233333D01*
X230166667Y-71233333D02*
X229583333Y-71233333D01*
X229583333Y-71233333D02*
X229583333Y-70650000D01*
G36*
X230166667Y-71233333D02*
G01*
X229583333Y-71233333D01*
X229583333Y-70650000D01*
X230166667Y-70650000D01*
X230166667Y-71233333D01*
G37*
X230166667Y-71233333D02*
X229583333Y-71233333D01*
X229583333Y-70650000D01*
X230166667Y-70650000D01*
X230166667Y-71233333D01*
X226083333Y-76483333D02*
X226666667Y-76483333D01*
X226666667Y-76483333D02*
X226666667Y-77066667D01*
X226666667Y-77066667D02*
X226083333Y-77066667D01*
X226083333Y-77066667D02*
X226083333Y-76483333D01*
G36*
X226666667Y-77066667D02*
G01*
X226083333Y-77066667D01*
X226083333Y-76483333D01*
X226666667Y-76483333D01*
X226666667Y-77066667D01*
G37*
X226666667Y-77066667D02*
X226083333Y-77066667D01*
X226083333Y-76483333D01*
X226666667Y-76483333D01*
X226666667Y-77066667D01*
X231916667Y-72400000D02*
X232500000Y-72400000D01*
X232500000Y-72400000D02*
X232500000Y-72983333D01*
X232500000Y-72983333D02*
X231916667Y-72983333D01*
X231916667Y-72983333D02*
X231916667Y-72400000D01*
G36*
X232500000Y-72983333D02*
G01*
X231916667Y-72983333D01*
X231916667Y-72400000D01*
X232500000Y-72400000D01*
X232500000Y-72983333D01*
G37*
X232500000Y-72983333D02*
X231916667Y-72983333D01*
X231916667Y-72400000D01*
X232500000Y-72400000D01*
X232500000Y-72983333D01*
X230750000Y-77066667D02*
X231333333Y-77066667D01*
X231333333Y-77066667D02*
X231333333Y-77650000D01*
X231333333Y-77650000D02*
X230750000Y-77650000D01*
X230750000Y-77650000D02*
X230750000Y-77066667D01*
G36*
X231333333Y-77650000D02*
G01*
X230750000Y-77650000D01*
X230750000Y-77066667D01*
X231333333Y-77066667D01*
X231333333Y-77650000D01*
G37*
X231333333Y-77650000D02*
X230750000Y-77650000D01*
X230750000Y-77066667D01*
X231333333Y-77066667D01*
X231333333Y-77650000D01*
X225500000Y-70650000D02*
X226083333Y-70650000D01*
X226083333Y-70650000D02*
X226083333Y-71233333D01*
X226083333Y-71233333D02*
X225500000Y-71233333D01*
X225500000Y-71233333D02*
X225500000Y-70650000D01*
G36*
X226083333Y-71233333D02*
G01*
X225500000Y-71233333D01*
X225500000Y-70650000D01*
X226083333Y-70650000D01*
X226083333Y-71233333D01*
G37*
X226083333Y-71233333D02*
X225500000Y-71233333D01*
X225500000Y-70650000D01*
X226083333Y-70650000D01*
X226083333Y-71233333D01*
X227833333Y-73566667D02*
X228416667Y-73566667D01*
X228416667Y-73566667D02*
X228416667Y-74150000D01*
X228416667Y-74150000D02*
X227833333Y-74150000D01*
X227833333Y-74150000D02*
X227833333Y-73566667D01*
G36*
X228416667Y-74150000D02*
G01*
X227833333Y-74150000D01*
X227833333Y-73566667D01*
X228416667Y-73566667D01*
X228416667Y-74150000D01*
G37*
X228416667Y-74150000D02*
X227833333Y-74150000D01*
X227833333Y-73566667D01*
X228416667Y-73566667D01*
X228416667Y-74150000D01*
X229000000Y-74733333D02*
X229583333Y-74733333D01*
X229583333Y-74733333D02*
X229583333Y-75316667D01*
X229583333Y-75316667D02*
X229000000Y-75316667D01*
X229000000Y-75316667D02*
X229000000Y-74733333D01*
G36*
X229583333Y-75316667D02*
G01*
X229000000Y-75316667D01*
X229000000Y-74733333D01*
X229583333Y-74733333D01*
X229583333Y-75316667D01*
G37*
X229583333Y-75316667D02*
X229000000Y-75316667D01*
X229000000Y-74733333D01*
X229583333Y-74733333D01*
X229583333Y-75316667D01*
X231916667Y-73566667D02*
X232500000Y-73566667D01*
X232500000Y-73566667D02*
X232500000Y-74150000D01*
X232500000Y-74150000D02*
X231916667Y-74150000D01*
X231916667Y-74150000D02*
X231916667Y-73566667D01*
G36*
X232500000Y-74150000D02*
G01*
X231916667Y-74150000D01*
X231916667Y-73566667D01*
X232500000Y-73566667D01*
X232500000Y-74150000D01*
G37*
X232500000Y-74150000D02*
X231916667Y-74150000D01*
X231916667Y-73566667D01*
X232500000Y-73566667D01*
X232500000Y-74150000D01*
X227833333Y-74150000D02*
X228416667Y-74150000D01*
X228416667Y-74150000D02*
X228416667Y-74733333D01*
X228416667Y-74733333D02*
X227833333Y-74733333D01*
X227833333Y-74733333D02*
X227833333Y-74150000D01*
G36*
X228416667Y-74733333D02*
G01*
X227833333Y-74733333D01*
X227833333Y-74150000D01*
X228416667Y-74150000D01*
X228416667Y-74733333D01*
G37*
X228416667Y-74733333D02*
X227833333Y-74733333D01*
X227833333Y-74150000D01*
X228416667Y-74150000D01*
X228416667Y-74733333D01*
X231333333Y-75316667D02*
X231916667Y-75316667D01*
X231916667Y-75316667D02*
X231916667Y-75900000D01*
X231916667Y-75900000D02*
X231333333Y-75900000D01*
X231333333Y-75900000D02*
X231333333Y-75316667D01*
G36*
X231916667Y-75900000D02*
G01*
X231333333Y-75900000D01*
X231333333Y-75316667D01*
X231916667Y-75316667D01*
X231916667Y-75900000D01*
G37*
X231916667Y-75900000D02*
X231333333Y-75900000D01*
X231333333Y-75316667D01*
X231916667Y-75316667D01*
X231916667Y-75900000D01*
X230750000Y-71233333D02*
X231333333Y-71233333D01*
X231333333Y-71233333D02*
X231333333Y-71816667D01*
X231333333Y-71816667D02*
X230750000Y-71816667D01*
X230750000Y-71816667D02*
X230750000Y-71233333D01*
G36*
X231333333Y-71816667D02*
G01*
X230750000Y-71816667D01*
X230750000Y-71233333D01*
X231333333Y-71233333D01*
X231333333Y-71816667D01*
G37*
X231333333Y-71816667D02*
X230750000Y-71816667D01*
X230750000Y-71233333D01*
X231333333Y-71233333D01*
X231333333Y-71816667D01*
X226666667Y-71233333D02*
X227250000Y-71233333D01*
X227250000Y-71233333D02*
X227250000Y-71816667D01*
X227250000Y-71816667D02*
X226666667Y-71816667D01*
X226666667Y-71816667D02*
X226666667Y-71233333D01*
G36*
X227250000Y-71816667D02*
G01*
X226666667Y-71816667D01*
X226666667Y-71233333D01*
X227250000Y-71233333D01*
X227250000Y-71816667D01*
G37*
X227250000Y-71816667D02*
X226666667Y-71816667D01*
X226666667Y-71233333D01*
X227250000Y-71233333D01*
X227250000Y-71816667D01*
X231333333Y-73566667D02*
X231916667Y-73566667D01*
X231916667Y-73566667D02*
X231916667Y-74150000D01*
X231916667Y-74150000D02*
X231333333Y-74150000D01*
X231333333Y-74150000D02*
X231333333Y-73566667D01*
G36*
X231916667Y-74150000D02*
G01*
X231333333Y-74150000D01*
X231333333Y-73566667D01*
X231916667Y-73566667D01*
X231916667Y-74150000D01*
G37*
X231916667Y-74150000D02*
X231333333Y-74150000D01*
X231333333Y-73566667D01*
X231916667Y-73566667D01*
X231916667Y-74150000D01*
X231333333Y-75900000D02*
X231916667Y-75900000D01*
X231916667Y-75900000D02*
X231916667Y-76483333D01*
X231916667Y-76483333D02*
X231333333Y-76483333D01*
X231333333Y-76483333D02*
X231333333Y-75900000D01*
G36*
X231916667Y-76483333D02*
G01*
X231333333Y-76483333D01*
X231333333Y-75900000D01*
X231916667Y-75900000D01*
X231916667Y-76483333D01*
G37*
X231916667Y-76483333D02*
X231333333Y-76483333D01*
X231333333Y-75900000D01*
X231916667Y-75900000D01*
X231916667Y-76483333D01*
M02*
