G04 #@! TF.GenerationSoftware,KiCad,Pcbnew,6.0.2-378541a8eb~116~ubuntu21.10.1*
G04 #@! TF.CreationDate,2022-03-11T10:43:46-08:00*
G04 #@! TF.ProjectId,PD_ElectrodeBoard_v7,50445f45-6c65-4637-9472-6f6465426f61,6.2*
G04 #@! TF.SameCoordinates,Original*
G04 #@! TF.FileFunction,Legend,Bot*
G04 #@! TF.FilePolarity,Positive*
%FSLAX46Y46*%
G04 Gerber Fmt 4.6, Leading zero omitted, Abs format (unit mm)*
G04 Created by KiCad (PCBNEW 6.0.2-378541a8eb~116~ubuntu21.10.1) date 2022-03-11 10:43:46*
%MOMM*%
%LPD*%
G01*
G04 APERTURE LIST*
%ADD10C,0.150000*%
%ADD11C,0.152400*%
%ADD12C,0.120000*%
%ADD13C,0.250000*%
G04 APERTURE END LIST*
D10*
X195350000Y-61197619D02*
X195921428Y-61197619D01*
X195635714Y-60197619D02*
X195635714Y-61197619D01*
X196397619Y-60197619D02*
X196302380Y-60245238D01*
X196254761Y-60292857D01*
X196207142Y-60388095D01*
X196207142Y-60673809D01*
X196254761Y-60769047D01*
X196302380Y-60816666D01*
X196397619Y-60864285D01*
X196540476Y-60864285D01*
X196635714Y-60816666D01*
X196683333Y-60769047D01*
X196730952Y-60673809D01*
X196730952Y-60388095D01*
X196683333Y-60292857D01*
X196635714Y-60245238D01*
X196540476Y-60197619D01*
X196397619Y-60197619D01*
X197159523Y-60864285D02*
X197159523Y-59864285D01*
X197159523Y-60816666D02*
X197254761Y-60864285D01*
X197445238Y-60864285D01*
X197540476Y-60816666D01*
X197588095Y-60769047D01*
X197635714Y-60673809D01*
X197635714Y-60388095D01*
X197588095Y-60292857D01*
X197540476Y-60245238D01*
X197445238Y-60197619D01*
X197254761Y-60197619D01*
X197159523Y-60245238D01*
X198826190Y-60197619D02*
X198826190Y-61197619D01*
X199207142Y-61197619D01*
X199302380Y-61150000D01*
X199350000Y-61102380D01*
X199397619Y-61007142D01*
X199397619Y-60864285D01*
X199350000Y-60769047D01*
X199302380Y-60721428D01*
X199207142Y-60673809D01*
X198826190Y-60673809D01*
X199969047Y-60197619D02*
X199873809Y-60245238D01*
X199826190Y-60340476D01*
X199826190Y-61197619D01*
X200778571Y-60197619D02*
X200778571Y-60721428D01*
X200730952Y-60816666D01*
X200635714Y-60864285D01*
X200445238Y-60864285D01*
X200350000Y-60816666D01*
X200778571Y-60245238D02*
X200683333Y-60197619D01*
X200445238Y-60197619D01*
X200350000Y-60245238D01*
X200302380Y-60340476D01*
X200302380Y-60435714D01*
X200350000Y-60530952D01*
X200445238Y-60578571D01*
X200683333Y-60578571D01*
X200778571Y-60626190D01*
X201111904Y-60864285D02*
X201492857Y-60864285D01*
X201254761Y-61197619D02*
X201254761Y-60340476D01*
X201302380Y-60245238D01*
X201397619Y-60197619D01*
X201492857Y-60197619D01*
X202207142Y-60245238D02*
X202111904Y-60197619D01*
X201921428Y-60197619D01*
X201826190Y-60245238D01*
X201778571Y-60340476D01*
X201778571Y-60721428D01*
X201826190Y-60816666D01*
X201921428Y-60864285D01*
X202111904Y-60864285D01*
X202207142Y-60816666D01*
X202254761Y-60721428D01*
X202254761Y-60626190D01*
X201778571Y-60530952D01*
D11*
X234951000Y-66337100D02*
X231649000Y-66337100D01*
X231649000Y-66337100D02*
X231649000Y-66753660D01*
X229182660Y-106050000D02*
X229182660Y-107320000D01*
X230452660Y-106685000D02*
X229182660Y-106050000D01*
X234951000Y-107662900D02*
X234951000Y-107246340D01*
X231649000Y-107662900D02*
X234951000Y-107662900D01*
X231649000Y-107246340D02*
X231649000Y-107662900D01*
X229182660Y-107320000D02*
X230452660Y-106685000D01*
X234951000Y-66753660D02*
X234951000Y-66337100D01*
X165349000Y-66337100D02*
X165349000Y-66753660D01*
X168651000Y-66753660D02*
X168651000Y-66337100D01*
X162882660Y-107320000D02*
X164152660Y-106685000D01*
X162882660Y-106050000D02*
X162882660Y-107320000D01*
X165349000Y-107662900D02*
X168651000Y-107662900D01*
X168651000Y-66337100D02*
X165349000Y-66337100D01*
X168651000Y-107662900D02*
X168651000Y-107246340D01*
X164152660Y-106685000D02*
X162882660Y-106050000D01*
X165349000Y-107246340D02*
X165349000Y-107662900D01*
D12*
X198400000Y-54750000D02*
X198400000Y-54750000D01*
D13*
X199000000Y-52350000D02*
X199000000Y-48750000D01*
D12*
X198400000Y-54750000D02*
X199600000Y-54750000D01*
X199600000Y-52350000D02*
X198400000Y-52350000D01*
D13*
X199000000Y-54750000D02*
X199000000Y-56650000D01*
D12*
X198400000Y-52350000D02*
X198400000Y-54750000D01*
X199600000Y-54750000D02*
X199600000Y-52350000D01*
M02*
